<?xml version="1.0" encoding="UTF-8"?>
<svg width="403px" height="343px" viewBox="0 0 403 343" version="1.1" xmlns="http://www.w3.org/2000/svg" xmlns:xlink="http://www.w3.org/1999/xlink">
    <title>Rectangle 2</title>
    <g id="UI" stroke="none" stroke-width="1" fill="none" fill-rule="evenodd">
        <g id="Home" transform="translate(-221.000000, -3965.000000)" fill-rule="nonzero">
            <g id="Rectangle-2" transform="translate(221.000000, 3965.000000)">
                <g id="imac-(1)" transform="translate(30.577603, 0.000000)">
                    <polygon id="Path" fill="#CCD0D2" points="139.657808 273.358325 238.72188 273.358325 238.72188 319.911243 139.657808 319.911243"></polygon>
                    <path d="M128.112957,319.910297 L250.267677,319.910297 C256.59848,319.910297 261.812528,325.124345 261.812528,331.455149 C261.812528,337.785952 256.59848,343 250.267677,343 L128.112957,343 C121.782153,343 116.568105,337.785952 116.568105,331.455149 C116.568105,325.124345 121.782153,319.910297 128.112957,319.910297 Z" id="Path" fill="#E4E7E7"></path>
                    <path d="M17.5040333,0 L354.918364,0 C364.601325,0 372.422397,7.82107176 372.422397,17.5040333 L372.422397,252.502134 C372.422397,262.185095 0.000945601711,262.185095 0.000945601711,252.502134 L0.000945601711,17.5040333 C0.000945601711,7.82107176 7.82107176,0 17.5040333,0 Z" id="Path" fill="#36434F"></path>
                    <polygon id="Path" fill="#465765" points="17.5040333 17.5040333 354.918364 17.5040333 354.918364 215.25961 17.5040333 215.25961"></polygon>
                    <polygon id="Path" fill="#B7BBBD" opacity="0.470131284" points="139.657808 273.358325 238.72188 273.358325 238.72188 290.862358 139.657808 290.862358"></polygon>
                    <path d="M0,256.225913 C0,265.908875 7.82107176,273.729947 17.5040333,273.729947 L354.918364,273.729947 C364.601325,273.729947 372.422397,265.908875 372.422397,256.225913 L372.422397,233.136211 L0,233.136211 L0,256.225913 Z" id="Path" fill="#E4E7E7"></path>
                </g>
                <g id="iphone-(1)" transform="translate(0.000000, 151.000000)">
                    <path d="M14.2858179,0 L85.7141821,0 C93.5714726,0 100,6.42852738 100,14.2858179 L100,168.571201 C100,176.428491 93.5714726,182.857018 85.7141821,182.857018 L14.2858179,182.857018 C6.42852738,182.857018 0,176.428491 0,168.571201 L0,14.2858179 C0,6.42852738 6.42889011,0 14.2858179,0 Z" id="Path" fill="#E4E7E7"></path>
                    <path d="M11.4290171,25.7141095 L88.5713457,25.7141095 C90.1426587,25.7141095 91.4285092,26.9999601 91.4285092,28.5712731 L91.4285092,154.285383 C91.4285092,155.856696 90.1426587,157.142546 88.5713457,157.142546 L11.4290171,157.142546 C9.85770404,157.142546 8.5718534,155.856696 8.5718534,154.285383 L8.5718534,28.5712731 C8.5718534,26.9999601 9.85770404,25.7141095 11.4290171,25.7141095 Z" id="Path" fill="#465765"></path>
                    <path d="M50.0005441,162.856873 C54.0006456,162.856873 57.1432717,165.999862 57.1432717,169.999601 C57.1432717,173.999703 54.0002829,177.142329 50.0005441,177.142329 C46.0004425,177.142329 42.8578165,173.99934 42.8578165,169.999601 C42.8574538,165.999499 46.0000798,162.856873 50.0005441,162.856873 Z M41.4286906,9.99989118 L58.5716721,9.99989118 C60.1429851,9.99989118 61.4288357,11.2857417 61.4288357,12.8570548 C61.4288357,14.4283678 60.1429851,15.7142184 58.5716721,15.7142184 L41.4286906,15.7142184 C39.8573776,15.7142184 38.571527,14.4283678 38.571527,12.8570548 C38.571527,11.2857417 39.8573776,9.99989118 41.4286906,9.99989118 Z" id="Shape" fill="#BFC3C5"></path>
                </g>
            </g>
        </g>
    </g>
</svg>