<?xml version="1.0" encoding="utf-8"?>
<!-- Generator: Adobe Illustrator 25.4.1, SVG Export Plug-In . SVG Version: 6.00 Build 0)  -->
<svg version="1.1" id="Layer_1" xmlns="http://www.w3.org/2000/svg" xmlns:xlink="http://www.w3.org/1999/xlink" x="0px" y="0px"
	 viewBox="0 0 237 215" style="enable-background:new 0 0 237 215;" xml:space="preserve">
<style type="text/css">
	.st0{fill-rule:evenodd;clip-rule:evenodd;fill:#FFFFFF;}
	.st1{filter:url(#Adobe_OpacityMaskFilter);}
	.st2{mask:url(#mask-2_00000041288306307276567690000004799890262141385344_);}
	.st3{fill-rule:evenodd;clip-rule:evenodd;fill:#317860;}
	.st4{filter:url(#Adobe_OpacityMaskFilter_00000093168077125094703570000016771309607239193020_);}
	.st5{mask:url(#mask-2_00000091727928203345234480000011267224894843323838_);}
	.st6{fill-rule:evenodd;clip-rule:evenodd;fill:#306364;}
	.st7{filter:url(#Adobe_OpacityMaskFilter_00000085935750879572002880000006888909050445290382_);}
	.st8{mask:url(#mask-2_00000168834111843434991520000014728888046695913382_);}
	.st9{fill-rule:evenodd;clip-rule:evenodd;fill:#89C086;}
	.st10{filter:url(#Adobe_OpacityMaskFilter_00000024680055872819632000000003060476732298006961_);}
	.st11{mask:url(#mask-2_00000036219653956442586770000000029892941842544028_);}
	.st12{fill-rule:evenodd;clip-rule:evenodd;fill:#2F256A;}
	.st13{filter:url(#Adobe_OpacityMaskFilter_00000160153743884593605330000009905418875220690872_);}
	.st14{mask:url(#mask-2_00000018198467560513961700000003583857443534866585_);}
	.st15{fill-rule:evenodd;clip-rule:evenodd;fill:#242357;}
	.st16{filter:url(#Adobe_OpacityMaskFilter_00000115476484679974237750000012058178008349456774_);}
	.st17{mask:url(#mask-2_00000029017061859880273270000014787424913442516658_);}
	.st18{fill-rule:evenodd;clip-rule:evenodd;fill:#F8C6A3;}
	.st19{filter:url(#Adobe_OpacityMaskFilter_00000177444170443530166600000005945826888598737084_);}
	.st20{mask:url(#mask-2_00000042699443773996576660000009739138756043252129_);}
	.st21{fill-rule:evenodd;clip-rule:evenodd;fill:#E4E4E4;}
	.st22{fill-rule:evenodd;clip-rule:evenodd;fill:#F85532;}
	.st23{filter:url(#Adobe_OpacityMaskFilter_00000164506252304018155240000006299564409660681864_);}
	.st24{mask:url(#mask-2_00000044875507516464305680000005514328006286126725_);}
	.st25{fill-rule:evenodd;clip-rule:evenodd;fill:#FECB2F;}
	.st26{filter:url(#Adobe_OpacityMaskFilter_00000135680895924442681130000009201291825261346239_);}
	.st27{mask:url(#mask-2_00000164473165039171151500000010557622752678946710_);}
	.st28{fill-rule:evenodd;clip-rule:evenodd;fill:#FFDA60;}
	.st29{filter:url(#Adobe_OpacityMaskFilter_00000067223702042317793670000012107727879216705179_);}
	.st30{mask:url(#mask-2_00000085234328961041687820000018409214659841901731_);}
	.st31{filter:url(#Adobe_OpacityMaskFilter_00000064343106778180238540000000306466346526800794_);}
	.st32{mask:url(#mask-2_00000087372872212375748030000013733147069962198400_);}
	.st33{fill-rule:evenodd;clip-rule:evenodd;fill:#E6AC83;}
	.st34{filter:url(#Adobe_OpacityMaskFilter_00000014631902473915298250000018240410591305556101_);}
	.st35{mask:url(#mask-2_00000070102205992429755710000007141873615015419025_);}
	.st36{filter:url(#Adobe_OpacityMaskFilter_00000156565577076360667350000013055492890985191089_);}
	.st37{mask:url(#mask-2_00000026860429141656640980000012291599682168735125_);}
	.st38{fill:#2F256A;}
	.st39{fill-rule:evenodd;clip-rule:evenodd;fill:#A6D9F9;}
	.st40{filter:url(#Adobe_OpacityMaskFilter_00000103980328478089445050000015433613905584517535_);}
	.st41{mask:url(#mask-2_00000155861309242315568300000012089411324689312398_);}
	.st42{fill-rule:evenodd;clip-rule:evenodd;fill:#FFC497;}
	.st43{filter:url(#Adobe_OpacityMaskFilter_00000027588544369000537190000017245750255957979527_);}
	.st44{mask:url(#mask-2_00000158744825557640847530000014023148105269437098_);enable-background:new    ;}
	.st45{fill:#F85532;}
	.st46{filter:url(#Adobe_OpacityMaskFilter_00000043446057705008457030000012265769406802242432_);}
	.st47{mask:url(#mask-2_00000030467667498268619650000018121982252707678345_);}
	.st48{filter:url(#Adobe_OpacityMaskFilter_00000111901743642638454920000008539302832625075100_);}
	.st49{mask:url(#mask-2_00000085252482906432052780000004109368016239940994_);}
	.st50{filter:url(#Adobe_OpacityMaskFilter_00000167387118592043068370000007445933803430329003_);}
	.st51{mask:url(#mask-2_00000025442456306310677820000015666869213914804887_);}
	.st52{filter:url(#Adobe_OpacityMaskFilter_00000072251242290117099080000017157612287478036887_);}
	.st53{mask:url(#mask-2_00000076589175693894157430000010190427545195686845_);}
	.st54{filter:url(#Adobe_OpacityMaskFilter_00000050640386155195916230000010314613547311434420_);}
	.st55{mask:url(#mask-2_00000096044981272663262550000010707371327775627189_);}
	.st56{filter:url(#Adobe_OpacityMaskFilter_00000096036459316371484120000002619641236368052097_);}
	.st57{mask:url(#mask-2_00000023254426378855570420000010516539334631767449_);}
	.st58{fill-rule:evenodd;clip-rule:evenodd;fill:#3B8F73;}
	.st59{filter:url(#Adobe_OpacityMaskFilter_00000165224032916981675350000004481096406513849510_);}
	.st60{mask:url(#mask-2_00000142868651818813886770000012028741576114601129_);}
	.st61{fill-rule:evenodd;clip-rule:evenodd;fill:#409F80;}
</style>
<g id="UI">
	<g id="Home" transform="translate(-221.000000, -1118.000000)">
		<g id="Group-5" transform="translate(221.000000, 1118.000000)">
			<g id="Group-3">
				<g id="Mask">
					<g id="path-1_00000121268124095624145650000013621914315538000285_">
						<ellipse class="st0" cx="118.5" cy="107.5" rx="118.5" ry="107.5"/>
					</g>
				</g>
				<defs>
					<filter id="Adobe_OpacityMaskFilter" filterUnits="userSpaceOnUse" x="-137.8" y="93.7" width="293.7" height="230.7">
						<feColorMatrix  type="matrix" values="1 0 0 0 0  0 1 0 0 0  0 0 1 0 0  0 0 0 1 0"/>
					</filter>
				</defs>
				
					<mask maskUnits="userSpaceOnUse" x="-137.8" y="93.7" width="293.7" height="230.7" id="mask-2_00000041288306307276567690000004799890262141385344_">
					<g class="st1">
						
							<ellipse id="path-1_00000091719296437775933510000000012754619568425625_" class="st0" cx="118.5" cy="107.5" rx="118.5" ry="107.5"/>
					</g>
				</mask>
				<g id="Fill-196-Copy-2" class="st2">
					<path class="st3" d="M-40.3,324.5l196.3-104.4c0,0-4.6-38.9-23.1-67.8c-10.5-16.5-31.2-29.9-43.9-30.7c-35-2.4-42.9,15-42.9,15
						S37.5,99.1-1.1,94.2c-38.6-4.9-58.7,25.4-60.3,38.9c0,0-42.3-26.3-76.4,1.6L-40.3,324.5z"/>
				</g>
				<defs>
					
						<filter id="Adobe_OpacityMaskFilter_00000024716481486121121270000002701223217166725274_" filterUnits="userSpaceOnUse" x="30.7" y="203.2" width="36.5" height="38.6">
						<feColorMatrix  type="matrix" values="1 0 0 0 0  0 1 0 0 0  0 0 1 0 0  0 0 0 1 0"/>
					</filter>
				</defs>
				
					<mask maskUnits="userSpaceOnUse" x="30.7" y="203.2" width="36.5" height="38.6" id="mask-2_00000091727928203345234480000011267224894843323838_">
					<g style="filter:url(#Adobe_OpacityMaskFilter_00000024716481486121121270000002701223217166725274_);">
						
							<ellipse id="path-1_00000124162122991081151980000009107279008930334646_" class="st0" cx="118.5" cy="107.5" rx="118.5" ry="107.5"/>
					</g>
				</mask>
				<g id="Fill-31" class="st5">
					<path class="st6" d="M67.1,241.8c0,0,0.6-18-8.1-27.5c-8.7-9.4-17.4-13-24.1-10.2s-5.4,11.3,2.2,14.4
						c7.6,3.1,21.6,11.7,22.7,23.3L67.1,241.8z"/>
				</g>
				<defs>
					
						<filter id="Adobe_OpacityMaskFilter_00000036229240534403187110000012923248882806172586_" filterUnits="userSpaceOnUse" x="37.3" y="206.4" width="27.5" height="36.2">
						<feColorMatrix  type="matrix" values="1 0 0 0 0  0 1 0 0 0  0 0 1 0 0  0 0 0 1 0"/>
					</filter>
				</defs>
				
					<mask maskUnits="userSpaceOnUse" x="37.3" y="206.4" width="27.5" height="36.2" id="mask-2_00000168834111843434991520000014728888046695913382_">
					<g style="filter:url(#Adobe_OpacityMaskFilter_00000036229240534403187110000012923248882806172586_);">
						
							<ellipse id="path-1_00000170274161480505131850000005695521825425538186_" class="st0" cx="118.5" cy="107.5" rx="118.5" ry="107.5"/>
					</g>
				</mask>
				<g id="Fill-33" class="st8">
					<path class="st9" d="M64,242.6C64,242.6,64,242.6,64,242.6c-0.5,0-0.8-0.4-0.8-0.8c0.4-13.1-9.9-30.2-25.3-33.8
						c-0.4-0.1-0.7-0.5-0.6-0.9c0.1-0.4,0.5-0.7,0.9-0.6c16.4,3.8,27,21.4,26.5,35.4C64.8,242.2,64.4,242.6,64,242.6"/>
				</g>
				<defs>
					
						<filter id="Adobe_OpacityMaskFilter_00000072974057099269843000000004949454430437042816_" filterUnits="userSpaceOnUse" x="77.6" y="129.3" width="40.9" height="107.4">
						<feColorMatrix  type="matrix" values="1 0 0 0 0  0 1 0 0 0  0 0 1 0 0  0 0 0 1 0"/>
					</filter>
				</defs>
				
					<mask maskUnits="userSpaceOnUse" x="77.6" y="129.3" width="40.9" height="107.4" id="mask-2_00000036219653956442586770000000029892941842544028_">
					<g style="filter:url(#Adobe_OpacityMaskFilter_00000072974057099269843000000004949454430437042816_);">
						
							<ellipse id="path-1_00000055677717988734651650000012646563852977860275_" class="st0" cx="118.5" cy="107.5" rx="118.5" ry="107.5"/>
					</g>
				</mask>
				<g id="Fill-43" class="st11">
					<path class="st12" d="M77.7,129.3c-0.6,5.3,0.1,12.6,6.3,23.6c6.8,12,15,28.7,15,28.7l5.8,55.1h12.1c0,0,2-51.1,1.3-56.9
						c-0.7-5.8-10.4-50.4-10.4-50.4L77.7,129.3z"/>
				</g>
				<defs>
					
						<filter id="Adobe_OpacityMaskFilter_00000163052408390445058280000017050028371989477529_" filterUnits="userSpaceOnUse" x="49.3" y="129.3" width="58.5" height="100.9">
						<feColorMatrix  type="matrix" values="1 0 0 0 0  0 1 0 0 0  0 0 1 0 0  0 0 0 1 0"/>
					</filter>
				</defs>
				
					<mask maskUnits="userSpaceOnUse" x="49.3" y="129.3" width="58.5" height="100.9" id="mask-2_00000018198467560513961700000003583857443534866585_">
					<g style="filter:url(#Adobe_OpacityMaskFilter_00000163052408390445058280000017050028371989477529_);">
						
							<ellipse id="path-1_00000183220701591949416950000000589647940495968927_" class="st0" cx="118.5" cy="107.5" rx="118.5" ry="107.5"/>
					</g>
				</mask>
				<g id="Fill-39" class="st14">
					<path class="st15" d="M77.7,129.3c-2.2,5.3-2.1,16.6-1.2,25.9c0.9,9.4,1.7,29.4,1.7,29.4l-28.9,37.4l8.6,8.1
						c0,0,29.6-28.6,37.4-35.4c7.8-6.8,12.5-65.4,12.5-65.4L77.7,129.3z"/>
				</g>
				<defs>
					
						<filter id="Adobe_OpacityMaskFilter_00000134216603748864276550000010784078851218386102_" filterUnits="userSpaceOnUse" x="149.8" y="112.6" width="18.3" height="12.8">
						<feColorMatrix  type="matrix" values="1 0 0 0 0  0 1 0 0 0  0 0 1 0 0  0 0 0 1 0"/>
					</filter>
				</defs>
				
					<mask maskUnits="userSpaceOnUse" x="149.8" y="112.6" width="18.3" height="12.8" id="mask-2_00000029017061859880273270000014787424913442516658_">
					<g style="filter:url(#Adobe_OpacityMaskFilter_00000134216603748864276550000010784078851218386102_);">
						
							<ellipse id="path-1_00000155856856391345628460000002681893557194606728_" class="st0" cx="118.5" cy="107.5" rx="118.5" ry="107.5"/>
					</g>
				</mask>
				<g id="Fill-47" class="st17">
					<path class="st18" d="M153.1,123c-1.6,0-3.3-3.3-3.3-3.3l2.1-7.2c3.8,0.1,10,1,12.5,2.2c2.5,1.2,3.4,3,3.7,5.2
						c0.3,2.2-1.6,5-2.8,5.4c-1.2,0.4-3-1.8-5.4-3c-1.9-0.9-3.4-1.1-3.4-1.1"/>
				</g>
				<defs>
					
						<filter id="Adobe_OpacityMaskFilter_00000070818040714945662850000014132322868112559246_" filterUnits="userSpaceOnUse" x="153.4" y="97.8" width="16.4" height="32.4">
						<feColorMatrix  type="matrix" values="1 0 0 0 0  0 1 0 0 0  0 0 1 0 0  0 0 0 1 0"/>
					</filter>
				</defs>
				
					<mask maskUnits="userSpaceOnUse" x="153.4" y="97.8" width="16.4" height="32.4" id="mask-2_00000042699443773996576660000009739138756043252129_">
					<g style="filter:url(#Adobe_OpacityMaskFilter_00000070818040714945662850000014132322868112559246_);">
						
							<ellipse id="path-1_00000057138136173328504070000013460658412925873308_" class="st0" cx="118.5" cy="107.5" rx="118.5" ry="107.5"/>
					</g>
				</mask>
				<g id="Group-41" class="st20">
					
						<g transform="translate(161.642857, 114.000000) rotate(20.000000) translate(-161.642857, -114.000000) translate(158.000000, 97.000000)">
						<g id="Rectangle">
							<path class="st21" d="M3.6,0L3.6,0c2,0,3.6,1.6,3.6,3.6l0,26.7c0,2-1.6,3.6-3.6,3.6l0,0c-2,0-3.6-1.6-3.6-3.6L0,3.6
								C0,1.6,1.6,0,3.6,0z"/>
						</g>
						<g id="Rectangle_00000017476879683648420420000011138111053009936782_">
							<path class="st22" d="M3.6,13.4L3.6,13.4c0.7,0,1.2,0.5,1.2,1.2l0,14.6c0,0.7-0.5,1.2-1.2,1.2l0,0c-0.7,0-1.2-0.5-1.2-1.2
								l0-14.6C2.4,13.9,3,13.4,3.6,13.4z"/>
						</g>
						<g id="Oval">
							<circle class="st22" cx="3.6" cy="30.4" r="2.4"/>
						</g>
					</g>
				</g>
				<defs>
					
						<filter id="Adobe_OpacityMaskFilter_00000008844913783390322740000005182349730745807494_" filterUnits="userSpaceOnUse" x="96.6" y="76.8" width="56.4" height="44.3">
						<feColorMatrix  type="matrix" values="1 0 0 0 0  0 1 0 0 0  0 0 1 0 0  0 0 0 1 0"/>
					</filter>
				</defs>
				
					<mask maskUnits="userSpaceOnUse" x="96.6" y="76.8" width="56.4" height="44.3" id="mask-2_00000044875507516464305680000005514328006286126725_">
					<g style="filter:url(#Adobe_OpacityMaskFilter_00000008844913783390322740000005182349730745807494_);">
						
							<ellipse id="path-1_00000119083748228146316460000000774353858255310228_" class="st0" cx="118.5" cy="107.5" rx="118.5" ry="107.5"/>
					</g>
				</mask>
				<g id="Fill-51" class="st24">
					<path class="st25" d="M96.7,82c0.9,4.4,13.1,20,16.8,24.5s7.5,7.7,13.9,9.5c6.3,1.8,23.3,5.1,23.3,5.1s3.7-3,1.7-8.5
						c-1.1-0.3-21.5-7.9-23.6-9c-2.1-1.1-12.4-17.1-15.4-21.4C109,76.3,95,73.9,96.7,82"/>
				</g>
				<defs>
					
						<filter id="Adobe_OpacityMaskFilter_00000029027522065892923260000001000710684555744910_" filterUnits="userSpaceOnUse" x="77" y="76.8" width="36.6" height="56.4">
						<feColorMatrix  type="matrix" values="1 0 0 0 0  0 1 0 0 0  0 0 1 0 0  0 0 0 1 0"/>
					</filter>
				</defs>
				
					<mask maskUnits="userSpaceOnUse" x="77" y="76.8" width="36.6" height="56.4" id="mask-2_00000164473165039171151500000010557622752678946710_">
					<g style="filter:url(#Adobe_OpacityMaskFilter_00000029027522065892923260000001000710684555744910_);">
						
							<ellipse id="path-1_00000105418363204035381190000003353661423962902678_" class="st0" cx="118.5" cy="107.5" rx="118.5" ry="107.5"/>
					</g>
				</mask>
				<g id="Fill-53" class="st27">
					<path class="st28" d="M90.2,76.8c-5.4,0.8-11,3-12,6.5c-1,3.5,1.1,19.1,1.1,24.4c0,5.3-2.3,19.3-2.3,20.6
						c0,1.3,5.9,4.8,15.9,4.9c8.2,0,14.2-2.3,14.9-3.8c1.2-2.7,6.2-17.1,5.8-30.4c-0.5-14.6-2.8-20.2-12.2-22.2H90.2z"/>
				</g>
				<defs>
					
						<filter id="Adobe_OpacityMaskFilter_00000096769436905994098060000013781560037810249366_" filterUnits="userSpaceOnUse" x="72" y="80.4" width="31.5" height="44.9">
						<feColorMatrix  type="matrix" values="1 0 0 0 0  0 1 0 0 0  0 0 1 0 0  0 0 0 1 0"/>
					</filter>
				</defs>
				
					<mask maskUnits="userSpaceOnUse" x="72" y="80.4" width="31.5" height="44.9" id="mask-2_00000085234328961041687820000018409214659841901731_">
					<g style="filter:url(#Adobe_OpacityMaskFilter_00000096769436905994098060000013781560037810249366_);">
						
							<ellipse id="path-1_00000107548787899891752730000010277515498943821755_" class="st0" cx="118.5" cy="107.5" rx="118.5" ry="107.5"/>
					</g>
				</mask>
				<g id="Fill-243" class="st30">
					<path class="st25" d="M83.6,80.4c-5.3,0.6-6.3,3-7.6,10.1c-1.3,7.1-4.2,25.9-4,28.7c0.4,4.1,3,6.2,6.1,6
						c3.2-0.1,25.4-7.1,25.4-7.1v-9.4l-20,4.1c0,0,2-11.1,3.1-14.7C88,93.9,89.5,82.9,83.6,80.4"/>
				</g>
				<defs>
					
						<filter id="Adobe_OpacityMaskFilter_00000075140961107118849240000011627305550512681372_" filterUnits="userSpaceOnUse" x="90.2" y="65.2" width="11.7" height="17.9">
						<feColorMatrix  type="matrix" values="1 0 0 0 0  0 1 0 0 0  0 0 1 0 0  0 0 0 1 0"/>
					</filter>
				</defs>
				
					<mask maskUnits="userSpaceOnUse" x="90.2" y="65.2" width="11.7" height="17.9" id="mask-2_00000087372872212375748030000013733147069962198400_">
					<g style="filter:url(#Adobe_OpacityMaskFilter_00000075140961107118849240000011627305550512681372_);">
						
							<ellipse id="path-1_00000052809730692854620250000002226245844392089530_" class="st0" cx="118.5" cy="107.5" rx="118.5" ry="107.5"/>
					</g>
				</mask>
				<g id="Fill-59" class="st32">
					<path class="st33" d="M90.6,65.2l-0.5,11.6c0,0,3.4,6.3,8.7,6.2c5.9-0.1,1.5-6.2,1.5-6.2l0.2-5.1L90.6,65.2z"/>
				</g>
				<defs>
					
						<filter id="Adobe_OpacityMaskFilter_00000131335334501649494770000010457645044441135524_" filterUnits="userSpaceOnUse" x="103.6" y="104.7" width="19.7" height="13.4">
						<feColorMatrix  type="matrix" values="1 0 0 0 0  0 1 0 0 0  0 0 1 0 0  0 0 0 1 0"/>
					</filter>
				</defs>
				
					<mask maskUnits="userSpaceOnUse" x="103.6" y="104.7" width="19.7" height="13.4" id="mask-2_00000070102205992429755710000007141873615015419025_">
					<g style="filter:url(#Adobe_OpacityMaskFilter_00000131335334501649494770000010457645044441135524_);">
						
							<ellipse id="path-1_00000096740741606491548850000014733511772761552531_" class="st0" cx="118.5" cy="107.5" rx="118.5" ry="107.5"/>
					</g>
				</mask>
				<g id="Fill-245" class="st35">
					<path class="st18" d="M103.6,116.9c3.8,1,10,1.5,12.9,1.1c2.9-0.4,5.4-2,6.4-4c0.9-2.1,0.4-5.9-0.7-6.7
						c-1.1-0.7-5.6,1.7-8.4,1.7c-2.8,0-2.8-0.9-2.8-0.9s1.6-1,3.2-1.4c1.5-0.5,0.1-2.3-2.1-1.8s-8.4,3.9-8.4,3.9L103.6,116.9z"/>
				</g>
				<defs>
					
						<filter id="Adobe_OpacityMaskFilter_00000052105139178200276880000000514257231204862620_" filterUnits="userSpaceOnUse" x="106.7" y="96.6" width="23.4" height="27.5">
						<feColorMatrix  type="matrix" values="1 0 0 0 0  0 1 0 0 0  0 0 1 0 0  0 0 0 1 0"/>
					</filter>
				</defs>
				
					<mask maskUnits="userSpaceOnUse" x="106.7" y="96.6" width="23.4" height="27.5" id="mask-2_00000026860429141656640980000012291599682168735125_">
					<g style="filter:url(#Adobe_OpacityMaskFilter_00000052105139178200276880000000514257231204862620_);">
						
							<ellipse id="path-1_00000101788766877535531660000016989949830429183626_" class="st0" cx="118.5" cy="107.5" rx="118.5" ry="107.5"/>
					</g>
				</mask>
				<g id="Group-40" class="st37">
					<g transform="translate(107.730519, 98.000000)">
						<g id="Line">
							<path class="st12" d="M8.5,1.1l-8,22.1c-0.2,0.5,0.1,1.1,0.6,1.3c0.1,0,0.3,0.1,0.4,0.1l6.4-0.3l0,0l3.1-0.2
								c0.8,0,1.5-0.5,1.8-1.3l8-21.4c0.2-0.5-0.1-1.1-0.6-1.3c-0.1,0-0.3-0.1-0.4-0.1L9.4,0.5C9,0.5,8.7,0.7,8.5,1.1z"/>
							<path class="st38" d="M1.5,26c-0.3,0-0.6,0-0.9-0.2c-0.6-0.2-1.1-0.7-1.4-1.3c-0.3-0.6-0.3-1.3-0.1-1.9l8-22.1
								C7.5-0.3,8.4-1,9.4-1l10.3-0.4c0.3,0,0.7,0,1,0.2C21.3-1,21.8-0.6,22.1,0s0.3,1.3,0.1,1.9l-8,21.4c-0.5,1.3-1.7,2.2-3.1,2.3
								L1.6,26C1.5,26,1.5,26,1.5,26z M9.8,2L2.2,23l8.7-0.4c0.2,0,0.4-0.1,0.4-0.3l7.7-20.7L9.8,2z M9.9,1.6L9.9,1.6L9.9,1.6
								C9.9,1.6,9.9,1.6,9.9,1.6z M8.5,1.1L8.5,1.1L8.5,1.1z"/>
						</g>
						<g id="Oval_00000118375724698535727610000014822511305130728834_">
							
								<ellipse transform="matrix(0.3256 -0.9455 0.9455 0.3256 9.0122 19.6346)" class="st39" cx="18.3" cy="3.5" rx="2.5" ry="1"/>
						</g>
					</g>
				</g>
				<defs>
					
						<filter id="Adobe_OpacityMaskFilter_00000103971077212742979520000013603953862109539214_" filterUnits="userSpaceOnUse" x="129" y="42" width="57" height="48">
						<feColorMatrix  type="matrix" values="1 0 0 0 0  0 1 0 0 0  0 0 1 0 0  0 0 0 1 0"/>
					</filter>
				</defs>
				
					<mask maskUnits="userSpaceOnUse" x="129" y="42" width="57" height="48" id="mask-2_00000155861309242315568300000012089411324689312398_">
					<g style="filter:url(#Adobe_OpacityMaskFilter_00000103971077212742979520000013603953862109539214_);">
						
							<ellipse id="path-1_00000151532249105596302000000011578284267438308529_" class="st0" cx="118.5" cy="107.5" rx="118.5" ry="107.5"/>
					</g>
				</mask>
				<g id="Path-Copy-2" class="st41">
					<path class="st42" d="M157.5,42c15.7,0,28.5,9.9,28.5,22s-12.8,22-28.5,22c-5.5,0-10.7-1.2-15.1-3.3l-9.3,7.3l2.3-12
						c-4-3.8-6.4-8.7-6.4-14C129,51.9,141.8,42,157.5,42z"/>
				</g>
				<defs>
					
						<filter id="Adobe_OpacityMaskFilter_00000087397197638342943640000000558103585738960274_" filterUnits="userSpaceOnUse" x="139.5" y="56.5" width="36" height="12.9">
						<feColorMatrix  type="matrix" values="1 0 0 0 0  0 1 0 0 0  0 0 1 0 0  0 0 0 1 0"/>
					</filter>
				</defs>
				
					<mask maskUnits="userSpaceOnUse" x="139.5" y="56.5" width="36" height="12.9" id="mask-2_00000158744825557640847530000014023148105269437098_">
					<g style="filter:url(#Adobe_OpacityMaskFilter_00000087397197638342943640000000558103585738960274_);">
						
							<ellipse id="path-1_00000009590182422306853530000004805817539518995902_" class="st0" cx="118.5" cy="107.5" rx="118.5" ry="107.5"/>
					</g>
				</mask>
				<g class="st44">
					<path class="st45" d="M140.2,66.3c0.4-0.8,1.1-1.4,2.2-2.1l1.6-0.9c0.7-0.4,1.2-0.8,1.5-1.1c0.5-0.5,0.7-1,0.7-1.6
						c0-0.7-0.2-1.2-0.6-1.7c-0.4-0.4-1-0.6-1.7-0.6c-1,0-1.7,0.4-2.1,1.2c-0.2,0.4-0.3,1-0.3,1.7h-1.5c0-1,0.2-1.9,0.6-2.5
						c0.6-1.2,1.8-1.7,3.4-1.7c1.4,0,2.4,0.4,3,1.1c0.6,0.7,0.9,1.6,0.9,2.5c0,1-0.3,1.8-1,2.4c-0.4,0.4-1.1,0.9-2.1,1.4l-1.1,0.6
						c-0.5,0.3-1,0.6-1.3,0.9c-0.6,0.5-0.9,1-1,1.6h6.5V69h-8.2C139.6,68,139.8,67.1,140.2,66.3z"/>
					<path class="st45" d="M150.1,62c-0.4-0.4-0.7-1-0.7-1.7c0-0.9,0.3-1.6,1-2.3c0.6-0.6,1.6-1,2.7-1c1.1,0,2,0.3,2.7,0.9
						s1,1.3,1,2.1c0,0.7-0.2,1.3-0.6,1.8c-0.2,0.3-0.5,0.5-1,0.8c0.5,0.2,0.9,0.5,1.2,0.8c0.5,0.6,0.8,1.3,0.8,2.2
						c0,1-0.4,1.9-1.1,2.7s-1.7,1.1-3,1.1c-1.2,0-2.1-0.3-2.9-0.9c-0.8-0.6-1.2-1.5-1.2-2.7c0-0.7,0.2-1.3,0.5-1.8
						c0.3-0.5,0.9-0.9,1.5-1.2C150.6,62.5,150.3,62.3,150.1,62z M154.9,67.4c0.5-0.4,0.7-0.9,0.7-1.7c0-0.8-0.2-1.4-0.7-1.8
						s-1.1-0.6-1.8-0.6c-0.7,0-1.3,0.2-1.7,0.6c-0.5,0.4-0.7,1-0.7,1.7c0,0.6,0.2,1.2,0.6,1.6s1.1,0.7,1.9,0.7
						C153.9,68,154.4,67.8,154.9,67.4z M154.6,61.5c0.4-0.4,0.6-0.8,0.6-1.3c0-0.4-0.2-0.9-0.5-1.2c-0.4-0.4-0.9-0.6-1.6-0.6
						c-0.7,0-1.2,0.2-1.6,0.6c-0.3,0.4-0.5,0.8-0.5,1.3c0,0.6,0.2,1,0.6,1.3c0.4,0.3,0.9,0.5,1.5,0.5
						C153.7,62.1,154.2,61.9,154.6,61.5z"/>
					<path class="st45" d="M163,57.2c0.5,0.5,0.7,1.2,0.7,2.1c0,0.8-0.2,1.5-0.7,2c-0.5,0.5-1.1,0.8-2,0.8c-1,0-1.8-0.4-2.2-1.1
						c-0.3-0.5-0.5-1-0.5-1.7c0-0.6,0.2-1.2,0.5-1.7c0.5-0.8,1.2-1.2,2.3-1.2C161.9,56.5,162.5,56.7,163,57.2z M159.9,57.9
						c-0.3,0.3-0.4,0.8-0.4,1.4c0,0.5,0.1,0.9,0.3,1.3c0.2,0.3,0.6,0.5,1.1,0.5c0.6,0,1.1-0.3,1.3-0.8c0.2-0.3,0.2-0.7,0.2-1.1
						c0-0.6-0.1-1.1-0.4-1.4c-0.3-0.3-0.6-0.5-1-0.5C160.6,57.4,160.2,57.6,159.9,57.9z"/>
					<path class="st45" d="M174,57.7c0.8,0.8,1.3,1.7,1.4,2.8h-1.6c-0.2-0.8-0.5-1.4-1.1-1.9c-0.5-0.5-1.3-0.7-2.3-0.7
						c-1.2,0-2.1,0.4-2.9,1.3c-0.7,0.8-1.1,2.1-1.1,3.9c0,1.4,0.3,2.6,1,3.5c0.7,0.9,1.6,1.3,2.9,1.3c1.2,0,2.1-0.5,2.7-1.4
						c0.3-0.5,0.6-1.1,0.7-1.9h1.6c-0.1,1.3-0.6,2.4-1.4,3.2c-1,1-2.2,1.6-3.9,1.6c-1.4,0-2.6-0.4-3.5-1.3c-1.3-1.1-1.9-2.9-1.9-5.3
						c0-1.8,0.5-3.3,1.4-4.4c1-1.3,2.4-1.9,4.2-1.9C172,56.5,173.2,56.9,174,57.7z"/>
				</g>
				<defs>
					
						<filter id="Adobe_OpacityMaskFilter_00000117666219384686406640000001796163528157847225_" filterUnits="userSpaceOnUse" x="103.6" y="107.2" width="19.7" height="11">
						<feColorMatrix  type="matrix" values="1 0 0 0 0  0 1 0 0 0  0 0 1 0 0  0 0 0 1 0"/>
					</filter>
				</defs>
				
					<mask maskUnits="userSpaceOnUse" x="103.6" y="107.2" width="19.7" height="11" id="mask-2_00000030467667498268619650000018121982252707678345_">
					<g style="filter:url(#Adobe_OpacityMaskFilter_00000117666219384686406640000001796163528157847225_);">
						
							<ellipse id="path-1_00000116214005670453294620000010066406169897297312_" class="st0" cx="118.5" cy="107.5" rx="118.5" ry="107.5"/>
					</g>
				</mask>
				<g id="Fill-245-Copy" class="st47">
					<path class="st18" d="M103.6,116.9c3.8,1,10,1.5,12.9,1.1c2.9-0.4,5.4-2,6.4-4c0.9-2.1,0.4-5.9-0.7-6.7
						c-1.1-0.7-5.6,1.7-8.4,1.7c-2.8,0-2.8-0.9-2.8-0.9l-7.3,0.7L103.6,116.9z"/>
				</g>
				<defs>
					
						<filter id="Adobe_OpacityMaskFilter_00000031209144006449674510000010641070502311920575_" filterUnits="userSpaceOnUse" x="106" y="46.4" width="9.2" height="16.1">
						<feColorMatrix  type="matrix" values="1 0 0 0 0  0 1 0 0 0  0 0 1 0 0  0 0 0 1 0"/>
					</filter>
				</defs>
				
					<mask maskUnits="userSpaceOnUse" x="106" y="46.4" width="9.2" height="16.1" id="mask-2_00000085252482906432052780000004109368016239940994_">
					<g style="filter:url(#Adobe_OpacityMaskFilter_00000031209144006449674510000010641070502311920575_);">
						
							<ellipse id="path-1_00000133489560499227084940000008089626393315668383_" class="st0" cx="118.5" cy="107.5" rx="118.5" ry="107.5"/>
					</g>
				</mask>
				<g id="Fill-57" class="st49">
					<path class="st12" d="M107.5,46.4c0,0,5,0.6,7,5.5c1.9,4.8-0.2,9.5-5.2,10.5C103.2,63.7,107.5,46.4,107.5,46.4"/>
				</g>
				<defs>
					
						<filter id="Adobe_OpacityMaskFilter_00000002384336232609489490000002471862312052348310_" filterUnits="userSpaceOnUse" x="83.3" y="44.2" width="27" height="31.1">
						<feColorMatrix  type="matrix" values="1 0 0 0 0  0 1 0 0 0  0 0 1 0 0  0 0 0 1 0"/>
					</filter>
				</defs>
				
					<mask maskUnits="userSpaceOnUse" x="83.3" y="44.2" width="27" height="31.1" id="mask-2_00000025442456306310677820000015666869213914804887_">
					<g style="filter:url(#Adobe_OpacityMaskFilter_00000002384336232609489490000002471862312052348310_);">
						
							<ellipse id="path-1_00000052806545385415659320000010683489178174666938_" class="st0" cx="118.5" cy="107.5" rx="118.5" ry="107.5"/>
					</g>
				</mask>
				<g id="Fill-61" class="st51">
					<path class="st18" d="M89.4,66.7c0,0,0.1,3.1,3.2,5.5c3.2,2.4,8,3.5,9.9,3.1c1.8-0.4,4.8-5,5.9-9.2c1.4-5.5,2.8-11,1-15.3
						c-1.7-4.3-9.4-8.2-17.4-5.9c-5.8,1.7-10.4,10.3-8.2,16.4C84.6,63.6,86.2,66.5,89.4,66.7"/>
				</g>
				<defs>
					
						<filter id="Adobe_OpacityMaskFilter_00000067214585656089095730000003676793118684023440_" filterUnits="userSpaceOnUse" x="80.9" y="41.7" width="28.5" height="28.1">
						<feColorMatrix  type="matrix" values="1 0 0 0 0  0 1 0 0 0  0 0 1 0 0  0 0 0 1 0"/>
					</filter>
				</defs>
				
					<mask maskUnits="userSpaceOnUse" x="80.9" y="41.7" width="28.5" height="28.1" id="mask-2_00000076589175693894157430000010190427545195686845_">
					<g style="filter:url(#Adobe_OpacityMaskFilter_00000067214585656089095730000003676793118684023440_);">
						
							<ellipse id="path-1_00000019652416017508949070000016226136069982249631_" class="st0" cx="118.5" cy="107.5" rx="118.5" ry="107.5"/>
					</g>
				</mask>
				<g id="Fill-63" class="st53">
					<path class="st12" d="M89.4,66.7c0,0-5-1.2-4.4-5.7c0.6-4.5,4.7-4.3,5.9-2.7c1.2,1.6,0.6,4.1,0.6,4.1s1.9,0.3,2.8-2.2
						c0.9-2.5,0.8-4.5,0.8-4.5s8.3,2.3,14.4-4.9c0,0-0.9-7.8-11.1-9c-10.2-1.1-15.5,6.5-16.9,10.6c-1.1,3.2-1.1,15.8,9.1,17.3
						c-0.3-0.4-0.5-0.9-0.7-1.5C89.5,67.6,89.4,67.1,89.4,66.7z"/>
				</g>
				<defs>
					
						<filter id="Adobe_OpacityMaskFilter_00000086667660286603086790000006327679212418095756_" filterUnits="userSpaceOnUse" x="47.1" y="39.2" width="41.1" height="35.4">
						<feColorMatrix  type="matrix" values="1 0 0 0 0  0 1 0 0 0  0 0 1 0 0  0 0 0 1 0"/>
					</filter>
				</defs>
				
					<mask maskUnits="userSpaceOnUse" x="47.1" y="39.2" width="41.1" height="35.4" id="mask-2_00000096044981272663262550000010707371327775627189_">
					<g style="filter:url(#Adobe_OpacityMaskFilter_00000086667660286603086790000006327679212418095756_);">
						
							<ellipse id="path-1_00000021824919566583880900000005718377456519492253_" class="st0" cx="118.5" cy="107.5" rx="118.5" ry="107.5"/>
					</g>
				</mask>
				<g id="Fill-65" class="st55">
					<path class="st12" d="M88.2,43.9c0,0-1.5-3.5-7.1-4.6c-4.8-0.9-9.4,1.1-12.3,6.6C66,51.4,63.6,57,58.5,59.4
						c-4.4,2.1-12.1,1.4-11.4,8.2c0.7,6.1,11,8.7,17.8,5.6c6.5-3,8.5-7.9,9.9-12.9c1.7-6.2,4.4-14.3,9.8-13.3
						C84.6,47,87.3,46.2,88.2,43.9"/>
				</g>
				<defs>
					
						<filter id="Adobe_OpacityMaskFilter_00000174571595737371332810000008324165656952039609_" filterUnits="userSpaceOnUse" x="27" y="122" width="74.4" height="93">
						<feColorMatrix  type="matrix" values="1 0 0 0 0  0 1 0 0 0  0 0 1 0 0  0 0 0 1 0"/>
					</filter>
				</defs>
				
					<mask maskUnits="userSpaceOnUse" x="27" y="122" width="74.4" height="93" id="mask-2_00000023254426378855570420000010516539334631767449_">
					<g style="filter:url(#Adobe_OpacityMaskFilter_00000174571595737371332810000008324165656952039609_);">
						
							<ellipse id="path-1_00000057861878780501023550000013639775549149238164_" class="st0" cx="118.5" cy="107.5" rx="118.5" ry="107.5"/>
					</g>
				</mask>
				<g id="Group-2" class="st57">
					<g id="Group-34" transform="translate(27.000000, 122.000000)">
						<g transform="translate(-0.000000, 0.000000)">
							<g id="Fill-71">
								<path class="st58" d="M16.4,91.9c0,0-14-8.8-15.9-20.6S2,55.5,8.5,54c6.5-1.5,13.1-2.4,10.5-11.1
									c-2.6-8.7-4.4-17.6,2.2-23.1c6.7-5.5,10.3-0.7,15.2,0c4.8,0.7,7.4-2.6,15.2-11.2c3.5-3.8,8-7.3,13.1-8.4
									c3.8-0.8,9.5-0.1,9.6,5c0,1.7-0.7,3.2-1.4,4.7c-2.4,4.8-5.6,9.5-6,14.8c-0.1,1.4,0,2.9,0.6,4.1c1.1,2.2,3.5,3.5,5.1,5.4
									c3.2,3.9,2.1,10-1.1,13.9c-3.2,3.9-8,6.1-12.6,8.1c-1.6,0.7-3.3,1.4-4.6,2.5c-1.4,1.1-2.4,2.7-2.4,4.5
									c0,2.6,2.3,4.7,3.3,7.1c1.2,3.1,0.2,6.6-1.4,9.5c-3.4,6.1-9.3,10.1-15.9,12.1H16.4z"/>
							</g>
							<g id="Fill-73">
								<path class="st9" d="M23,93c-0.6,0-1.1-0.5-1.1-1.1c0-37.8,22.8-73.7,44.3-88.4c0.5-0.3,1.2-0.2,1.5,0.3
									c0.3,0.5,0.2,1.2-0.3,1.5C46.4,19.6,24,54.9,24.1,91.9C24.1,92.5,23.6,93,23,93"/>
							</g>
						</g>
					</g>
				</g>
				<defs>
					
						<filter id="Adobe_OpacityMaskFilter_00000014595491291517394370000004292962019850987196_" filterUnits="userSpaceOnUse" x="109.3" y="112.6" width="161.8" height="104.4">
						<feColorMatrix  type="matrix" values="1 0 0 0 0  0 1 0 0 0  0 0 1 0 0  0 0 0 1 0"/>
					</filter>
				</defs>
				
					<mask maskUnits="userSpaceOnUse" x="109.3" y="112.6" width="161.8" height="104.4" id="mask-2_00000142868651818813886770000012028741576114601129_">
					<g style="filter:url(#Adobe_OpacityMaskFilter_00000014595491291517394370000004292962019850987196_);">
						
							<ellipse id="path-1_00000063621912508860016400000006583890663977991552_" class="st0" cx="118.5" cy="107.5" rx="118.5" ry="107.5"/>
					</g>
				</mask>
				<g id="Fill-196" class="st60">
					<path class="st61" d="M271.1,217.1H111c0,0-6.8-19.9,6.8-35.4c13.7-15.5,32.3-5,32.3-5s-7.2-26.7,15.7-42.8
						c22.9-16.1,45.9-3.7,51.5,4.3c0,0,18-31,49.1-24.8L271.1,217.1z"/>
				</g>
			</g>
			
				<g id="Group" transform="translate(89.350029, 58.838995) rotate(10.000000) translate(-89.350029, -58.838995) translate(56.780774, 39.127949)">
			</g>
		</g>
	</g>
</g>
</svg>
