<?xml version="1.0" encoding="utf-8"?>
<!-- Generator: Adobe Illustrator 25.4.1, SVG Export Plug-In . SVG Version: 6.00 Build 0)  -->
<svg version="1.1" xmlns="http://www.w3.org/2000/svg" xmlns:xlink="http://www.w3.org/1999/xlink" x="0px" y="0px"
	 viewBox="0 0 237 215.5" style="enable-background:new 0 0 237 215.5;" xml:space="preserve">
<style type="text/css">
	.st0{fill:#FFFFFF;}
	.st1{fill:#306364;}
	.st2{fill:#316E6F;}
	.st3{fill:#89C086;}
	.st4{fill:#39957C;}
	.st5{fill:#946158;}
	.st6{fill:#2F256A;}
	.st7{fill:#242357;}
	.st8{fill:#F8C6A3;}
	.st9{fill:#FECB2F;}
	.st10{fill:#FFDA60;}
	.st11{fill:#E6AC83;}
	.st12{fill:#2B2E4F;}
	.st13{fill:#FFC497;}
	.st14{fill:#317860;}
	.st15{fill:#3B8F73;}
	.st16{fill:#42A483;}
</style>
<g id="Layer_1">
	<g>
		<path class="st0" d="M215.9,125.7c-7.7-3.3-13.3-8.6-14.9-10.4l0.5,12.6C206.4,126.2,211.3,125.6,215.9,125.7z"/>
		<path class="st0" d="M185.4,53.7l-2.6,0.6c0.4,0.1,0.8,0.2,1.3,0.3L185.4,53.7z"/>
		<path class="st0" d="M129.7,108.9C129.7,108.9,129.7,108.9,129.7,108.9C129.7,108.9,129.7,108.9,129.7,108.9L129.7,108.9z"/>
		<path class="st0" d="M181.8,89.7l-14.4,4.2c0.2,0.9,0.3,1.9,0.5,3L181.8,89.7z"/>
		<path class="st0" d="M165.6,126.4c0.2,1.6,0.4,2.8,0.4,3.1c0,0.3-0.3,0.6-0.7,1c2.1,5.3,2.1,16.6,1.2,26
			c-0.6,5.9-1.1,15.8-1.4,22.5c3.9,1.1,6.5,2.6,6.5,2.6s-8-29.5,17.3-47.3c0.9-0.7,1.9-1.3,2.8-1.8l0.6-17.6
			c-6.7,5.1-15.2,8-22.8,9.7C168.4,125.7,167.1,126.3,165.6,126.4z"/>
		<path class="st0" d="M173.7,66.9c-1.3-0.8-2.3-1.7-3.2-2.7l-0.3,0.1l0.2-0.1c-1.7-1.9-2.9-4.2-3.9-6.5
			c-2.7-5.9-6.6-13.5-11.8-11.6c0,0,0,0,0,0c1.9,1.6,3.3,3.4,4,4.9c1.6,3,3.5,15.4-6.2,18.6c0,0,0,0.1,0,0.1l0.3,8.4
			c5.1,0.8,10.4,2.8,11.8,5.9l4.1-13.6L173.7,66.9z"/>
		<path class="st0" d="M219.2,120.6c4.6,4.4,12.2,7.6,12.2,7.6c-0.5,0.1-1,0.1-1.5,0.1c1.6,0.6,3,1.2,4.4,1.9
			c0.6-2.7,1.2-5.4,1.6-8.2C227.3,122.8,219.2,120.6,219.2,120.6z"/>
		<path class="st0" d="M211.8,62.6l11.7,6.1L211,66.3l14.8,6.5l7.1,22.9l-16.5-3.6l20.5,9.6c-1.2-19.8-8.3-38.1-19.6-53.6l5.5,16.2
			L211.8,62.6z"/>
		<path class="st0" d="M21.6,121.2c0,0,0.1,0,0.1,0.1c-4.4-6.3-8.2-11.3-10.5-14.4C2.7,95.1,6.7,81,26.3,84.6
			c19.7,3.6,32.5,33.4,36.8,58c1.1,6.7,1.8,13.4,1.9,20.1c5.6-1.4,12.1-1.4,19.3,1.2c21.8,7.6,22.1,30.4,22.1,30.4s7.8-7.9,18.1-6.6
			c0-3.2,0-5.5,0.1-6.5c0.5-4.4,6.2-31.1,9-43.8c-3.6,4.9-7.2,9.7-7.6,10.3c0.1,1.1,0.1,2.5-0.5,3.1c-0.2,0.2-0.8,4.2-1.5,6.3
			c-0.2,0.5-0.6,0.8-1.2,0.8c-0.6,0-0.6-1.1-0.6-1.3c0-0.5-0.1-2.1-0.4-4.8c-0.7,0.9-1.3,2-1.7,3.1c-1,2.5-0.8,5.4-2,5.9s-4-2-4-2
			c-1.2-1.7-1.6-3.7-1.3-5.7c0.5-2.1,3.6-7.6,6.3-10.4c0,0,0-0.1,0-0.1c0.6-1,10.7-20.3,11.5-22.5c0.1-0.2,0.1-0.4,0.1-0.7
			c-0.3,0-0.7,0-1,0l0,1.2c0,0.6-0.4,1-1,1h-0.1l-8.6-1.4c-0.5-0.1-0.8-0.5-0.8-1v-17.4c0-0.6,0.4-1,1-1l0.1,0l8.6,1.3
			c-0.5-3.5-0.9-6.6-1.1-8.3c-0.6-5.4,4-12.7,8.1-13.6c1.5-1,3.5-1.8,5.8-2.3l1.1,0l0-1.2c-0.4,0.1-0.8,0.1-1.1,0.1
			c-1.8-0.1-5.5-4.2-7.3-8.2c-0.5-1.2-1-2.3-1.5-3.5c-5.1-0.3-7.8-4.5-6.7-9.6c0.8-3,3-5.5,6-6.5c1.2-2.2,3.6-4.7,8.3-6
			c4-1.1,7.5-0.6,10.3,0.6c0,0,0,0,0,0c0,0,0.9-3.7,6.3-5.6c4.6-1.6,9.5-0.4,13.2,4.6c1.9,2.6,3.7,5.2,5.7,7.4l5.5-16.9l8-7.4
			l-8,2.6l2.9-10.1C165.4,6.7,142.8,0,118.5,0C53.1,0,0,48.2,0,107.7c0,3.2,0.2,6.3,0.5,9.5C7.1,116.5,14.8,117.9,21.6,121.2z
			 M90.2,63c13.4,0,24.3,8.4,24.3,18.8c-0.1,4.6-2.1,8.9-5.5,11.9l2,10.3l-7.9-6.2c-4,1.9-8.4,2.9-12.9,2.8
			c-13.5,0-24.4-8.4-24.4-18.8C65.9,71.4,76.8,63,90.2,63z"/>
		<path class="st0" d="M11.2,153.6c0.1,0.2,0.2,0.4,0.3,0.6c0.1-0.1,0.2-0.2,0.2-0.2C11.6,153.8,11.4,153.7,11.2,153.6z"/>
		<path class="st1" d="M15.2,150.4c0.5-1.1,0.7-2.3,0.5-3.5c-0.3-4.5-3.1-8.4-5.1-12.4c-0.6-1-0.9-2.1-1.1-3.2
			c-2.7-1.6-5.2-2.9-7.5-3.8c1.9,9.1,5,17.8,9.2,25.9c0.2,0.1,0.4,0.3,0.6,0.4C13,152.8,14.4,151.9,15.2,150.4z"/>
		<path class="st1" d="M17.5,126.4c4.4,0.9,8.2,3.8,11.1,7c0.9,1,1.8,2,2.6,2.8c-3.2-5.5-6.5-10.6-9.5-15c0,0-0.1,0-0.1-0.1
			c-6.8-3.4-14.5-4.7-21.1-4c0.2,2.6,0.6,5.2,1.1,7.8c2.5,0.9,5.3,2.2,8.3,3.9C11,126.2,14.8,125.9,17.5,126.4z"/>
		<path class="st2" d="M41.5,142.8c2.4-0.4,4.5-1.9,7-2.2C38.7,109.6,20.7,94.3,20.4,94c-0.5-0.4-0.6-1.1-0.1-1.6
			c0.4-0.5,1.1-0.6,1.6-0.2c0,0,0,0,0,0c0.3,0.2,19.1,16.3,29.1,48.6c1,0.3,2.2,0.9,3.4,1.9c5.6,4.6,4.1,12,1.9,19.3
			c-0.2,0.6-0.3,1.2-0.4,1.8c0.1,0.8,0.2,1.6,0.3,2.5c2.6-1.6,5.6-2.8,8.9-3.7c-0.1-6.7-0.8-13.5-1.9-20.1
			C58.8,118,46,88.2,26.3,84.6C6.7,81,2.7,95.1,11.2,106.9c2.2,3.1,6.1,8.1,10.5,14.4c3,4.4,6.3,9.4,9.5,15
			C35.9,141.4,38,143.4,41.5,142.8z"/>
		<path class="st3" d="M21.9,92.3C21.9,92.3,21.9,92.3,21.9,92.3c-0.5-0.4-1.2-0.3-1.6,0.1c-0.4,0.5-0.3,1.2,0.1,1.6
			c0.3,0.2,18.3,15.6,28.1,46.6c0.8-0.1,1.6,0,2.5,0.2C41,108.5,22.2,92.5,21.9,92.3z"/>
		<path class="st3" d="M55.9,166.5c0.1,0,0.1-0.1,0.2-0.1c-0.1-0.8-0.2-1.6-0.3-2.5C55.7,164.9,55.7,165.7,55.9,166.5z"/>
		<path class="st3" d="M9.4,130.6c0-0.7,0.2-1.2,0.4-1.7c-3-1.7-5.8-3-8.3-3.9c0.2,0.9,0.3,1.8,0.5,2.7c2.3,0.9,4.8,2.2,7.5,3.8
			C9.5,131.1,9.4,130.9,9.4,130.6z"/>
		<path class="st4" d="M178.2,68.9c-1.8-0.5-3.3-1.2-4.5-2l-5,3.4l-4.1,13.6c0.1,0.1,0.1,0.3,0.2,0.4c1,1.6,1.6,3.9,2.2,7.4
			c0.1,0.6,0.3,1.4,0.4,2.2l14.4-4.2l-13.9,7.3c1.4,8.6,3.3,21.2,3,23.5c-0.2,1.7-0.8,3.1-1.6,4.1c7.7-1.7,16.2-4.6,22.8-9.7l1.8-51
			C191.6,68.1,184.1,70.6,178.2,68.9z"/>
		<path class="st4" d="M215.9,125.7c5.1,0.1,9.9,1.1,14.1,2.7c0.5,0,1-0.1,1.5-0.1c0,0-7.7-3.2-12.2-7.6c0,0,8.1,2.2,16.7,1.5
			c0.7-4.7,1-9.5,1-14.3c0-2-0.1-4-0.2-6l-20.5-9.6l16.5,3.6l-7.1-22.9L211,66.3l12.5,2.3l-11.7-6.1l10.8,1.7l-5.5-16.2
			c-5.5-7.5-12.1-14.4-19.4-20.4l3.2,87.7C202.6,117,208.2,122.4,215.9,125.7z"/>
		<path class="st4" d="M170.5,64.2C170.5,64.2,170.4,64.2,170.5,64.2l-0.3,0.1L170.5,64.2z"/>
		<path class="st4" d="M189.3,25.6l-8,7.4l-5.5,16.9c1.9,2,4,3.6,6.6,4.4c0.1,0,0.3,0.1,0.4,0.1l2.6-0.6l-1.3,0.9
			c3.8,0.6,8.5,0.2,10.2,3.4l1.2-32.2c-3.6-2.8-7.3-5.4-11.3-7.8l-2.9,10.1L189.3,25.6z"/>
		<path class="st5" d="M194.9,60.6c0.1,1.2-0.3,2.3-0.9,3.3l-1.8,51l-0.6,17.6c3.3-2,6.6-3.5,9.8-4.6l-0.5-12.6l-3.2-87.7
			c-0.8-0.6-1.5-1.2-2.3-1.8L194.3,58C194.7,58.7,194.9,59.5,194.9,60.6z"/>
		<path class="st6" d="M135.9,187.1c2-2.3,4.1-4,6.2-5.4c-3.5-15.2-5.8-37.7-6.6-46.9c-0.6,0.8-1.2,1.7-1.8,2.5
			c-2.7,12.7-8.5,39.4-9,43.8c-0.1,1-0.1,3.3-0.1,6.5c2.7,0.3,5.5,1.3,8.5,3.1C133.9,189.6,134.8,188.3,135.9,187.1z"/>
		<path class="st7" d="M165.3,130.6c-1.9,1.6-7.3,3.8-15.3,3.9c-5.6,0-10.1-1-12.7-2.2c-0.6,0.8-1.2,1.7-1.8,2.5
			c0.9,9.2,3.2,31.7,6.6,46.9c8.3-5.3,17.1-4.3,22.9-2.7c0.3-6.7,0.8-16.7,1.4-22.5C167.4,147.2,167.4,135.9,165.3,130.6z"/>
		<path class="st8" d="M119,142.6c-2.6,2.8-5.8,8.3-6.3,10.4c-0.3,2,0.1,4.1,1.3,5.7c0,0,2.8,2.5,4,2s1-3.4,2-5.9
			c0.4-1.1,1-2.2,1.7-3.1c0.3,2.7,0.4,4.3,0.4,4.8c0,0.2,0,1.3,0.6,1.3c0.5,0,1-0.3,1.2-0.8c0.7-2.1,1.3-6.1,1.5-6.3
			c0.7-0.6,0.7-2,0.5-3.1c0,0-0.1,0.1-0.1,0.1S121.3,148,119,142.6z"/>
		<path class="st9" d="M129.3,102.3c0-0.7,0-1.3,0-2c0.4-11,1.8-16.9,6.4-20c-4.1,0.8-8.7,8.2-8.1,13.6c0.2,1.7,0.6,4.8,1.1,8.3
			l0.1,0C129.1,102.1,129.2,102.2,129.3,102.3z"/>
		<path class="st9" d="M137.3,132.3c-1.2-0.5-2-1.1-2.2-1.6c-0.6-1.4-2.2-5.7-3.5-11.4c-0.3,0-0.6,0-0.9,0c0,0.3-0.1,0.6-0.1,0.7
			c-0.8,2.2-11,21.5-11.5,22.5c0,0,0,0.1,0,0.1c2.3,5.3,7,5.1,7,5.1s0,0,0.1-0.1c0.4-0.6,4.1-5.4,7.6-10.3c0.6-0.8,1.2-1.7,1.8-2.5
			C136.1,133.9,136.7,133.1,137.3,132.3z"/>
		<path class="st10" d="M165.3,130.6c0.5-0.4,0.7-0.7,0.7-1c0-0.3-0.2-1.5-0.4-3.1c-0.3,0-0.5,0-0.8,0c-3.1-0.2-25.4-7.1-25.4-7.1
			v-9.3l0,8.1c-2.6,0.6-5.2,1-7.8,1.1c1.4,5.7,2.9,10,3.5,11.4c0.2,0.5,1,1.1,2.2,1.6c2.5,1.2,7.1,2.2,12.7,2.2
			C158,134.4,163.4,132.2,165.3,130.6z"/>
		<path class="st10" d="M129.3,100.2c0,0.7,0,1.3,0,2c0.3,0.2,0.5,0.5,0.5,0.8l-0.1,5.8c0,0,0,0,0,0c0-0.6,0.1-1.1,0.1-1.1
			c1-0.2,2.1-0.2,3.1,0c2.2,0.6,4.4,1.4,6.5,2.3V110l20,4.1c0,0-2-11.1-3.1-14.7c-1.3-4.3-2.8-15.4,3.1-17.9v0
			c2.7,0.3,4.3,1.1,5.4,2.8c0-0.1-0.1-0.3-0.2-0.4c-1.4-3.1-6.7-5.1-11.8-5.9c0,0-3.4,6.3-8.7,6.2c-5.9-0.1-1.5-6.2-1.5-6.2l0,0
			l-1.1,0c-2.3,0.5-4.3,1.3-5.8,2.3C131.1,83.4,129.7,89.2,129.3,100.2z"/>
		<path class="st9" d="M164.8,126.5c0.3,0,0.5,0,0.8,0c1.5-0.1,2.8-0.7,3.8-1.9c0.8-1,1.4-2.3,1.6-4.1c0.2-2.3-1.6-15-3-23.5
			c-0.2-1.1-0.4-2.1-0.5-3c-0.1-0.8-0.3-1.6-0.4-2.2c-0.6-3.5-1.2-5.8-2.2-7.4c-1.1-1.7-2.7-2.5-5.4-2.8v0
			c-5.8,2.5-4.4,13.5-3.1,17.9c1.1,3.6,3.1,14.7,3.1,14.7l-20-4.1v0.1v9.3C139.5,119.4,161.7,126.3,164.8,126.5z"/>
		<path class="st11" d="M144.2,84.2c5.3,0.1,8.7-6.2,8.7-6.2l-0.3-8.4c-0.4,1-1,1.9-1.8,2.7c-2.3,2.4-5.9,4.1-8.1,4.5l0,1.2l0,0
			C142.7,78,138.3,84.1,144.2,84.2z"/>
		<path class="st12" d="M120.2,115.2c-0.9-2-0.4-5.9,0.7-6.7c1.1-0.7,8.7,2,8.7,1.8c0-0.1,0.1-0.8,0.1-1.5l0-0.1l0.1-5.8
			c0-0.4-0.2-0.7-0.5-0.8c-0.1-0.1-0.2-0.1-0.4-0.2l-0.1,0l-8.6-1.3l-0.1,0c-0.6,0-1,0.4-1,1v17.4c0,0.5,0.4,0.9,0.8,1l8.6,1.4h0.1
			c0.6,0,1-0.4,1-1l0-1.2c-1,0-2,0-3.1-0.1C123.7,118.8,121.1,117.2,120.2,115.2z"/>
		<path class="st13" d="M90.2,100.6c4.4,0,8.8-0.9,12.9-2.8l7.9,6.2l-2-10.3c3.4-3,5.4-7.3,5.5-11.9C114.6,71.4,103.7,63,90.2,63
			c-13.5,0-24.4,8.4-24.4,18.8C65.9,92.2,76.8,100.6,90.2,100.6z M82.5,78.2l-2.3,0.3c-0.6,0.1-1-0.3-1.1-0.9
			c-0.1-0.6,0.3-1,0.9-1.1l2.6-0.3c0.2,0,0.3,0,0.5,0l2.9,1.1c0.9-1.3,2.4-2.2,4.1-2.2c1.9,0,3.5,1,4.3,2.6c0.1-0.1,0.2-0.2,0.3-0.2
			l3.2-1.2c0.2,0,0.3,0,0.5,0l2.6,0.3c0.6,0.1,0.9,0.6,0.9,1.1c-0.1,0.6-0.6,0.9-1.1,0.9l-2.3-0.3l-3,1.1c-0.1,0-0.2,0-0.4,0
			c0,0,0,0-0.1,0c0,0.2,0.1,0.5,0.1,0.7v1h3.5c0.2,0,0.3,0,0.4,0.1l2.3,1.1c0.5,0.3,0.7,0.9,0.4,1.3c-0.2,0.3-0.5,0.5-0.9,0.5v0
			c-0.2,0-0.3,0-0.5-0.1l-2.1-1H95v0.8c0,0.3,0,0.6-0.1,0.9c0.2-0.1,0.5-0.1,0.8-0.1c0,0,0,0,0.1,0l3.3,1.2c0.1,0.1,0.3,0.1,0.4,0.2
			l1.8,1.9c0.4,0.4,0.4,1,0,1.4c-0.2,0.2-0.5,0.3-0.8,0.3c-0.3,0-0.5-0.1-0.7-0.3L98,87.6l-3-1.1c-0.3-0.1-0.5-0.3-0.6-0.5
			c-0.8,1.7-2.5,2.8-4.5,2.8c-1.8,0-3.3-0.9-4.2-2.3c0,0,0,0,0,0l-3,1.1l-1.6,1.7c-0.2,0.2-0.5,0.3-0.8,0.3c-0.6,0-1-0.5-1-1
			c0-0.2,0.1-0.5,0.3-0.7l1.8-1.9c0.1-0.1,0.2-0.2,0.4-0.2l3.2-1.2c0,0,0,0,0,0c0-0.3-0.1-0.5-0.1-0.8v-0.9h-2.4l-2.1,1
			C80.3,84,80.2,84,80,84.1c-0.6,0-1-0.5-1-1c0-0.4,0.2-0.7,0.5-0.9l2.3-1.2c0.1-0.1,0.3-0.1,0.5-0.1H85V80c0-0.3,0-0.6,0.1-0.9
			L82.5,78.2z"/>
		<path class="st12" d="M85,80.9h0.8c0.6,0,1,0.4,1,1c0,0.6-0.4,1-1,1H85v0.9c0,0.3,0,0.6,0.1,0.8c0.5-0.2,1.1,0.1,1.2,0.6
			c0.2,0.5-0.1,1-0.5,1.2c0.9,1.4,2.4,2.3,4.2,2.3c2,0,3.7-1.1,4.5-2.8c-0.1-0.2-0.1-0.5-0.1-0.8c0.1-0.3,0.3-0.5,0.5-0.6
			c0-0.3,0.1-0.6,0.1-0.9V83c-0.6,0-1-0.4-1-1c0-0.6,0.4-1,1-1v-1c0-0.2,0-0.5-0.1-0.7c-0.5,0-0.9-0.5-0.9-1c0-0.3,0.1-0.6,0.3-0.7
			C93.5,76,91.9,75,90,75c-1.7,0-3.2,0.9-4.1,2.2l0.3,0.1c0.5,0.2,0.8,0.8,0.6,1.3c-0.1,0.4-0.5,0.7-0.9,0.7l0,0.1
			c-0.1,0-0.2,0-0.3-0.1l-0.4-0.1C85,79.4,85,79.7,85,80V80.9z"/>
		<path class="st12" d="M86.8,81.9c0-0.6-0.4-1-1-1H85h-2.7c-0.2,0-0.3,0-0.5,0.1l-2.3,1.2C79.2,82.3,79,82.7,79,83c0,0.6,0.4,1,1,1
			c0.2,0,0.3-0.1,0.5-0.2l2.1-1H85h0.8C86.3,82.9,86.8,82.4,86.8,81.9z"/>
		<path class="st12" d="M86.3,85.3c-0.2-0.5-0.7-0.8-1.2-0.6c0,0,0,0,0,0l-3.2,1.2c-0.1,0.1-0.3,0.1-0.4,0.2l-1.8,1.9
			c-0.2,0.2-0.3,0.4-0.3,0.7c0,0.6,0.4,1,1,1c0.3,0,0.6-0.1,0.8-0.3l1.6-1.7l3-1.1c0,0,0,0,0,0C86.3,86.3,86.5,85.8,86.3,85.3z"/>
		<path class="st12" d="M85.8,79.3L85.8,79.3c0.5-0.1,0.8-0.3,1-0.7c0.2-0.5-0.1-1.1-0.6-1.3l-0.3-0.1l-2.9-1.1c-0.2,0-0.3,0-0.5,0
			l-2.6,0.3c-0.6,0.1-1,0.6-0.9,1.1c0.1,0.6,0.6,1,1.1,0.9l2.3-0.3l2.6,1l0.4,0.1C85.6,79.3,85.7,79.3,85.8,79.3z"/>
		<path class="st12" d="M94,82c0,0.6,0.4,1,1,1h3.2l2.1,1c0.1,0.1,0.3,0.1,0.5,0.1v0c0.4,0,0.7-0.2,0.9-0.5c0.3-0.5,0.1-1.1-0.4-1.3
			l-2.3-1.1C98.8,81,98.6,81,98.5,81H95C94.4,81,94,81.4,94,82z"/>
		<path class="st12" d="M94.4,85.2c-0.1,0.3-0.1,0.5,0.1,0.8c0.1,0.2,0.3,0.4,0.6,0.5l3,1.1l1.6,1.7c0.2,0.2,0.5,0.3,0.7,0.3
			c0.3,0,0.6-0.1,0.8-0.3c0.4-0.4,0.4-1,0-1.4l-1.8-1.9c-0.1-0.1-0.2-0.2-0.4-0.2l-3.3-1.2c0,0,0,0-0.1,0c-0.3-0.1-0.5-0.1-0.8,0.1
			C94.7,84.8,94.5,85,94.4,85.2z"/>
		<path class="st12" d="M94.9,79.3C95,79.3,95,79.3,94.9,79.3c0.2,0,0.3,0,0.4,0l3-1.1l2.3,0.3c0.6,0.1,1.1-0.3,1.1-0.9
			c0.1-0.6-0.3-1.1-0.9-1.1l-2.6-0.3c-0.2,0-0.3,0-0.5,0l-3.2,1.2c-0.1,0-0.2,0.1-0.3,0.2C94.1,77.8,94,78,94,78.3
			C94,78.8,94.4,79.3,94.9,79.3z"/>
		<path class="st8" d="M139.5,118.2l0-8.1c-2.1-0.9-4.3-1.7-6.5-2.3c-1-0.2-2.1-0.2-3.1,0c0,0,0,0.5-0.1,1.1c0,0,0,0,0,0
			c0,0.6-0.1,1.4-0.1,1.5c-0.1,0.2-7.6-2.5-8.7-1.8c-1.1,0.7-1.6,4.7-0.7,6.7c0.9,2,3.5,3.6,6.3,4c1,0.1,2,0.1,3.1,0.1
			c0.3,0,0.7,0,1,0c0.3,0,0.6,0,0.9,0C134.2,119.2,136.9,118.8,139.5,118.2z"/>
		<path class="st6" d="M130.8,53.7C130.8,53.7,130.8,53.7,130.8,53.7C130.8,53.7,130.8,53.7,130.8,53.7c0,0-0.1-2.2,1.2-4.7
			c-3,1-5.2,3.4-6,6.5c-1.2,5.1,1.6,9.4,6.7,9.6C131.1,61.2,130,57.2,130.8,53.7z"/>
		<path class="st8" d="M152.5,69.6c0,0,0-0.1,0-0.1C152.5,69.5,152.5,69.5,152.5,69.6c0.2-0.6,0.4-1.2,0.4-1.7
			c0.1-0.5,0.1-1.1,0.1-1.6c0,0,4.7-1.9,3.4-6.3c-1.3-4.4-5.3-3.5-6.2-1.8c-0.9,1.7,0.1,4.2,0.1,4.2s-1.8,0.6-3.1-1.7
			c-0.8-1.3-1.3-2.8-1.5-4.4c-5.1,2-10.8,1-14.9-2.6c0,0,0,0,0,0c-0.8,3.5,0.3,7.4,1.9,11.5c0.5,1.2,1,2.3,1.5,3.5
			c1.8,4,5.4,8.1,7.3,8.2c0.3,0,0.7,0,1.1-0.1c2.2-0.4,5.8-2.1,8.1-4.5C151.5,71.5,152.1,70.6,152.5,69.6z"/>
		<path class="st6" d="M130.8,53.7C130.8,53.7,130.8,53.7,130.8,53.7c4.1,3.6,9.9,4.6,15,2.6c0.2,1.5,0.7,3,1.5,4.4
			c1.3,2.3,3.1,1.7,3.1,1.7s-1-2.4-0.1-4.2c0.9-1.7,5-2.6,6.2,1.8c1.3,4.4-3.4,6.3-3.4,6.3c0,0.5,0,1.1-0.1,1.6
			c-0.1,0.6-0.2,1.1-0.5,1.6c0,0,0,0,0.1,0c9.7-3.1,7.8-15.6,6.2-18.6c-0.7-1.4-2.1-3.3-4-4.9c-1.6-0.2-3.1-1.1-4.1-2.5
			c-2.8-1.2-6.3-1.7-10.3-0.6c-4.7,1.3-7.1,3.8-8.3,6C130.7,51.5,130.8,53.7,130.8,53.7z"/>
		<path class="st6" d="M154.7,46.1C154.7,46.1,154.7,46.1,154.7,46.1c5.1-1.9,9.1,5.7,11.8,11.6c1,2.3,2.2,4.5,3.9,6.5
			c0,0,0,0,0.1,0.1c0.9,1,2,1.9,3.2,2.7c1.3,0.8,2.8,1.5,4.5,2c5.8,1.6,13.3-0.8,15.8-5c0.6-1,0.9-2.1,0.9-3.3
			c0-1.1-0.3-1.9-0.6-2.6c-1.7-3.2-6.4-2.8-10.2-3.4c-0.4-0.1-0.9-0.2-1.3-0.3c-0.1,0-0.3-0.1-0.4-0.1c-2.6-0.8-4.7-2.4-6.6-4.4
			c-2-2.2-3.8-4.8-5.7-7.4c-3.7-5-8.6-6.2-13.2-4.6c-5.3,1.9-6.3,5.6-6.3,5.6c0,0,0,0,0,0C151.6,45,153.1,45.8,154.7,46.1z"/>
		<path class="st14" d="M215.9,125.7c-4.6-0.1-9.5,0.5-14.5,2.2c-3.2,1.1-6.5,2.6-9.8,4.6c-0.9,0.6-1.9,1.2-2.8,1.8
			c-25.3,17.8-17.3,47.3-17.3,47.3s-2.5-1.4-6.5-2.6c-5.8-1.7-14.6-2.6-22.9,2.7c-2.1,1.4-4.2,3.1-6.2,5.4c-1.1,1.2-2,2.4-2.8,3.6
			c0,0,0.1,0,0.1,0.1c9.5,6.1,12.3,15.8,13.1,21.6c44.1-9.7,78.6-41.7,88-82.2c-1.4-0.7-2.9-1.3-4.4-1.9
			C225.8,126.8,221,125.8,215.9,125.7z"/>
		<path class="st15" d="M26.4,175.4c-0.1-0.1-0.2-0.1-0.3-0.2c0.6,0.6,1.1,1.3,1.7,1.9C27.5,176.4,27,175.8,26.4,175.4z"/>
		<path class="st15" d="M133.2,190.9c0,0-0.1,0-0.1-0.1c-2.9-1.9-5.8-2.8-8.5-3.1c-10.4-1.3-18.1,6.6-18.1,6.6s-0.3-22.8-22.1-30.4
			c-7.2-2.5-13.8-2.5-19.3-1.2c-3.3,0.8-6.3,2.1-8.9,3.7c-0.1,0-0.1,0.1-0.2,0.1c0.9,3.4,5.1,4,9.2,5c5.5,1.2,8.3,4.6,6.7,14.5
			c-1.2,7.2-7.9,13.2-11.4,15.8c17.1,8.8,36.9,13.8,58,13.8c9.6,0,18.9-1,27.8-3C145.5,206.6,142.7,197,133.2,190.9z"/>
		<path class="st16" d="M71.9,185.9c1.6-9.8-1.2-13.2-6.7-14.5c-4.1-0.9-8.3-1.6-9.2-5c-0.2-0.7-0.2-1.6-0.1-2.6
			c0.1-0.5,0.2-1.1,0.4-1.8c2.2-7.3,3.8-14.7-1.9-19.3c-1.2-1-2.4-1.6-3.4-1.9c-0.9-0.3-1.7-0.3-2.5-0.2c-2.5,0.2-4.6,1.8-7,2.2
			c-3.5,0.5-5.6-1.4-10.3-6.6c-0.8-0.9-1.6-1.8-2.6-2.8c-2.9-3.2-6.8-6.1-11.1-7c-2.7-0.6-6.5-0.2-7.7,2.4c-0.2,0.5-0.4,1.1-0.4,1.7
			c0,0.3,0.1,0.6,0.1,0.8c0.2,1.1,0.5,2.2,1.1,3.2c2,4,4.7,7.9,5.1,12.4c0.1,1.2,0,2.4-0.5,3.5c-0.7,1.5-2.1,2.4-3.4,3.5
			c-0.1,0.1-0.2,0.2-0.2,0.2c4,7.5,8.9,14.6,14.6,21c0.1,0.1,0.2,0.1,0.3,0.2c0.6,0.5,1.1,1,1.4,1.7c7.9,8.5,17.2,15.9,27.6,21.8
			c-4.4-25.7-20.1-48.5-35-58.8c0,0,0,0,0,0c-0.4-0.3-0.5-0.9-0.2-1.3c0,0,0,0,0,0c0.3-0.4,0.8-0.5,1.3-0.2
			c15.5,10.6,31.8,34.6,36,61.4c1,0.6,2,1.1,3.1,1.6C64,199.1,70.7,193.1,71.9,185.9z"/>
		<path class="st3" d="M21.5,138.7c-0.4-0.3-1-0.2-1.3,0.2c0,0,0,0,0,0c-0.3,0.4-0.2,1,0.2,1.3c0,0,0,0,0,0
			c14.9,10.2,30.6,33.1,35,58.8c0.7,0.4,1.3,0.8,2,1.1C53.3,173.3,36.9,149.3,21.5,138.7z"/>
	</g>
</g>
<g id="Layer_2">
</g>
</svg>
