<?xml version="1.0" encoding="UTF-8"?>
<svg width="237px" height="216px" viewBox="0 0 237 216" version="1.1" xmlns="http://www.w3.org/2000/svg" xmlns:xlink="http://www.w3.org/1999/xlink">
    <title>Group 5 Copy 3</title>
    <defs>
        <ellipse id="path-1" cx="118.5" cy="107.727273" rx="118.5" ry="107.727273"></ellipse>
    </defs>
    <g id="UI" stroke="none" stroke-width="1" fill="none" fill-rule="evenodd">
        <g id="Home" transform="translate(-989.000000, -1365.000000)">
            <g id="como-funciona" transform="translate(95.000000, 958.000000)">
                <g id="como-point-copy-2" transform="translate(894.000000, 383.000000)">
                    <g id="Group-3" transform="translate(0.000000, 24.000000)">
                        <mask id="mask-2" fill="white">
                            <use xlink:href="#path-1"></use>
                        </mask>
                        <use id="Mask" fill="#FFFFFF" xlink:href="#path-1"></use>
                        <g id="Group-12" mask="url(#mask-2)">
                            <g transform="translate(11.425784, -94.848992)">
                                <path d="M0,326.724882 L308.709684,326.724882 C308.709684,326.724882 323.8199,300.164703 289.278786,285.485672 C254.737672,270.810583 224.51724,285.485672 224.51724,285.485672 C224.51724,285.485672 232.069306,250.755021 171.622356,230.480226 C111.175407,210.213312 36.1302573,225.509341 31.8095753,255.564902 C31.8095753,255.564902 22.5487234,247.581804 0,252.851463 L0,326.724882 Z" id="Fill-194" fill="#499E82"></path>
                                <path d="M241.22456,123.931609 C233.494359,144.693732 211.674969,155.7327 192.490281,148.588843 C173.307132,141.446525 164.02258,118.825336 171.752781,98.063213 C179.484521,77.3010896 201.303911,66.2605831 220.48706,73.4044403 C239.67021,80.5482974 248.954762,103.169486 241.22456,123.931609" id="Fill-211" fill="#317860"></path>
                                <path d="M227.91424,68.9362208 C227.91424,107.008578 199.395753,137.872442 164.216643,137.872442 C129.037532,137.872442 100.520584,107.008578 100.520584,68.9362208 C100.520584,30.8638636 129.037532,0 164.216643,0 C199.395753,0 227.91424,30.8638636 227.91424,68.9362208" id="Fill-213" fill="#3B8F73"></path>
                                <path d="M155.157618,101.284309 C161.801313,121.283108 152.205891,142.473062 133.726047,148.610439 C115.247742,154.749355 94.8811311,143.511861 88.2389753,123.513062 C81.5952805,103.514264 91.1907026,82.3258481 109.670547,76.1869325 C128.148852,70.0495558 148.515462,81.2855104 155.157618,101.284309" id="Fill-215" fill="#42A483"></path>
                                <path d="M152.610414,270.201301 L157.078018,162.05697 L135.571038,112.442405 L138.539693,113.647412 L157.078018,144.217334 L164.001804,66.1735416 L165.371479,70.8535221 L167.904609,136.411723 L199.1132,94.2272623 L203.0237,91.8172494 L169.297369,153.137152 L173.053973,270.201301 C173.055512,276.147847 152.610414,276.147847 152.610414,270.201301" id="Fill-217" fill="#A36B62"></path>
                            </g>
                        </g>
                        <path d="M103.505997,30 C119.249424,30 132.011993,39.8619855 132.011993,52.0273611 C132.011993,64.1927367 119.249424,74.0547222 103.505997,74.0547222 C97.9775542,74.0547222 92.8166886,72.8386163 88.4469702,70.7337087 L79.15688,78 L81.4466814,65.9798917 C77.4177377,62.1808878 75,57.3223012 75,52.0273611 C75,39.8619855 87.7625694,30 103.505997,30 Z" id="Path-Copy-2" fill="#FFC497" mask="url(#mask-2)"></path>
                        <g id="Group-41" mask="url(#mask-2)">
                            <g transform="translate(89.594651, 37.220705)">
                                <rect id="Rectangle" fill="#FFECDE" x="-3.15303339e-14" y="0" width="7.28571429" height="29" rx="3.64285714"></rect>
                                <rect id="Rectangle" fill="#F85532" x="2.42857143" y="8.35714286" width="2.42857143" height="17" rx="1.21428571"></rect>
                                <circle id="Oval" fill="#F85532" cx="3.64285714" cy="25.3571429" r="2.42857143"></circle>
                            </g>
                        </g>
                        <g id="Group-11" mask="url(#mask-2)">
                            <g transform="translate(20.917760, 60.288985)">
                                <path d="M103.814973,129.205135 L66.061181,129.205135 C64.9639017,129.205135 64.0759212,130.093115 64.0759212,131.190394 C64.0759212,132.286135 64.9639017,133.175654 66.061181,133.175654 L103.814973,133.175654 C104.912252,133.175654 105.801772,132.286135 105.801772,131.190394 C105.801772,130.093115 104.912252,129.205135 103.814973,129.205135" id="Fill-367" fill="#2B2E4F"></path>
                                <path d="M67.4510167,130.419529 L101.289692,130.419529 L80.4798608,104.803522 L46.6411855,104.803522 L67.4510167,130.419529 Z M102.90714,131.95849 L67.0847439,131.95849 C66.8523608,131.95849 66.6338284,131.855379 66.4876271,131.673782 L44.4266206,104.520353 C44.2388673,104.289509 44.2019322,103.970944 44.329666,103.704704 C44.4573998,103.436925 44.725179,103.264561 45.0237374,103.264561 L80.8461335,103.264561 C81.0769777,103.264561 81.2970491,103.369211 81.4432504,103.549269 L103.504257,130.704237 C103.69201,130.933542 103.728945,131.252107 103.601211,131.519886 C103.473478,131.787665 103.20416,131.95849 102.90714,131.95849 L102.90714,131.95849 Z" id="Fill-369" fill="#2B2E4F"></path>
                                <path d="M45.7536667,68.0449762 C39.9902576,69.5100671 37.5094524,74.765619 45.7536667,76.1075931 C53.997881,77.4495671 82.7549069,78.6699632 87.7396017,77.294132 C92.7242965,75.9167619 92.5996407,70.6904502 86.7192706,69.6608853 C80.8373615,68.6313203 48.8038874,67.2693398 45.7536667,68.0449762" id="Fill-371" fill="#2B2E4F"></path>
                                <path d="M37.8748017,35.764345 C35.1108277,47.6728255 32.9516654,61.3695788 32.1344771,64.2889879 C31.3157498,67.2099359 32.3437758,69.0089814 35.2631848,70.4802281 C38.181055,71.9499359 68.6509446,72.0853645 68.6509446,72.0853645 L68.6509446,63.1670853 L46.9315874,61.084871 C46.9315874,61.084871 49.6201524,50.0012736 50.2572822,45.8091437 C51.174503,39.7702606 37.8748017,35.764345 37.8748017,35.764345" id="Fill-373" fill="#FECB2F"></path>
                                <path d="M68.4180998,72.0148947 C72.160853,72.892501 78.40134,73.4340813 81.2622686,73.1719072 C84.1231972,72.910964 86.7671322,71.7194873 87.7320608,70.0836685 C88.6954504,68.4478498 88.3445673,65.3509951 87.2688335,64.7318703 C86.1915608,64.1139764 81.5916063,65.9799668 78.8153206,65.896268 C76.0390348,65.815031 75.994405,65.0925136 75.994405,65.0925136 C75.994405,65.0925136 77.6626387,64.3478407 79.1985219,64.0167381 C80.734405,63.6856356 79.3370284,62.1569021 77.1209245,62.521238 C74.9063595,62.8855738 68.6504829,65.487621 68.6504829,65.487621 L68.4180998,72.0148947 Z" id="Fill-375" fill="#F8C6A3" transform="translate(78.356564, 67.851871) scale(1, -1) translate(-78.356564, -67.851871) "></path>
                                <path d="M22.5813764,96.3098424 C17.2981232,90.1078294 7.24255173,69.8427905 4.06767511,58.9377126 C0.892798483,48.0326346 -2.5483184,36.8566996 2.74416861,34.3743554 C8.03665563,31.8920113 32.7908439,27.0473619 41.9799803,36.878245 C51.1706556,46.7106671 72.4898829,100.389628 72.4898829,100.389628 C72.4898829,100.389628 73.4532725,101.751609 54.1223829,103.602979 C34.802266,105.45281 26.9551037,101.05292 22.5813764,96.3098424" id="Fill-377" fill="#2B2E4F"></path>
                                <path d="M16.2587089,20.0517067 C12.9330141,24.5500898 10.8154037,30.033408 11.6064297,36.193869 C12.3959167,42.3543301 18.188566,54.3520703 34.9047608,54.6367781 C51.6194167,54.919947 65.8409556,44.7197132 63.8972478,34.0208561 C62.3675206,25.6073561 58.0122608,26.1013626 50.7929946,23.3681677 C43.5737284,20.6380509 43.3197998,15.2855444 43.3197998,15.2855444 L16.2587089,20.0517067 Z" id="Fill-379" fill="#2F256A"></path>
                                <path d="M27.8903303,82.6275554 C27.8903303,82.6275554 23.082616,61.1775164 22.0207329,54.6230814 C19.2752264,37.6960489 20.9188368,37.851484 22.0761355,37.0389126 C25.2587069,34.807419 35.7698108,34.2303087 43.2045316,37.0635359 C50.6392524,39.8952242 51.6565056,44.2243216 55.0422199,53.4396203 C57.9108433,61.2529255 59.6960381,65.5220035 62.9955706,75.6837632 L27.8903303,82.6275554 Z" id="Fill-381" fill="#FFDA60"></path>
                                <path d="M98.0467933,92.7811587 L53.9463258,99.3355937 L62.9954167,75.6848405 C62.9954167,75.6848405 97.6682089,71.3357366 101.584865,71.7497171 C105.50306,72.1621587 107.359047,74.0181457 108.596371,75.8741327" id="Fill-383" fill="#B5502C"></path>
                                <path d="M98.4052173,80.8542106 C96.9724446,77.402321 96.9724446,76.255795 88.662055,74.2505288 C80.3516654,72.2437236 62.9952628,75.6848405 62.9952628,75.6848405 L27.8900225,82.6270937 L28.0977822,83.8274833 C29.2042952,93.5460223 35.297042,102.37812 47.2101394,100.889944 C54.7747639,99.9424742 60.3966912,99.0443191 64.0759212,98.1954792 C68.1181717,97.2628862 74.0784652,95.488892 81.9568017,92.8734963" id="Fill-385" fill="#D2643D"></path>
                                <path d="M39.1108952,2.23330801 C39.1108952,2.23330801 44.138681,1.46228853 47.3150965,5.61902229 C50.4930511,9.77575606 49.7358822,14.8543275 45.1836355,17.1843145 C39.6156745,20.0313924 39.1108952,2.23330801 39.1108952,2.23330801" id="Fill-387" fill="#2F256A"></path>
                                <path d="M27.1727128,26.6193768 L27.7436673,36.7580522 C27.7436673,36.7580522 31.7403491,42.7507664 36.9789725,42.1151755 C42.8239465,41.4041755 37.8746478,35.7638833 37.8746478,35.7638833 L37.6745829,32.1227015 L27.1727128,26.6193768 Z" id="Fill-389" fill="#E6AC83"></path>
                                <path d="M27.1727128,26.6193768 C27.1727128,26.6193768 28.0760829,29.5941885 31.7742063,31.0685132 C35.4707907,32.5443768 40.4693361,32.2981431 42.096018,31.4024677 C43.7226998,30.5083314 45.3539985,25.3220327 45.2878232,20.9190652 C45.2016413,15.2510716 44.976953,9.56307164 42.1698881,5.9188119 C39.3628232,2.2730132 30.8631413,0.533987229 23.8193167,4.9000197 C16.775492,9.2645132 15.4442907,25.6867664 27.1727128,26.6193768" id="Fill-391" fill="#F8C6A3"></path>
                                <path d="M27.1727128,26.6193768 C27.1727128,26.6193768 22.0833686,26.8379093 21.4231543,22.3302924 C20.764479,17.8211366 24.7996348,16.9100716 26.3385959,18.1058444 C27.8775569,19.3016171 27.9883621,21.9163119 27.9883621,21.9163119 C27.9883621,21.9163119 29.8566608,21.7208639 30.1059725,19.0846236 C30.3552842,16.4468444 29.6550569,14.4815911 29.6550569,14.4815911 C29.6550569,14.4815911 38.2932452,14.4923639 42.1698881,5.9188119 C42.1698881,5.9188119 39.2027712,-1.40664264 29.05794,0.241584631 C18.9115699,1.8898119 15.8551933,10.6818963 15.630505,15.0587015 C15.4550634,18.476734 17.3910764,30.1097405 27.2204206,30.0266366 L27.1727128,26.6193768 Z" id="Fill-393" fill="#2F256A"></path>
                                <path d="M22.3175985,95.9928164 C31.3882348,102.159433 45.5897673,103.547576 81.9569556,92.8733424 L110.786313,91.1266216 C110.786313,91.1266216 102.103495,103.155141 76.5736699,108.079816 C51.0453842,113.004492 30.5325725,106.277693 22.3175985,95.9928164" id="Fill-395" fill="#2B2E4F"></path>
                                <path d="M108.135719,75.3066839 C109.373043,77.161132 134.23854,112.903998 134.23854,112.903998 L123.715124,118.853621 L97.5201335,92.0610731" id="Fill-397" fill="#B5502C"></path>
                                <path d="M123.715432,118.853313 L126.01464,122.459099 C126.01464,122.459099 134.151127,118.154625 141.544296,114.099463 C148.940543,110.0443 153.600517,106.638579 146.913731,108.699248 C140.547049,110.662963 134.237309,112.90369 134.237309,112.90369 L123.715432,118.853313 Z" id="Fill-399" fill="#251836"></path>
                                <path d="M81.9575712,92.8727268 L95.7081881,129.204519 L107.156519,125.32172 C107.156519,125.32172 99.8387595,84.3053307 98.4059868,80.8534411" id="Fill-401" fill="#D2643D"></path>
                                <path d="M95.7075725,129.205135 L97.2942413,133.175654 C97.2942413,133.175654 106.090943,130.464005 114.112008,127.860083 C122.133073,125.256161 127.348611,122.776894 120.392508,123.555609 C113.771897,124.298927 107.155904,125.322336 107.155904,125.322336 L95.7075725,129.205135 Z" id="Fill-403" fill="#251836"></path>
                                <path d="M13.0567465,130.419529 L46.8954219,130.419529 L67.708331,104.803522 L33.8681167,104.803522 L13.0567465,130.419529 Z M47.2632335,131.95849 L11.4392985,131.95849 C11.142279,131.95849 10.8729608,131.787665 10.7452271,131.519886 C10.6174933,131.252107 10.6544284,130.933542 10.8437206,130.704237 L32.9047271,103.549269 C33.0509284,103.369211 33.2709998,103.264561 33.5018439,103.264561 L69.325779,103.264561 C69.6227985,103.264561 69.8921167,103.436925 70.0198504,103.704704 C70.1475842,103.970944 70.1091102,104.289509 69.9213569,104.520353 L47.8588115,131.673782 C47.7141491,131.855379 47.4940777,131.95849 47.2632335,131.95849 L47.2632335,131.95849 Z" id="Fill-405" fill="#2B2E4F"></path>
                                <path d="M48.2710991,129.205135 L10.5173069,129.205135 C9.4200277,129.205135 8.53204718,130.093115 8.53204718,131.190394 C8.53204718,132.286135 9.4200277,133.175654 10.5173069,133.175654 L48.2710991,133.175654 C49.3683784,133.175654 50.2578978,132.286135 50.2578978,131.190394 C50.2578978,130.093115 49.3683784,129.205135 48.2710991,129.205135" id="Fill-407" fill="#2B2E4F"></path>
                                <path d="M33.5021517,104.804292 C33.2990089,104.804292 33.095866,104.724266 32.9450478,104.565753 L10.8825024,81.3828437 C10.5885608,81.0750515 10.6008725,80.5887398 10.9086647,80.2947983 C11.2164569,80.0039346 11.7027686,80.0131684 11.9967102,80.3224996 L34.0592556,103.50387 C34.3531972,103.811662 34.3408855,104.299513 34.0330933,104.591915 C33.8838141,104.7335 33.6929829,104.804292 33.5021517,104.804292" id="Fill-409" fill="#2B2E4F"></path>
                                <path d="M68.7720608,104.804292 C68.568918,104.804292 68.3657751,104.724266 68.2149569,104.565753 L46.1524115,81.3828437 C45.8584699,81.0750515 45.8707816,80.5887398 46.1785738,80.2947983 C46.486366,80.0039346 46.9726777,80.0131684 47.2666193,80.3224996 L69.3291647,103.50387 C69.6231063,103.811662 69.6107946,104.299513 69.3030024,104.591915 C69.1537232,104.7335 68.962892,104.804292 68.7720608,104.804292" id="Fill-411" fill="#2B2E4F"></path>
                                <path d="M9.51744394,74.1797366 C3.75557381,75.6432885 1.27322965,80.9003794 9.51744394,82.2423535 C17.7616582,83.5843275 46.5186842,84.8047236 51.503379,83.4288924 C56.4880738,82.0499833 56.3649569,76.8236716 50.4830478,75.7956457 C44.6011387,74.7660807 12.5676647,73.4041002 9.51744394,74.1797366" id="Fill-413" fill="#2B2E4F"></path>
                                <path d="M24.109103,36.1610892 C20.5202459,36.8628554 15.6463563,38.1124918 11.9913238,45.8827061 C6.78809653,56.946297 1.85726537,67.5035697 1.04007705,70.4245177 C0.222888743,73.3439268 1.24937576,75.1429723 4.16878485,76.6126801 C7.08819394,78.0839268 37.5580835,78.2193554 37.5580835,78.2193554 L37.5580835,69.3010762 L15.8371874,67.2188619 C15.8371874,67.2188619 20.4910056,57.3264203 22.453181,53.5667385 C24.4138173,49.8070567 26.9100121,39.3513554 24.109103,36.1610892" id="Fill-415" fill="#FECB2F"></path>
                                <path d="M37.371773,79.1793512 C41.1129873,80.1818922 47.1210912,80.7401093 49.9820197,80.4406124 C52.8429483,80.1425217 55.4868834,78.7814282 56.4518119,76.9127368 C57.4167405,75.0440454 57.0658574,71.504921 55.9885847,70.7990647 C54.9113119,70.0932084 50.3113574,72.2248383 47.5350717,72.1292243 C44.758786,72.0364224 44.8750086,72.4242391 44.8750086,72.4242391 C44.8750086,72.4242391 46.5447813,71.5749618 48.0806644,71.196724 C49.6165475,70.8184862 48.217632,69.0707184 46.0015281,69.4883267 C43.7869631,69.9045288 37.371773,71.6624029 37.371773,71.6624029 L37.371773,79.1793512 Z" id="Fill-417" fill="#F8C6A3" transform="translate(47.193831, 74.972852) rotate(9.000000) translate(-47.193831, -74.972852) "></path>
                            </g>
                        </g>
                        <g id="Group-10" mask="url(#mask-2)">
                            <g transform="translate(92.337662, 67.714286)">
                                <path d="M45.9240778,135.941661 L83.6794089,135.941661 C84.7751492,135.941661 85.6646687,136.831181 85.6646687,137.926921 C85.6646687,139.0242 84.7751492,139.912181 83.6794089,139.912181 L45.9240778,139.912181 C44.8283375,139.912181 43.938818,139.0242 43.938818,137.926921 C43.938818,136.831181 44.8283375,135.941661 45.9240778,135.941661" id="Fill-421" fill="#2B2E4F"></path>
                                <path d="M48.4504362,137.15744 L82.2891115,137.15744 L103.098943,111.541434 L69.2602674,111.541434 L48.4504362,137.15744 Z M82.6569232,138.696401 L46.8314492,138.696401 C46.5359687,138.696401 46.2666505,138.525577 46.1389167,138.257797 C46.009644,137.990018 46.048118,137.671453 46.2358713,137.442148 L68.2984167,110.287181 C68.444618,110.107122 68.6646894,110.002473 68.8955336,110.002473 L104.716391,110.002473 C105.014949,110.002473 105.284267,110.174836 105.412001,110.442616 C105.539735,110.708856 105.501261,111.027421 105.311969,111.258265 L83.2525011,138.411694 C83.1062998,138.593291 82.8877674,138.696401 82.6569232,138.696401 L82.6569232,138.696401 Z" id="Fill-423" fill="#2B2E4F"></path>
                                <path d="M103.986769,74.7815026 C109.748639,76.2465935 112.230984,81.5036844 103.986769,82.8456584 C95.742555,84.1876325 66.9839901,85.4064896 62.0008343,84.0306584 C57.0161394,82.6532883 57.1407953,77.4269766 63.0211654,76.3974117 C68.9015355,75.3693857 100.936549,74.0058662 103.986769,74.7815026" id="Fill-425" fill="#2B2E4F"></path>
                                <path d="M108.372225,28.3731636 C111.136199,40.2801052 113.295361,53.9768584 114.112549,56.8962675 C114.931277,59.8187546 113.903251,61.616261 110.983842,63.0875078 C108.065972,64.5587546 77.596082,64.6926442 77.596082,64.6926442 L77.596082,55.7743649 L99.3154391,53.6921507 C99.3154391,53.6921507 96.6268742,42.6085533 95.9897443,38.4164234 C95.0725235,32.3775403 108.372225,28.3731636 108.372225,28.3731636" id="Fill-427" fill="#6F2E59" transform="translate(95.990187, 46.532904) rotate(56.000000) translate(-95.990187, -46.532904) "></path>
                                <path d="M78.9852398,34.975272 C75.2424865,35.8527781 69.0035385,36.3942966 66.1410709,36.1321524 C63.2801424,35.871239 60.6362073,34.6786675 59.6712787,33.0430355 C58.7063502,31.4074034 59.0587722,28.3109021 60.136045,27.6930787 C61.2117787,27.0752553 65.8117333,28.939802 68.588019,28.8573435 C71.3643047,28.774885 71.4089346,28.0524501 71.4089346,28.0524501 C71.4089346,28.0524501 69.7391618,27.3090928 68.2032787,26.9780281 C66.6673956,26.6457327 68.0663112,25.1171736 70.2824151,25.4814678 C72.49698,25.8457621 78.7528566,28.4475124 78.7528566,28.4475124 L78.9852398,34.975272 Z" id="Fill-429" fill="#F8C6A3" transform="translate(69.046494, 30.812109) scale(1, -1) rotate(-56.000000) translate(-69.046494, -30.812109) "></path>
                                <path d="M127.15829,103.046369 C132.441543,96.8458948 142.497115,76.5793169 145.671991,65.674239 C148.848407,54.7707 152.287985,43.5947649 146.995498,41.1108818 C141.703011,38.6285377 116.948823,33.7838883 107.759686,43.6163104 C98.5705498,53.4471935 77.2497836,107.127694 77.2497836,107.127694 C77.2497836,107.127694 76.286394,108.489674 95.6188226,110.339505 C114.9374,112.189336 122.784563,107.790986 127.15829,103.046369" id="Fill-431" fill="#2B2E4F"></path>
                                <path d="M121.850106,89.3654669 C121.850106,89.3654669 126.656281,67.9154279 127.719703,61.3609929 C130.46521,44.4339604 129.073989,42.6949344 127.91669,41.882363 C124.735658,39.6493305 114.552352,38.5012656 107.117632,41.3329539 C99.6829109,44.1661812 96.5680537,50.1912136 93.1838784,59.4065123 C90.315255,67.2198175 89.0440732,72.2599149 86.7433265,82.4216747 L121.850106,89.3654669 Z" id="Fill-433" fill="#924075"></path>
                                <path d="M51.6936427,99.5190701 L95.7925713,106.071966 L86.7434804,82.4227519 C86.7434804,82.4227519 52.0722271,78.0736481 48.1540323,78.4860896 C44.2358375,78.9000701 42.3798505,80.7545182 41.1440648,82.6105052" id="Fill-435" fill="#3D4169"></path>
                                <path d="M41.5409652,81.5649351 C40.3036406,83.4209221 15.8987964,118.595416 15.8987964,118.595416 L26.422212,124.546578 L52.0905431,98.4735" id="Fill-441" fill="#3D4169"></path>
                                <path d="M26.4219042,124.546116 L24.1226964,128.151902 C24.1226964,128.151902 15.9862094,123.847428 8.59150159,119.792266 C1.1967938,115.735564 -3.46318023,112.329844 3.22514445,114.392051 C9.59028731,116.355766 15.8984886,118.594954 15.8984886,118.594954 L26.4219042,124.546116 Z" id="Fill-443" fill="#251836"></path>
                                <path d="M51.3344492,87.5905831 C52.7672219,84.1402325 52.7672219,82.9937065 61.0776115,80.9869013 C69.3880011,78.9800961 86.7444037,82.4227519 86.7444037,82.4227519 L121.849644,89.3650052 L121.641884,90.5653948 C120.53691,100.283934 114.442625,109.114492 102.529527,107.626317 L67.7828648,99.6114078" id="Fill-437" fill="#52578B"></path>
                                <path d="M127.422837,102.729189 C118.350662,108.895806 104.150669,110.285488 67.7819414,99.6112539 L38.9541232,97.8629942 C38.9541232,97.8629942 47.6369414,109.891514 73.1652271,114.816189 C98.6950518,119.740864 119.206325,113.014066 127.422837,102.729189" id="Fill-439" fill="#2B2E4F"></path>
                                <path d="M67.7820953,99.6107922 L54.0314784,135.941045 L42.5831472,132.058247 C42.5831472,132.058247 49.900907,91.0433961 51.3336797,87.5899675" id="Fill-445" fill="#52578B"></path>
                                <path d="M54.032094,135.941661 L52.4454252,139.912181 C52.4454252,139.912181 43.6502628,137.20207 35.6276589,134.598148 C27.606594,131.994226 22.391055,129.51496 29.3471589,130.293674 C35.9693083,131.035453 42.5837628,132.058862 42.5837628,132.058862 L54.032094,135.941661 Z" id="Fill-447" fill="#251836"></path>
                                <path d="M102.843013,137.15744 L136.683228,137.15744 L115.871858,111.541434 L82.0331823,111.541434 L102.843013,137.15744 Z M138.300676,138.696401 L102.47828,138.696401 C102.245897,138.696401 102.027364,138.593291 101.881163,138.411694 L79.8170784,111.258265 C79.6293252,111.027421 79.5923901,110.708856 79.7201239,110.442616 C79.8478576,110.174836 80.1171758,110.002473 80.4157343,110.002473 L116.23813,110.002473 C116.468975,110.002473 116.687507,110.107122 116.835247,110.287181 L138.897793,137.442148 C139.085546,137.671453 139.122481,137.990018 138.994747,138.257797 C138.867013,138.525577 138.597695,138.696401 138.300676,138.696401 L138.300676,138.696401 Z" id="Fill-449" fill="#2B2E4F"></path>
                                <path d="M101.467952,135.941661 L139.223283,135.941661 C140.319023,135.941661 141.208543,136.831181 141.208543,137.926921 C141.208543,139.0242 140.319023,139.912181 139.223283,139.912181 L101.467952,139.912181 C100.372212,139.912181 99.482692,139.0242 99.482692,137.926921 C99.482692,136.831181 100.372212,135.941661 101.467952,135.941661" id="Fill-451" fill="#14352F"></path>
                                <path d="M116.238284,111.542203 C116.045914,111.542203 115.856622,111.471411 115.705804,111.329827 C115.398012,111.037424 115.3857,110.549573 115.68118,110.241781 L137.743726,87.060411 C138.037667,86.7510799 138.523979,86.7433851 138.830232,87.0327097 C139.139563,87.3266513 139.150336,87.812963 138.857934,88.1207552 L116.795388,111.303664 C116.643031,111.462177 116.441427,111.542203 116.238284,111.542203" id="Fill-453" fill="#14352F"></path>
                                <path d="M80.9685291,111.542203 C80.7776979,111.542203 80.5853278,111.471411 80.4375875,111.329827 C80.1297953,111.037424 80.1174836,110.549573 80.4114252,110.241781 L102.472432,87.060411 C102.769451,86.7510799 103.255763,86.7433851 103.562016,87.0327097 C103.868269,87.3266513 103.88212,87.812963 103.586639,88.1207552 L81.525633,111.303664 C81.3748148,111.462177 81.1716719,111.542203 80.9685291,111.542203" id="Fill-455" fill="#2B2E4F"></path>
                                <path d="M140.222992,80.916263 C145.984862,82.3813539 148.467206,87.6369058 140.222992,88.9788799 C131.978778,90.3208539 103.220213,91.54125 98.237057,90.1654188 C93.2523622,88.7880487 93.3754791,83.561737 99.2573881,82.5321721 C105.137758,81.5026071 137.172771,80.1406266 140.222992,80.916263" id="Fill-457" fill="#2B2E4F"></path>
                                <path d="M125.93497,40.9288227 C129.522288,41.62905 134.093002,44.8500955 137.749574,52.6218487 C142.952801,63.6839006 147.883632,74.2411734 148.700821,77.1605825 C149.51647,80.0815305 148.489983,81.879037 145.572113,83.3502838 C142.651165,84.8215305 112.181275,84.9554201 112.181275,84.9554201 L112.181275,76.0371409 L133.902171,73.9564656 C133.902171,73.9564656 127.657067,61.5509006 125.696431,57.7927578 C123.734256,54.033076 123.134061,44.119089 125.93497,40.9288227" id="Fill-459" fill="#6F2E59"></path>
                                <path d="M112.182045,84.5605464 C108.439291,85.4377864 102.432726,85.9250053 99.5717979,85.6629406 C96.7108693,85.4021062 94.0669343,84.2111268 93.1035446,82.5759908 C92.1386161,80.9408548 92.4879602,77.8452925 93.565233,77.2276565 C94.6440446,76.6100205 99.2439992,78.4740017 102.018746,78.3915682 C104.793493,78.3091347 104.839662,77.5869189 104.839662,77.5869189 C104.839662,77.5869189 103.171428,76.8437871 101.634006,76.5128228 C100.098123,76.1806281 101.497038,74.6525326 103.713142,75.0167164 C105.929246,75.3809001 112.182045,77.9818614 112.182045,77.9818614 L112.182045,84.5605464 Z" id="Fill-461" fill="#F8C6A3"></path>
                                <path d="M122.048478,28.7328643 L122.522478,40.3904942 C122.522478,40.3904942 117.194595,43.7392734 111.915958,43.7423534 C107.731523,43.7454292 111.121854,40.3904942 111.121854,40.3904942 L111.060296,35.3780981 L122.048478,28.7328643 Z" id="Fill-463" fill="#E6AC83"></path>
                                <path d="M117.48655,2.36909592 C113.528342,2.5122193 106.82155,0.200699817 104.668543,0.00525176466 C102.513998,-0.190196287 103.689764,5.13460891 103.689764,5.13460891 C103.689764,5.13460891 102.124641,4.21277125 101.045829,3.33248553 C99.9700952,2.45219982 98.4049718,9.98849202 104.473095,12.6308881 C110.53968,15.2732842 117.48655,2.36909592 117.48655,2.36909592" id="Fill-419" fill="#2F256A"></path>
                                <path d="M121.995244,28.898168 C121.995244,28.898168 120.530153,31.9745511 116.99516,33.8043758 C113.458627,35.6326615 109.341906,35.9096745 107.521315,35.5434018 C106.023906,35.2433044 104.301809,33.9105641 103.54464,32.2069342 C102.676666,30.2586096 102.645887,27.1452914 102.450439,24.8045316 C101.982595,19.1550057 102.610491,13.6593758 105.048205,9.75810956 C107.487458,5.85684332 115.8394,3.17443423 123.214101,6.95412254 C126.375127,8.57464852 130.170205,14.1810836 130.100952,19.3150576 C130.008614,26.2342264 125.017763,32.4962589 121.995244,28.898168" id="Fill-465" fill="#F8C6A3"></path>
                                <path d="M122.048478,28.7328643 C122.753322,29.4346305 127.088575,28.6282149 127.350199,23.9020656 C127.602588,19.3528968 123.462783,18.8388838 122.048478,20.1777799 C120.632634,21.5197539 120.777296,24.1329097 120.777296,24.1329097 C120.777296,24.1329097 118.47501,24.5822864 118.424225,21.9321955 C118.410374,21.2150396 118.553497,18.3910461 118.553497,18.3910461 C115.155471,17.7046695 115.83877,12.1751825 115.83877,12.1751825 C115.83877,12.1751825 109.398218,12.1751825 105.64777,8.22466948 C105.64777,8.22466948 107.282147,1.55481234 117.539322,2.2042539 C127.798036,2.85523442 131.622354,8.47859805 131.576186,14.1342799 C131.551562,17.5553903 132.077887,33.7467994 122.287017,34.6224682 L122.048478,28.7328643 Z" id="Fill-467" fill="#2F256A"></path>
                            </g>
                        </g>
                        <g id="Group-31" mask="url(#mask-2)">
                            <g transform="translate(139.873501, 49.000000)">
                                <path d="M24.3488722,0 C37.796383,0 48.6977444,8.42377926 48.6977444,18.8150376 C48.6977444,29.2062959 37.796383,37.6300752 24.3488722,37.6300752 C19.6266609,37.6300752 15.2184215,36.5913181 11.4859537,34.7933762 L3.55066834,41 L5.50654036,30.7328241 C2.06515096,27.4878416 2.13162821e-14,23.337799 2.13162821e-14,18.8150376 C2.13162821e-14,8.42377926 10.9013614,0 24.3488722,0 Z" id="Path-Copy-2" fill="#52578B" transform="translate(24.348872, 20.500000) scale(-1, 1) translate(-24.348872, -20.500000) "></path>
                                <g id="butterfly" stroke-width="1" fill="none" transform="translate(9.126499, 6.000000)">
                                    <path d="M17.8270385,19.5795134 L12.1628004,9.89409446 C11.8148327,9.27778939 12.0429014,8.50326189 12.6731255,8.16073643 C12.8658007,8.05521024 13.083169,8 13.3041727,8.00024032 C13.7888444,7.99107867 14.2388085,8.24446191 14.4729819,8.65827439 L19.8341396,18.1061456 C20.185674,18.720177 20.2632238,19.7333221 19.6334112,20.0760482 C19.4385411,20.1821094 19.2190464,20.2376812 18.9958477,20.2375521 L18.9738983,20.2375521 C18.497389,20.2375521 18.0583311,19.9857023 17.8270385,19.5795134 Z" id="Path" fill="#FFECDE" fill-rule="nonzero"></path>
                                    <path d="M12.1963467,24.9978475 C11.216526,25.0330842 10.2675744,24.6343762 9.5806032,23.8987488 C8.03715204,22.2415586 8.06964575,19.2916461 8.07506137,18.9442625 L7.73387743,18.9442625 C6.48286965,18.9442625 2.31825933,18.6481323 1.19722638,14.8553876 C0.883120535,13.7733734 0.942692334,12.9134568 1.38677302,12.2813327 C1.98249101,11.4328057 3.27140812,11 5.22103063,11 C8.2916861,11 12.0988656,12.0706246 13.1874049,12.4009237 L13.4040296,12.4635666 L17,19.2973409 L17,19.47388 C16.8971033,20.5388099 16.3555414,24.0582036 13.7181354,24.7529706 C13.2224033,24.9000391 12.7112366,24.9823292 12.1963467,24.9978475 L12.1963467,24.9978475 Z" id="Path" fill="#FFECDE" fill-rule="nonzero"></path>
                                    <path d="M19.9743192,18.1159918 L19.8135086,18.0389176 L16,11.4325521 L16.0689188,11.2343611 C16.1895268,10.815958 18.7316595,0.438971316 22.4073304,0.438971316 C23.267739,0.505585501 24.4176454,1.49368818 24.9192453,2.16712456 C27.9631603,5.54738155 24.6665429,9.99566762 24.5287053,10.1883533 C24.6607997,10.2599222 27.6817417,11.9940932 27.9746468,14.449459 C28.1297141,15.6771419 27.5726203,16.8828036 26.3263381,18.0279069 C25.5711744,18.6889564 24.5741486,19.0372357 23.5523552,18.9968405 C22.307437,18.9536239 21.0869276,18.6531719 19.9743192,18.1159918 Z" id="Path" fill="#FFECDE" fill-rule="nonzero"></path>
                                    <path d="M24.8085436,9.59930637 C25.6148563,8.25164771 27.5018522,4.39646022 24.8477393,1.35870504 C24.2562333,0.556737677 23.3317033,0.0582006277 22.3280119,0 C19.0019716,0 16.5158405,6.66649182 15.5751423,9.61587594 L15.0152028,8.64931748 C14.8484808,8.35230787 14.6025274,8.1059045 14.3040797,7.93682581 L14.2256882,4.95430254 C14.2256882,4.6492843 13.9749753,4.40198342 13.6657488,4.40198342 C13.3565222,4.40198342 13.1058093,4.6492843 13.1058093,4.95430254 L13.1786015,7.67723582 C12.9202594,7.69656699 12.6687066,7.76802327 12.4394814,7.88711709 C12.2227848,8.00731553 12.0324054,8.1687308 11.879542,8.36211153 L9.60058846,6.8708499 C9.33461723,6.69700745 8.97611601,6.76867086 8.79987507,7.03102244 C8.62363413,7.29337403 8.69628627,7.64699635 8.96225751,7.82083879 L8.96225751,7.82083879 L11.4595874,9.47779616 C11.4394296,9.82568817 11.519011,10.1721303 11.6891626,10.4774938 L12.249102,11.4495754 C9.85718071,10.8040525 7.39771673,10.4333773 4.91949478,10.3449372 C2.71893279,10.3449372 1.23509328,10.8365012 0.507172018,11.8085829 C-0.0527674187,12.5652601 -0.153556517,13.5704809 0.227202299,14.7911061 C1.43667148,18.65734 5.74260575,19.1102417 7.32723435,19.1433808 C7.3776289,20.1817408 7.65759862,22.3689245 9.00705266,23.7607687 C9.82092463,24.5852431 10.9486427,25.0342095 12.1147165,24.9979635 C12.6816552,24.9914047 13.2456542,24.9172559 13.7945348,24.7770359 C16.0342926,24.2247168 16.991789,22.0541026 17.3669484,20.5297018 C18.0499346,21.3101978 19.2450553,21.3967738 20.0363197,20.7231516 C20.6045183,20.2393891 20.829194,19.4701466 20.6089978,18.7622806 C21.3936129,19.0270486 22.215534,19.1687185 23.0447343,19.1820432 C24.2112282,19.2311996 25.3483252,18.8128869 26.1971934,18.022173 C27.5466474,16.7463158 28.1401832,15.3820876 27.9722014,13.9626274 C27.7090298,11.8361988 25.7604406,10.2455197 24.8085436,9.59930637 L24.8085436,9.59930637 Z M13.5649597,23.7055368 C13.1003499,23.8247687 12.6227916,23.8878021 12.1427135,23.8933253 C11.2807567,23.9295712 10.4438573,23.6021841 9.84136242,22.9930451 C8.3687217,21.4962603 8.44151383,18.629724 8.44151383,18.5744921 C8.44151383,18.2694739 8.19080095,18.022173 7.88157439,18.022173 L7.52881255,18.022173 C6.33054216,18.022173 2.34377337,17.762583 1.30788541,14.4486683 C1.03911448,13.5815273 1.07271085,12.9076979 1.4198733,12.4437499 C1.9182194,11.7754437 3.13328797,11.4274827 4.93629296,11.4274827 C8.08315259,11.4274827 12.0587226,12.4934586 13.0218184,12.7640949 L16.5438375,19.0439634 C16.4598466,19.811687 15.9782986,23.1035089 13.5649597,23.7055368 L13.5649597,23.7055368 Z M19.6011068,19.5189578 C19.4861792,19.9243601 19.0597853,20.1610979 18.6487898,20.0476653 C18.4481915,19.9922953 18.2787398,19.8593935 18.1788606,19.6791304 L17.6189212,18.6739096 L13.9065227,12.0460801 L12.7138517,9.92517465 C12.5089139,9.55581124 12.6437893,9.09262261 13.016219,8.8868147 C13.1310066,8.82419552 13.2602126,8.79181581 13.3913784,8.7928931 C13.672748,8.79223005 13.9322799,8.94239181 14.0689052,9.18506703 L19.5395135,18.9390227 C19.6377828,19.1164553 19.6599704,19.3253009 19.6011068,19.5189578 Z M25.4356757,17.2323567 C24.8035741,17.8076661 23.9656947,18.1116487 23.1063277,18.0774049 C21.9802195,18.0304578 20.8769988,17.7480846 19.8698777,17.2489262 L16.3310605,10.9690578 C17.4509394,7.06416159 19.9762662,1.10463825 22.3280119,1.10463825 C23.0054686,1.17388526 23.6187422,1.53082149 24.0078302,2.0822431 C26.6843407,5.14209104 23.722261,9.2623917 23.593475,9.44465701 C23.4126845,9.69209598 23.4694484,10.0372954 23.7203013,10.2156945 C23.7353496,10.2263957 23.7509579,10.2363374 23.7670562,10.2455197 C23.7670562,10.2455197 26.6003498,11.9024771 26.8635213,14.1117536 C26.9811086,15.1611599 26.4995607,16.2105663 25.4188775,17.2323567 L25.4356757,17.2323567 L25.4356757,17.2323567 Z" id="Shape" fill="#FFECDE" fill-rule="nonzero"></path>
                                    <circle id="Oval" fill="#F85532" cx="7" cy="15" r="2"></circle>
                                    <circle id="Oval-Copy-8" fill="#F85532" cx="22" cy="6" r="2"></circle>
                                    <circle id="Oval-Copy-6" fill="#F85532" cx="12.5" cy="20.5" r="1.5"></circle>
                                    <circle id="Oval-Copy-7" fill="#F85532" cx="23.5" cy="14.5" r="1.5"></circle>
                                </g>
                            </g>
                        </g>
                        <g id="Group-42" mask="url(#mask-2)" stroke="#F85532" stroke-linecap="round" stroke-linejoin="round" stroke-width="2">
                            <g transform="translate(101.000000, 46.000000)">
                                <polyline id="Path-11" points="0 4 4 0 8 4"></polyline>
                                <line x1="4" y1="1" x2="4" y2="13" id="Line-6"></line>
                            </g>
                        </g>
                        <g id="Group-42-Copy" mask="url(#mask-2)" stroke="#F85532" stroke-linecap="round" stroke-linejoin="round" stroke-width="2">
                            <g transform="translate(113.000000, 46.000000)">
                                <polyline id="Path-11" points="0 4 4 0 8 4"></polyline>
                                <line x1="4" y1="1" x2="4" y2="13" id="Line-6"></line>
                            </g>
                        </g>
                    </g>
                </g>
            </g>
        </g>
    </g>
</svg>