<?xml version="1.0" encoding="utf-8"?>
<!-- Generator: Adobe Illustrator 25.4.1, SVG Export Plug-In . SVG Version: 6.00 Build 0)  -->
<svg version="1.1" id="Layer_1" xmlns="http://www.w3.org/2000/svg" xmlns:xlink="http://www.w3.org/1999/xlink" x="0px" y="0px"
	 viewBox="0 0 97.5 76.6" style="enable-background:new 0 0 97.5 76.6;" xml:space="preserve">
<style type="text/css">
	.st0{fill-rule:evenodd;clip-rule:evenodd;fill:#F4F2F0;}
	.st1{fill:#FFFFFF;}
	.st2{fill:#2B2E4F;}
	.st3{fill-rule:evenodd;clip-rule:evenodd;fill:#F85532;}
</style>
<g id="UI">
	<g id="Home" transform="translate(-983.000000, -782.000000)">
		<g id="data-points" transform="translate(120.000000, 762.000000)">
			<g id="data-copy" transform="translate(862.607833, 19.162077)">
				<g id="Group-45" transform="translate(0.435380, 0.837923)">
					<path id="Oval" class="st0" d="M29.6,70C16.1,64.2-12,48.7,5.6,34s30.9,5.5,48,10c10.1,2.6,34.1-5.7,40-1s7.1,9.9-10.5,24.6
						S43,75.8,29.6,70z"/>
					<path id="Path-4" class="st0" d="M13.6,11.7c0.3,3.2,4.5,6.5,9.1,6.3s8.9-4.1,8.6-7.1c-0.3-3-5.4-5.7-9.7-5.5
						C17.2,5.6,13.4,8.6,13.6,11.7z"/>
					<g id="butterfly" transform="translate(21.956787, 6.000000)">
						<path id="Path" class="st1" d="M37.7,41.8c-1.1,0-2.1-0.6-2.7-1.6L22.5,17.6c-0.8-1.5-0.3-3.3,1.2-4.1c0.4-0.3,1-0.4,1.5-0.4
							c1.1,0,2.2,0.6,2.7,1.6l12.5,22.6c0.8,1.5,0.3,3.3-1.2,4.1C38.8,41.7,38.2,41.8,37.7,41.8L37.7,41.8L37.7,41.8z"/>
						<path id="Path_00000137821155529408390530000017328046547962594236_" class="st1" d="M22.4,50.6c-2.3,0.1-4.6-0.8-6.2-2.5
							c-3.6-3.7-3.6-10.4-3.6-11.1h-0.8c-3,0-12.8-0.7-15.4-9.2c-0.7-2.4-0.6-4.4,0.4-5.8c1.4-1.9,4.5-2.9,9.1-2.9
							c7.3,0,16.3,2.4,18.8,3.1l0.5,0.1l8.5,15.4v0.4c-0.2,2.4-1.5,10.3-7.8,11.9C24.8,50.4,23.6,50.6,22.4,50.6L22.4,50.6z"/>
						<path id="Path_00000145049496673964302400000011194893257656939438_" class="st1" d="M47.4,37.2c-2.8-0.1-5.5-0.8-8-2L39,34.9
							l-8.5-15.4l0.2-0.5c0.3-1,6.7-23.8,14.9-23.8c1.9,0.2,3.7,1.1,4.8,2.7c6.8,7.9-0.6,18.2-0.9,18.6c0.3,0.2,7,4.2,7.7,9.9
							c0.3,2.9-0.9,5.7-3.7,8.3C51.9,36.5,49.7,37.3,47.4,37.2L47.4,37.2z"/>
						<path id="Shape" class="st2" d="M51.3,16.2c1.8-3.1,6.2-12.1,0.1-19.1c-1.4-1.9-3.5-3-5.8-3.1C38-6,32.3,9.4,30.2,16.3
							L28.9,14c-0.4-0.7-0.9-1.3-1.6-1.7l-0.2-6.9c0-0.7-0.6-1.3-1.3-1.3c-0.7,0-1.3,0.6-1.3,1.3l0.2,6.3c-0.6,0-1.2,0.2-1.7,0.5
							c-0.5,0.3-0.9,0.7-1.3,1.1l-5.2-3.5c-0.6-0.4-1.4-0.2-1.8,0.4c-0.4,0.6-0.2,1.4,0.4,1.8l0,0l5.7,3.8c0,0.8,0.1,1.6,0.5,2.3
							l1.3,2.3C17.1,19,11.5,18.2,5.8,18c-5,0-8.4,1.1-10.1,3.4c-1.3,1.8-1.5,4.1-0.6,6.9c2.8,9,12.6,10,16.2,10.1
							c0.1,2.4,0.8,7.5,3.8,10.7c1.9,1.9,4.4,3,7.1,2.9c1.3,0,2.6-0.2,3.8-0.5c5.1-1.3,7.3-6.3,8.2-9.8c1.6,1.8,4.3,2,6.1,0.4
							c1.3-1.1,1.8-2.9,1.3-4.5c1.8,0.6,3.7,0.9,5.6,1c2.7,0.1,5.3-0.9,7.2-2.7c3.1-3,4.4-6.1,4.1-9.4
							C57.9,21.4,53.5,17.7,51.3,16.2L51.3,16.2z M25.6,48.9c-1.1,0.3-2.2,0.4-3.3,0.4c-2,0.1-3.9-0.7-5.3-2.1
							c-3.4-3.5-3.2-10.1-3.2-10.2c0-0.7-0.6-1.3-1.3-1.3h-0.8c-2.7,0-11.9-0.6-14.2-8.3c-0.6-2-0.5-3.6,0.3-4.6
							c1.1-1.5,3.9-2.4,8-2.4c7.2,0,16.3,2.5,18.5,3.1l8.1,14.6C32.2,39.9,31.1,47.5,25.6,48.9L25.6,48.9z M39.4,39.2
							c-0.3,0.9-1.2,1.5-2.2,1.2c-0.5-0.1-0.8-0.4-1.1-0.9l-1.3-2.3l-8.5-15.4L23.7,17c-0.5-0.9-0.2-1.9,0.7-2.4
							c0.3-0.1,0.6-0.2,0.9-0.2c0.6,0,1.2,0.3,1.5,0.9l12.5,22.6C39.5,38.3,39.5,38.8,39.4,39.2z M52.7,33.9c-1.4,1.3-3.4,2-5.3,2
							c-2.6-0.1-5.1-0.8-7.4-1.9l-8.1-14.6c2.6-9,8.3-22.9,13.7-22.9c1.5,0.2,3,1,3.8,2.3c6.1,7.1-0.7,16.6-0.9,17.1
							c-0.4,0.6-0.3,1.4,0.3,1.8c0,0,0.1,0,0.1,0.1c0,0,6.5,3.8,7.1,9C56.3,29.1,55.2,31.6,52.7,33.9L52.7,33.9L52.7,33.9z"/>
						<circle id="Oval_00000172430477126790076760000000211065748693032871_" class="st3" cx="9.6" cy="28" r="5"/>
						<circle id="Oval-Copy-8" class="st3" cx="43.6" cy="8" r="5"/>
						<circle id="Oval-Copy-6" class="st3" cx="22.6" cy="42" r="4"/>
						<circle id="Oval-Copy-7" class="st3" cx="48.6" cy="28" r="4"/>
					</g>
				</g>
			</g>
		</g>
	</g>
</g>
</svg>
