<?xml version="1.0" encoding="utf-8"?>
<!-- Generator: Adobe Illustrator 25.4.1, SVG Export Plug-In . SVG Version: 6.00 Build 0)  -->
<svg version="1.1" id="Layer_1" xmlns="http://www.w3.org/2000/svg" xmlns:xlink="http://www.w3.org/1999/xlink" x="0px" y="0px"
	 viewBox="0 0 122.5 97.1" style="enable-background:new 0 0 122.5 97.1;" xml:space="preserve">
<style type="text/css">
	.st0{opacity:0.2021;}
	.st1{fill-rule:evenodd;clip-rule:evenodd;fill:#52578B;}
	.st2{fill-rule:evenodd;clip-rule:evenodd;fill:#FFFFFF;stroke:#2B2E4F;stroke-width:3.06;}
	.st3{fill-rule:evenodd;clip-rule:evenodd;fill:#F85532;stroke:#2B2E4F;stroke-width:3.06;}
	.st4{fill:none;stroke:#2B2E4F;stroke-width:3.06;stroke-linecap:round;stroke-linejoin:round;}
	.st5{fill-rule:evenodd;clip-rule:evenodd;fill:#F4F2F0;stroke:#2B2E4F;stroke-width:3.06;}
	.st6{fill-rule:evenodd;clip-rule:evenodd;fill:#FFFFFF;stroke:#2B2E4F;stroke-width:3.06;stroke-linejoin:round;}
</style>
<g id="UI">
	<g id="Home" transform="translate(-197.000000, -2944.000000)">
		<g id="Group-38" transform="translate(0.000000, 2442.000000)">
			<g id="Group-9" transform="translate(197.471445, 502.785238)">
				
					<g id="Group-15" transform="translate(75.939547, 63.532858) rotate(170.000000) translate(-75.939547, -63.532858) translate(8.094500, 10.982815)" class="st0">
					<path id="Oval-Copy-5" class="st1" d="M97.8,24.6c-30-5.3-70.5-5.4-75.8,22.2C17.6,70.4,36,73.3,56.3,84.9
						c18.4,10.5,15.1,25.2,41.4,25.2c31.5,0,41.5-7.1,42.7-33.1C141.7,51.1,127.8,29.8,97.8,24.6z"/>
					<path id="Path-7" class="st1" d="M42,83c-10.1-4.7-21.6-10.1-24.6,0.7s12.9,27.6,24.6,29.6C53.8,115.4,59,110.7,59,103
						S52.1,87.7,42,83z"/>
				</g>
				<g id="Group-22" transform="translate(46.525092, 19.306315)">
					<path id="Rectangle" class="st2" d="M-13-3h48.4c1.1,0,2,0.9,2,2v66.1c0,1.1-0.9,2-2,2H-13c-1.1,0-2-0.9-2-2V-0.9
						C-15-2.1-14.1-3-13-3z"/>
					<path id="Rectangle_00000127004335026677219620000018400534839002551478_" class="st3" d="M-6.4,14.1h7.3c0.6,0,1,0.5,1,1v7.4
						c0,0.6-0.5,1-1,1h-7.3c-0.6,0-1-0.5-1-1v-7.4C-7.4,14.6-7,14.1-6.4,14.1z"/>
					<path id="Rectangle-Copy" class="st3" d="M-6.4,30.4h7.3c0.6,0,1,0.5,1,1v7.4c0,0.6-0.5,1-1,1h-7.3c-0.6,0-1-0.5-1-1v-7.4
						C-7.4,30.9-7,30.4-6.4,30.4z"/>
					<path id="Rectangle-Copy-3" class="st3" d="M-6.4,46.7h7.3c0.6,0,1,0.5,1,1V55c0,0.6-0.5,1-1,1h-7.3c-0.6,0-1-0.5-1-1v-7.4
						C-7.4,47.1-7,46.7-6.4,46.7z"/>
					<line id="Line" class="st4" x1="7.8" y1="15" x2="24.7" y2="15"/>
					<line id="Line-Copy" class="st4" x1="7.8" y1="21.8" x2="19.7" y2="21.8"/>
					<line id="Line-Copy-3" class="st4" x1="7.8" y1="31.3" x2="24.7" y2="31.3"/>
					<line id="Line-Copy-2" class="st4" x1="7.8" y1="38.1" x2="19.7" y2="38.1"/>
					<line id="Line-Copy-5" class="st4" x1="7.8" y1="47.5" x2="24.7" y2="47.5"/>
					<line id="Line-Copy-4" class="st4" x1="7.8" y1="54.4" x2="19.7" y2="54.4"/>
					<path id="Rectangle_00000098923155624194197960000008457518666227596185_" class="st2" d="M-0.5-9.8h23.3c0.6,0,1,0.5,1,1V6.3
						c0,0.6-0.5,1-1,1H-0.5c-0.6,0-1-0.5-1-1V-8.8C-1.5-9.4-1-9.8-0.5-9.8z"/>
					<ellipse id="Oval" class="st5" cx="11.2" cy="-1.3" rx="3.4" ry="3.4"/>
					
						<g id="Group-16" transform="translate(71.500000, 36.361111) rotate(-180.000000) translate(-71.500000, -36.361111) translate(66.000000, 9.411111)">
						<path id="Rectangle_00000039842836964043161890000016980083382800195475_" class="st2" d="M16,9.8h9c0.6,0,1,0.5,1,1v43.6
							c0,0.6-0.5,1-1,1h-9c-0.6,0-1-0.5-1-1V10.8C15,10.3,15.5,9.8,16,9.8z"/>
						<path id="Rectangle-Copy-4" class="st3" d="M16,9.8h9c0.6,0,1,0.5,1,1v4.7c0,0.6-0.5,1-1,1h-9c-0.6,0-1-0.5-1-1v-4.7
							C15,10.3,15.5,9.8,16,9.8z"/>
						<polygon id="Rectangle-Copy-5" class="st6" points="15,55.4 26,55.4 20.5,63.7 						"/>
					</g>
				</g>
			</g>
		</g>
	</g>
</g>
</svg>
