<?xml version="1.0" encoding="utf-8"?>
<!-- Generator: Adobe Illustrator 25.4.1, SVG Export Plug-In . SVG Version: 6.00 Build 0)  -->
<svg version="1.1" id="Layer_1" xmlns="http://www.w3.org/2000/svg" xmlns:xlink="http://www.w3.org/1999/xlink" x="0px" y="0px"
	 viewBox="0 0 136.5 101.7" style="enable-background:new 0 0 136.5 101.7;" xml:space="preserve">
<style type="text/css">
	.st0{fill:#2B2E4F;}
	.st1{fill-rule:evenodd;clip-rule:evenodd;fill:#FFFFFF;}
	.st2{filter:url(#Adobe_OpacityMaskFilter);}
	.st3{mask:url(#mask-2_00000151505965270938768550000005136715672253413775_);}
	.st4{fill-rule:evenodd;clip-rule:evenodd;fill:#F85532;}
	.st5{filter:url(#Adobe_OpacityMaskFilter_00000053507259203868197010000011000815840745368448_);}
	.st6{mask:url(#mask-4_00000006697232195502016070000000537273089092294276_);}
	.st7{filter:url(#Adobe_OpacityMaskFilter_00000051372101594208847020000013875858627481590434_);}
	.st8{mask:url(#mask-6_00000039853803251131000390000004151186474141798330_);}
	.st9{filter:url(#Adobe_OpacityMaskFilter_00000000200610588319033530000008473953022669291431_);}
	.st10{mask:url(#mask-8_00000019662621141539313100000018321115561640483217_);}
	.st11{fill-rule:evenodd;clip-rule:evenodd;fill:#FA4338;}
	.st12{opacity:0.2021;fill-rule:evenodd;clip-rule:evenodd;fill:#52578B;enable-background:new    ;}
</style>
<g id="UI">
	<g id="Home" transform="translate(-573.000000, -2942.000000)">
		<g id="Group-38" transform="translate(-175.000000, 2537.000000)">
			<g id="Group-21" transform="translate(748.000000, 405.000000)">
				<g id="online-community" transform="translate(33.000000, 17.000000)">
					<path id="Shape" class="st0" d="M72.3,25.4c0-3.9-2.9-7.2-6.7-7.8l-1.1-8.7c4.8-1.7,8-6.4,7.8-11.6s-3.7-9.6-8.6-11
						c-5-1.4-10.2,0.6-13.1,4.9c-2.8,4.3-2.6,9.9,0.6,14l-6.3,6.3c-3-2.6-6.8-4.2-10.7-4.5V0.3c3.3-0.7,5.5-3.7,5.2-7
						c-0.3-3.3-3-5.9-6.3-6c-3.3-0.1-6.2,2.3-6.7,5.6L16.9-4c-0.8-5.3-5.1-9.4-10.4-10C1.1-14.6-3.9-11.6-5.9-6.6s-0.3,10.7,4,13.9
						S8.4,10.4,12.6,7l6.2,6.2c0.1,0.1,0.1,0.1,0.2,0.2c-2.6,3-4.2,6.8-4.5,10.8H9c-0.7-4.1-4.5-7-8.7-6.5s-7.2,4.1-7,8.3
						s3.7,7.5,7.9,7.5c0.1,0,0.2,0,0.3,0l2,8C-1.8,42-6,46.3-6.6,51.6C-7.3,57-4.2,62.1,0.8,64c5,2,10.7,0.4,13.9-4
						s3.1-10.3-0.3-14.5l6.3-6.3c6.9,6,17.2,6,24.1,0l6.3,6.3c-2.3,2.8-3.1,6.5-2.3,10h-9.6c-0.7-3.3-3.7-5.6-7.1-5.2
						s-5.9,3.2-5.9,6.5c0,3.4,2.6,6.2,5.9,6.5s6.4-1.9,7.1-5.2h10.6c2.5,5,8.2,7.6,13.6,6.2c5.4-1.4,9.1-6.4,8.8-12
						c-0.3-5.6-4.4-10.2-10-11.1l3-8.1C69.3,32.7,72.3,29.4,72.3,25.4z M32.8,60.9c-2.2,0-3.9-1.8-3.9-3.9c0-2.2,1.8-3.9,3.9-3.9
						s3.9,1.8,3.9,3.9C36.7,59.1,35,60.9,32.8,60.9z M53,43.8l-6.3-6.3c2.6-3,4.2-6.8,4.5-10.7h5.4c0.5,3.1,2.9,5.6,6,6.4l-3.1,8.1
						C57.1,41.4,54.9,42.3,53,43.8z M69.6,25.4c0,2.9-2.4,5.3-5.3,5.3c-2.9,0-5.3-2.4-5.3-5.3c0-2.9,2.4-5.3,5.3-5.3
						C67.3,20.1,69.6,22.5,69.6,25.4z M62.9,17.6c-3.2,0.6-5.8,3.2-6.3,6.4h-5.4c-0.3-4-1.8-7.7-4.5-10.7L53,7
						c2.5,2,5.7,2.9,8.8,2.5L62.9,17.6z M32.8-10.1c2.2,0,3.9,1.8,3.9,3.9S35-2.2,32.8-2.2S28.9-4,28.9-6.2
						C28.9-8.4,30.6-10.1,32.8-10.1z M14.4,5.1c1.5-1.8,2.4-4.1,2.6-6.4l9.5-3.2c0.7,2.4,2.6,4.2,5,4.7V7c-4,0.3-7.8,1.9-10.8,4.5
						c0-0.1-0.1-0.1-0.2-0.2L14.4,5.1z M9,26.7h5.4c0.3,4,1.8,7.7,4.5,10.7l-6.3,6.3c-1.8-1.5-4-2.3-6.3-2.5l-2.1-8.5
						C6.7,31.7,8.5,29.4,9,26.7z"/>
					<g id="Group-18" transform="translate(2.025641, 2.025641)">
						<g id="Oval">
							<circle id="path-1_00000015318074835931979710000013904593170483144338_" class="st1" cx="3.1" cy="-4.3" r="9.8"/>
						</g>
						<defs>
							<filter id="Adobe_OpacityMaskFilter" filterUnits="userSpaceOnUse" x="-4.7" y="-11.4" width="15.5" height="25">
								<feColorMatrix  type="matrix" values="1 0 0 0 0  0 1 0 0 0  0 0 1 0 0  0 0 0 1 0"/>
							</filter>
						</defs>
						
							<mask maskUnits="userSpaceOnUse" x="-4.7" y="-11.4" width="15.5" height="25" id="mask-2_00000151505965270938768550000005136715672253413775_">
							<g class="st2">
								<circle id="path-1_00000062874377241752942120000017274176916379090569_" class="st1" cx="3.1" cy="-4.3" r="9.8"/>
							</g>
						</mask>
						<g id="Group-17" class="st3">
							<g transform="translate(2.025641, 2.700855)">
								<circle id="Oval_00000012451884007933067830000006190473844853247165_" class="st4" cx="1.1" cy="-9.7" r="4.4"/>
								<circle id="Oval-Copy-4" class="st4" cx="1.1" cy="3.1" r="7.8"/>
							</g>
						</g>
					</g>
					<g id="Group-18-Copy" transform="translate(57.393162, 2.025641)">
						<g id="Oval_00000039113287988087676000000013415266792207664795_">
							<circle id="path-3_00000088825800137183605860000001502881763703201666_" class="st1" cx="3.1" cy="-4.3" r="9.8"/>
						</g>
						<defs>
							
								<filter id="Adobe_OpacityMaskFilter_00000001636811894306014620000012764262278196062639_" filterUnits="userSpaceOnUse" x="-4.7" y="-11.4" width="15.5" height="25">
								<feColorMatrix  type="matrix" values="1 0 0 0 0  0 1 0 0 0  0 0 1 0 0  0 0 0 1 0"/>
							</filter>
						</defs>
						
							<mask maskUnits="userSpaceOnUse" x="-4.7" y="-11.4" width="15.5" height="25" id="mask-4_00000006697232195502016070000000537273089092294276_">
							<g style="filter:url(#Adobe_OpacityMaskFilter_00000001636811894306014620000012764262278196062639_);">
								<circle id="path-3_00000117642934363295458470000015305286249132441477_" class="st1" cx="3.1" cy="-4.3" r="9.8"/>
							</g>
						</mask>
						<g id="Group-17_00000122712382409134488360000017996640914240576957_" class="st6">
							<g transform="translate(2.025641, 2.700855)">
								<circle id="Oval_00000181793843374701403960000012407437888439772573_" class="st4" cx="1.1" cy="-9.7" r="4.4"/>
								<circle id="Oval-Copy-4_00000109023649435890754860000012735149008513705614_" class="st4" cx="1.1" cy="3.1" r="7.8"/>
							</g>
						</g>
					</g>
					<g id="Group-18-Copy-2" transform="translate(57.393162, 57.393162)">
						<g id="Oval_00000149355480788592638690000012082147826386584464_">
							<circle id="path-5_00000129887199001820969560000004462986708507981989_" class="st1" cx="3.1" cy="-4.3" r="9.8"/>
						</g>
						<defs>
							
								<filter id="Adobe_OpacityMaskFilter_00000174585980342867196120000008596399154634347406_" filterUnits="userSpaceOnUse" x="-4.7" y="-11.4" width="15.5" height="25">
								<feColorMatrix  type="matrix" values="1 0 0 0 0  0 1 0 0 0  0 0 1 0 0  0 0 0 1 0"/>
							</filter>
						</defs>
						
							<mask maskUnits="userSpaceOnUse" x="-4.7" y="-11.4" width="15.5" height="25" id="mask-6_00000039853803251131000390000004151186474141798330_">
							<g style="filter:url(#Adobe_OpacityMaskFilter_00000174585980342867196120000008596399154634347406_);">
								<circle id="path-5_00000137098897188190867400000009714020274281862291_" class="st1" cx="3.1" cy="-4.3" r="9.8"/>
							</g>
						</mask>
						<g id="Group-17_00000155830325718711844320000005885930109807865740_" class="st8">
							<g transform="translate(2.025641, 2.700855)">
								<circle id="Oval_00000176744264736592531450000015258352332580184482_" class="st4" cx="1.1" cy="-9.7" r="4.4"/>
								<circle id="Oval-Copy-4_00000168810181312812786520000004039381287497715112_" class="st4" cx="1.1" cy="3.1" r="7.8"/>
							</g>
						</g>
					</g>
					<g id="Group-18-Copy-3" transform="translate(2.025641, 57.393162)">
						<g id="Oval_00000043439823786549786970000002955834197481627788_">
							<circle id="path-7_00000053529911021009904290000009798708565876646532_" class="st1" cx="3.1" cy="-4.3" r="9.8"/>
						</g>
						<defs>
							
								<filter id="Adobe_OpacityMaskFilter_00000111874154218327802080000012637500186523649435_" filterUnits="userSpaceOnUse" x="-4.7" y="-11.4" width="15.5" height="25">
								<feColorMatrix  type="matrix" values="1 0 0 0 0  0 1 0 0 0  0 0 1 0 0  0 0 0 1 0"/>
							</filter>
						</defs>
						
							<mask maskUnits="userSpaceOnUse" x="-4.7" y="-11.4" width="15.5" height="25" id="mask-8_00000019662621141539313100000018321115561640483217_">
							<g style="filter:url(#Adobe_OpacityMaskFilter_00000111874154218327802080000012637500186523649435_);">
								<circle id="path-7_00000078746885684052503310000004174672797699423621_" class="st1" cx="3.1" cy="-4.3" r="9.8"/>
							</g>
						</mask>
						<g id="Group-17_00000162322814918746060140000011464712724243396486_" class="st10">
							<g transform="translate(2.025641, 2.700855)">
								<circle id="Oval_00000114783411388986610460000012372098144420731783_" class="st4" cx="1.1" cy="-9.7" r="4.4"/>
								<circle id="Oval-Copy-4_00000154424304104704075290000001129371021943131785_" class="st4" cx="1.1" cy="3.1" r="7.8"/>
							</g>
						</g>
					</g>
				</g>
				<circle id="Oval_00000129203089052186796720000011046299582041771141_" class="st1" cx="66.3" cy="42.9" r="16"/>
				<g id="Group-19" transform="translate(62.000000, 46.000000)">
					<path id="Path" class="st4" d="M10,5.9c0.3-0.7,1.8-6.4,3.2-12l0.1-0.4c0.2-0.8,0.4-1.5,0.6-2.3c0.8-3,0.6-4.4-0.7-5.1
						c-1.4-0.7-2.8,0-5.5,3.5l-2,2.5c-0.8,1-1.3,0.9-1.7-0.2c-0.8-2-1.4-3.8-2.3-4.7c-1-1.1-2.4-1-3.3,0.1C-2.4-11.7-3.4-9-4.4-6.2
						l-0.1,0.3c-0.7,2.2-1.4,4.5-1.9,6.1C-6.5,0.8-6.6,1.4-6.7,2C-6.8,3-6.2,3.8-5.4,4.1c1.1,0.2,2-0.5,2.3-2.1
						C-2.4-1-0.9-6.3,0-6.3c1.1,0,1.3,3.8,1.7,4.8c0.6,1.7,2.1,2,3.3,0.7c0.2-0.2,0.8-0.9,1.3-1.7l0.1-0.2C7-3.3,7.5-4,7.7-4.3
						C8.1-4.9,9-4.6,8.8-3.9C7.7,0.5,6.7,3.3,6.6,5c0,1,0.3,1.6,1.3,1.9C8.8,7,9.5,6.7,10,5.9z"/>
					<ellipse id="Oval-Copy-3" class="st11" cx="-0.4" cy="3" rx="1.3" ry="1.4"/>
					
						<ellipse id="Oval-Copy-4_00000093178403374764807530000001897656561585159336_" class="st11" cx="3.5" cy="3.9" rx="1.3" ry="1.4"/>
				</g>
				<path id="Oval_00000137133213517524797890000010564501045663221179_" class="st12" d="M41.4,92.5C22.7,84.4-16.7,62.7,7.8,42.1
					s43.3,7.7,67.2,14c14.1,3.7,47.7-8,56-1.4s9.9,13.8-14.7,34.5S60.2,100.6,41.4,92.5z"/>
				<path id="Path-4" class="st12" d="M76.5,15.9c0.7,8,11.2,16.2,22.6,15.7c11.4-0.5,22.1-10.2,21.4-17.8S107.2-0.5,96.3,0
					S75.8,7.9,76.5,15.9z"/>
			</g>
		</g>
	</g>
</g>
</svg>
