<?xml version="1.0" encoding="UTF-8"?>
<svg width="119px" height="91px" viewBox="0 0 119 91" version="1.1" xmlns="http://www.w3.org/2000/svg" xmlns:xlink="http://www.w3.org/1999/xlink">
    <title>Group 46</title>
    <g id="UI" stroke="none" stroke-width="1" fill="none" fill-rule="evenodd">
        <g id="Home" transform="translate(-985.000000, -2969.000000)">
            <g id="Group-38" transform="translate(-175.000000, 2537.000000)">
                <g id="Group-46" transform="translate(1160.000000, 432.000000)">
                    <g id="Group-23" transform="translate(0.000000, -0.000000)" fill="#52578B" opacity="0.202057594">
                        <path d="M46.0115448,78.9432 C81.1093,89.46896 113.056939,99.99472 118.315401,72.3646 C122.811862,48.7383447 104.445011,45.8239643 84.1353962,34.20872 C65.7307783,23.68296 72.3038561,0 46.0115448,0 C14.5725507,0 0,11.9469782 0,42.10304 C0,72.2591018 10.9137896,68.41744 46.0115448,78.9432 Z" id="Oval-Copy-5" transform="translate(59.500000, 45.000000) scale(-1, -1) translate(-59.500000, -45.000000) "></path>
                        <path d="M19.0908139,63.9255368 C11.0454356,63.9255368 1.92201287,63.9255368 3.24268987,71.8495988 C4.56336687,79.7736608 20.4114909,87.6977228 28.3355529,83.7356918 C36.2596149,79.7736608 38.6157,76.8983526 36.2596149,71.8495988 C33.9035298,66.8008449 27.1361922,63.9255368 19.0908139,63.9255368 Z" id="Path-7" transform="translate(20.122286, 74.357537) rotate(25.000000) translate(-20.122286, -74.357537) "></path>
                    </g>
                    <path d="M53.1369792,68 L67.2167572,68 C67.0943614,75.4866848 68.8377038,79.2300272 72.4467844,79.2300272 C76.055865,79.2300272 78.3973639,79.2300272 79.4712811,79.2300272 L81.130497,82.3103517 L78.6330956,84.9017437 L39.9454544,84.9017437 L38.2813179,82.3103517 L40.0962811,79.2300272 L48.3991961,79.2300272 C51.5577181,76.660779 53.1369792,74.6254604 53.1369792,73.1240716 C53.1369792,71.6226827 53.1369792,69.9146588 53.1369792,68 Z" id="Path-5" fill="#FFFFFF"></path>
                    <rect id="Rectangle" fill="#FFFFFF" x="19" y="7" width="81" height="61"></rect>
                    <rect id="Rectangle-Copy-6" fill="#F4F2F0" x="25" y="13" width="71" height="44"></rect>
                    <g id="online-course" transform="translate(17.000000, 5.000000)" fill="#2B2E4F" fill-rule="nonzero">
                        <path d="M83.5833333,54 L1.41666667,54 C0.634666667,54 0,53.3633684 0,52.5789474 L0,5.68563158 C0,2.55078947 2.54291667,0 5.66808333,0 L79.3319167,0 C82.4570833,0 85,2.55078947 85,5.68563158 L85,52.5789474 C85,53.3633684 84.3653333,54 83.5833333,54 L83.5833333,54 Z M2.83333333,51.1578947 L82.1666667,51.1578947 L82.1666667,5.68563158 C82.1666667,4.11678947 80.8959167,2.84210526 79.3319167,2.84210526 L5.66808333,2.84210526 C4.10408333,2.84210526 2.83333333,4.11678947 2.83333333,5.68563158 L2.83333333,51.1578947 Z" id="Shape"></path>
                        <path d="M79.3319167,65 L5.66808333,65 C2.54291667,65 0,62.487 0,59.3986 L0,52.4 C0,51.6272 0.634666667,51 1.41666667,51 L83.5833333,51 C84.3653333,51 85,51.6272 85,52.4 L85,59.3986 C85,62.487 82.4570833,65 79.3319167,65 Z M2.83333333,53.8 L2.83333333,59.3986 C2.83333333,60.9442 4.10408333,62.2 5.66808333,62.2 L79.3319167,62.2 C80.8959167,62.2 82.1666667,60.9442 82.1666667,59.3986 L82.1666667,53.8 L2.83333333,53.8 Z" id="Shape"></path>
                        <path d="M46.625,59 L38.375,59 C37.616,59 37,58.328 37,57.5 C37,56.672 37.616,56 38.375,56 L46.625,56 C47.384,56 48,56.672 48,57.5 C48,58.328 47.384,59 46.625,59 Z" id="Path"></path>
                        <path d="M78.5769231,54 L7.42307692,54 C6.63753846,54 6,53.3675294 6,52.5882353 L6,7.41176471 C6,6.63247059 6.63753846,6 7.42307692,6 L78.5769231,6 C79.3624615,6 80,6.63247059 80,7.41176471 L80,52.5882353 C80,53.3675294 79.3624615,54 78.5769231,54 Z M8.84615385,51.1764706 L77.1538462,51.1764706 L77.1538462,8.82352941 L8.84615385,8.82352941 L8.84615385,51.1764706 Z" id="Shape"></path>
                        <path d="M61.0650311,81.3103517 L24.5025311,81.3103517 C22.1765936,81.3103517 20.2837811,79.515685 20.2837811,77.3103517 C20.2837811,75.1050184 22.1765936,73.3103517 24.5025311,73.3103517 L61.0650311,73.3103517 C63.3909686,73.3103517 65.2837811,75.1050184 65.2837811,77.3103517 C65.2837811,79.515685 63.3909686,81.3103517 61.0650311,81.3103517 Z M24.5025311,75.9770184 C23.7276874,75.9770184 23.0962811,76.575685 23.0962811,77.3103517 C23.0962811,78.0450184 23.7276874,78.643685 24.5025311,78.643685 L61.0650311,78.643685 C61.8398749,78.643685 62.4712811,78.0450184 62.4712811,77.3103517 C62.4712811,76.575685 61.8398749,75.9770184 61.0650311,75.9770184 L24.5025311,75.9770184 Z" id="Shape"></path>
                        <path d="M58.5833333,76 L27.4166667,76 C26.6346667,76 26,75.3728 26,74.6 C26,73.8272 26.6346667,73.2 27.4166667,73.2 C32.1171667,73.2 34.5,69.903 34.5,63.4 C34.5,62.6272 35.1232804,62.2 35.9052804,62.2 L50.071947,62.2 C50.853947,62.2 51.5,62.6272 51.5,63.4 C51.5,69.903 53.8828333,73.2 58.5833333,73.2 C59.3653333,73.2 60,73.8272 60,74.6 C60,75.3728 59.3653333,76 58.5833333,76 Z M34.31725,73.2 L51.6841667,73.2 C49.9388333,71.2904 48.91175,68.447 48.7063333,64.8 L37.2950833,64.8 C37.08825,68.447 36.0625833,71.2904 34.31725,73.2 Z" id="Shape"></path>
                    </g>
                    <path d="M56.0652485,18 C63.280986,18 69.130497,22.5200767 69.130497,28.0958738 C69.130497,33.671671 63.280986,38.1917477 56.0652485,38.1917477 C53.531379,38.1917477 51.1659823,37.6343658 49.1631947,36.6696165 L44.9052367,40 L45.954729,34.4907837 C44.1081298,32.7495736 43,30.5227214 43,28.0958738 C43,22.5200767 48.849511,18 56.0652485,18 Z" id="Path" stroke="#2B2E4F" stroke-width="3" fill="#FFFFFF" stroke-linejoin="round"></path>
                    <path d="M68.0652485,28 C75.280986,28 81.130497,32.5200767 81.130497,38.0958738 C81.130497,43.671671 75.280986,48.1917477 68.0652485,48.1917477 C65.531379,48.1917477 63.1659823,47.6343658 61.1631947,46.6696165 L56.9052367,50 L57.954729,44.4907837 C56.1081298,42.7495736 55,40.5227214 55,38.0958738 C55,32.5200767 60.849511,28 68.0652485,28 Z" id="Path-Copy-2" stroke="#2B2E4F" stroke-width="3" fill="#F85532" stroke-linejoin="round" transform="translate(68.065248, 39.000000) scale(-1, 1) translate(-68.065248, -39.000000) "></path>
                </g>
            </g>
        </g>
    </g>
</svg>