<?xml version="1.0" encoding="utf-8"?>
<!-- Generator: Adobe Illustrator 25.4.1, SVG Export Plug-In . SVG Version: 6.00 Build 0)  -->
<svg version="1.1" id="Layer_1" xmlns="http://www.w3.org/2000/svg" xmlns:xlink="http://www.w3.org/1999/xlink" x="0px" y="0px"
	 viewBox="0 0 119.8 100.1" style="enable-background:new 0 0 119.8 100.1;" xml:space="preserve">
<style type="text/css">
	.st0{opacity:0.2021;fill-rule:evenodd;clip-rule:evenodd;fill:#52578B;enable-background:new    ;}
	.st1{fill-rule:evenodd;clip-rule:evenodd;fill:#FFFFFF;}
	.st2{fill:#2B2E4F;stroke:#2B2E4F;stroke-linejoin:round;}
	.st3{fill-rule:evenodd;clip-rule:evenodd;fill:#F85532;}
</style>
<g id="UI">
	<g id="Home" transform="translate(-194.000000, -3323.000000)">
		<g id="Group-38" transform="translate(-175.000000, 2537.000000)">
			<g id="Group-20" transform="translate(369.864546, 786.456229)">
				<path id="Oval-Copy-9" class="st0" d="M34.8,92.6C17,81.5-8.3,67.2,1.2,42.3c9.5-24.9,48.1-1.2,72,5.1
					c14.1,3.7,59.9,1.6,41.4,29S52.6,103.8,34.8,92.6z"/>
				<path id="Path-4-Copy" class="st0" d="M52.2,17.5C49.5,30.2,68.6,42.6,80,42c7-0.3,22.2,2.9,27.7,0c8.3-4.4,6.9-24-3.6-29
					C96.2,9.3,89.5,1.7,78.7,2.2C67.8,2.7,55,4.7,52.2,17.5z"/>
				<g id="puzzle" transform="translate(32.135454, 12.543771)">
					<path id="Combined-Shape" class="st1" d="M33.3,52.9c0,0.1-0.1,0.3-0.1,0.4v10.6h-29v-29h8.7c-1,3.2,0.8,6.6,4,7.6
						c3.2,1,6.6-0.8,7.6-4c0.4-1.2,0.4-2.5,0-3.7h8.7v10.6c0,0.7,0.6,1.3,1.3,1.3c0.1,0,0.3,0,0.4-0.1l1.7-0.6
						c1.8-0.6,3.7,0.4,4.3,2.2c0.6,1.8-0.4,3.7-2.2,4.3c-0.7,0.2-1.4,0.2-2.1,0L34.9,52C34.3,51.8,33.5,52.2,33.3,52.9z M35.8,63.9
						v-8.7c3.2,1,6.6-0.8,7.6-4c1-3.2-0.8-6.6-4-7.6c-1.2-0.4-2.5-0.4-3.7,0v-8.7h10.6c0.7,0,1.3-0.6,1.3-1.3c0-0.1,0-0.3-0.1-0.4
						l-0.6-1.7c-0.6-1.8,0.4-3.7,2.2-4.3c1.8-0.6,3.7,0.4,4.3,2.2c0.2,0.7,0.2,1.4,0,2.1l-0.6,1.7c-0.2,0.7,0.1,1.4,0.8,1.7
						c0.1,0,0.3,0.1,0.4,0.1h10.6v29H35.8z M56.2,32.2c1-3.2-0.8-6.6-4-7.6c-3.2-1-6.6,0.8-7.6,4c-0.4,1.2-0.4,2.5,0,3.7h-8.7v-8.7
						c1.8,0.6,3.8,0.3,5.4-0.9c2.7-1.9,3.4-5.7,1.4-8.5c-1.5-2.2-4.3-3.1-6.8-2.3V3.1h29v29H56.2z"/>
					<path id="Shape" class="st2" d="M66.2,0.5H34.5c-0.7,0-1.3,0.6-1.3,1.3v11.9c0,0.7,0.6,1.3,1.3,1.3c0.1,0,0.3,0,0.4-0.1
						l1.7-0.6c1.8-0.6,3.7,0.4,4.3,2.2c0.6,1.8-0.4,3.7-2.2,4.3c-0.7,0.2-1.4,0.2-2.1,0l-1.7-0.6c-0.7-0.2-1.4,0.1-1.7,0.8
						c0,0.1-0.1,0.3-0.1,0.4v10.6H22.6c-0.7,0-1.3,0.6-1.3,1.3c0,0.1,0,0.3,0.1,0.4l0.6,1.7c0.6,1.8-0.4,3.7-2.2,4.3
						c-1.8,0.6-3.7-0.4-4.3-2.2c-0.2-0.7-0.2-1.4,0-2.1l0.6-1.7c0.2-0.7-0.1-1.4-0.8-1.7c-0.1,0-0.3-0.1-0.4-0.1H2.8
						c-0.7,0-1.3,0.6-1.3,1.3v31.7c0,0.7,0.6,1.3,1.3,1.3h63.4c0.7,0,1.3-0.6,1.3-1.3V1.8C67.5,1.1,66.9,0.5,66.2,0.5z M33.3,52.9
						c0,0.1-0.1,0.3-0.1,0.4v10.6h-29v-29h8.7c-1,3.2,0.8,6.6,4,7.6c3.2,1,6.6-0.8,7.6-4c0.4-1.2,0.4-2.5,0-3.7h8.7v10.6
						c0,0.7,0.6,1.3,1.3,1.3c0.1,0,0.3,0,0.4-0.1l1.7-0.6c1.8-0.6,3.7,0.4,4.3,2.2c0.6,1.8-0.4,3.7-2.2,4.3c-0.7,0.2-1.4,0.2-2.1,0
						L34.9,52C34.3,51.8,33.5,52.2,33.3,52.9z M64.9,63.9h-29v-8.7c3.2,1,6.6-0.8,7.6-4c1-3.2-0.8-6.6-4-7.6c-1.2-0.4-2.5-0.4-3.7,0
						v-8.7h10.6c0.7,0,1.3-0.6,1.3-1.3c0-0.1,0-0.3-0.1-0.4l-0.6-1.7c-0.6-1.8,0.4-3.7,2.2-4.3c1.8-0.6,3.7,0.4,4.3,2.2
						c0.2,0.7,0.2,1.4,0,2.1l-0.6,1.7c-0.2,0.7,0.1,1.4,0.8,1.7c0.1,0,0.3,0.1,0.4,0.1h10.6V63.9L64.9,63.9z M64.9,32.2h-8.7
						c1-3.2-0.8-6.6-4-7.6c-3.2-1-6.6,0.8-7.6,4c-0.4,1.2-0.4,2.5,0,3.7h-8.7v-8.7c1.8,0.6,3.8,0.3,5.4-0.9c2.7-1.9,3.4-5.7,1.4-8.5
						c-1.5-2.2-4.3-3.1-6.8-2.3V3.1h29V32.2L64.9,32.2z"/>
					<g id="Group-24">
						<path id="Combined-Shape_00000145746533653676111790000017419887771827537541_" class="st3" d="M25.5,7.8
							c-0.7,0.2-1.4,0.2-2.1,0l-1.7-0.6c-0.7-0.2-1.4,0.1-1.7,0.8c0,0.1-0.1,0.3-0.1,0.4V19H9.5c-0.7,0-1.3,0.6-1.3,1.3
							c0,0.1,0,0.3,0.1,0.4l0.6,1.7c0.6,1.8-0.4,3.7-2.2,4.3c-1.8,0.6-3.7-0.4-4.3-2.2c-0.2-0.7-0.2-1.4,0-2.1l0.6-1.7
							c0.2-0.7-0.1-1.4-0.8-1.7C1.9,19,1.8,19,1.7,19H-8.8V-9.9H20V0.6c0,0.7,0.6,1.3,1.3,1.3c0.1,0,0.3,0,0.4-0.1l1.7-0.6
							c1.8-0.6,3.7,0.4,4.3,2.2C28.3,5.3,27.3,7.2,25.5,7.8z"/>
						<path id="Shape_00000132772189313763622850000007284638177100126369_" class="st2" d="M26.3-1.2c-1.2-0.4-2.5-0.4-3.6,0v-10
							c0-0.7-0.6-1.3-1.3-1.3h-31.5c-0.7,0-1.3,0.6-1.3,1.3v31.5c0,0.7,0.6,1.3,1.3,1.3h10c-1,3.2,0.8,6.6,3.9,7.6s6.6-0.8,7.6-3.9
							c0.4-1.2,0.4-2.5,0-3.6h10c0.7,0,1.3-0.6,1.3-1.3v-10c3.2,1,6.6-0.8,7.6-3.9C31.3,3.2,29.5-0.2,26.3-1.2z M25.5,7.8
							c-0.7,0.2-1.4,0.2-2.1,0l-1.7-0.6c-0.7-0.2-1.4,0.1-1.7,0.8c0,0.1-0.1,0.3-0.1,0.4V19H9.5c-0.7,0-1.3,0.6-1.3,1.3
							c0,0.1,0,0.3,0.1,0.4l0.6,1.7c0.6,1.8-0.4,3.7-2.2,4.3c-1.8,0.6-3.7-0.4-4.3-2.2c-0.2-0.7-0.2-1.4,0-2.1l0.6-1.7
							c0.2-0.7-0.1-1.4-0.8-1.7C1.9,19,1.8,19,1.7,19H-8.8V-9.9H20V0.6c0,0.7,0.6,1.3,1.3,1.3c0.1,0,0.3,0,0.4-0.1l1.7-0.6
							c1.8-0.6,3.7,0.4,4.3,2.2C28.3,5.3,27.3,7.2,25.5,7.8z"/>
					</g>
				</g>
			</g>
		</g>
	</g>
</g>
</svg>
