<?xml version="1.0" encoding="utf-8"?>
<!-- Generator: Adobe Illustrator 25.4.1, SVG Export Plug-In . SVG Version: 6.00 Build 0)  -->
<svg version="1.1" id="Layer_1" xmlns="http://www.w3.org/2000/svg" xmlns:xlink="http://www.w3.org/1999/xlink" x="0px" y="0px"
	 viewBox="0 0 126.9 102.1" style="enable-background:new 0 0 126.9 102.1;" xml:space="preserve">
<style type="text/css">
	.st0{opacity:0.2021;}
	.st1{fill-rule:evenodd;clip-rule:evenodd;fill:#52578B;}
	.st2{fill-rule:evenodd;clip-rule:evenodd;fill:#FFFFFF;stroke:#2B2E4F;stroke-width:3.6;}
	.st3{fill:none;stroke:#2B2E4F;stroke-width:3.6;stroke-linecap:square;}
	.st4{fill-rule:evenodd;clip-rule:evenodd;fill:#F85532;stroke:#2B2E4F;stroke-width:3.6;stroke-linejoin:round;}
	.st5{fill:none;stroke:#2B2E4F;stroke-width:3.6;stroke-linecap:round;}
</style>
<g id="UI">
	<g id="Home" transform="translate(-593.000000, -3308.000000)">
		<g id="Group-38" transform="translate(-175.000000, 2537.000000)">
			<g id="Group-47" transform="translate(768.950537, 771.741190)">
				<g id="Group-27" transform="translate(-0.000000, -0.000000)" class="st0">
					<path id="Oval-Copy-10" class="st1" d="M92.1,11.7C67.3-1.5,24.6-9.8,14.6,16.5C6.1,39,23.6,45.1,41.6,60
						c16.3,13.6,5.7,35.7,31.6,40.3c31,5.5,51.3-11.7,52.6-33.5S116.9,24.8,92.1,11.7z"/>
					<path id="Path-7-Copy" class="st1" d="M17.6,58.1C12.1,52.2,5.9,45.5,1,51.9c-4.9,6.4,0.1,23.4,8.4,26.5s12,2.9,14.1-2.3
						C25.6,70.9,23.1,64,17.6,58.1z"/>
				</g>
				<g id="Group-26" transform="translate(32.049463, 15.258810)">
					<path id="Oval" class="st2" d="M21.5,78.2c4.7,0,8.4-3.8,8.4-8.4H13.1C13.1,74.4,16.9,78.2,21.5,78.2z"/>
					<path id="Path" class="st2" d="M20.9-6.8c16.3,0,29.5,13.1,29.5,29.3c0,12.6-8,23.3-19.2,27.5c-0.4,0.6-0.7,1.2-0.7,1.8
						c0,0.3,0.1,0.6,0.2,1l0.1,0.2c0.3,0.5,0.4,1.1,0.5,1.7l0,0.3v11.4c0,1.9-1.5,3.5-3.4,3.6l-0.2,0H14.9c-1.9,0-3.5-1.5-3.6-3.4
						l0-0.2V54.8c0-0.5,0.1-1,0.2-1.5l0.1-0.3c0.2-0.4,0.3-0.9,0.3-1.3c0-0.6-0.4-1.2-1.3-1.8C-0.6,45.8-8.6,35.1-8.6,22.5
						C-8.6,6.3,4.6-6.8,20.9-6.8z"/>
					<line id="Line-3" class="st3" x1="13.7" y1="56" x2="30.6" y2="56"/>
					<line id="Line-3-Copy" class="st3" x1="13.7" y1="63.2" x2="30.6" y2="63.2"/>
					<g id="Group-25" transform="translate(9.300714, 8.989597)">
						<path id="Path-8" class="st4" d="M-8.5,8.1c-0.6,8.1,1.5,13.8,6.3,17s9.6,4.6,14.3,3.9c-0.7-5.7-2.5-10.3-5.2-13.8
							S-1,9.4-8.5,8.1z"/>
						<path id="Path-8-Copy" class="st4" d="M32.5,8.1c0.6,8.1-1.5,13.8-6.3,17s-9.6,4.6-14.3,3.9c0.7-5.7,2.5-10.3,5.2-13.8
							S25,9.4,32.5,8.1z"/>
						<path id="Path-8-Copy-2" class="st4" d="M11.1-6.7C17.3-1.5,19.9,4,18.8,9.7c-1.1,5.7-3.5,10-7.3,12.8C8,18,5.9,13.6,5.4,9.1
							C4.8,4.7,6.7-0.6,11.1-6.7z"/>
					</g>
					<line id="Line-4" class="st3" x1="20.9" y1="34.5" x2="20.9" y2="56"/>
					<line id="Path-9" class="st5" x1="13.7" y1="32.1" x2="19.8" y2="36.6"/>
					<line id="Path-9-Copy" class="st5" x1="28.9" y1="32.1" x2="22.8" y2="36.6"/>
					<line id="Path-9-Copy-2" class="st5" x1="20.8" y1="20.8" x2="20.8" y2="28.3"/>
				</g>
			</g>
		</g>
	</g>
</g>
</svg>
