<?xml version="1.0" encoding="utf-8"?>
<!-- Generator: Adobe Illustrator 25.4.1, SVG Export Plug-In . SVG Version: 6.00 Build 0)  -->
<svg version="1.1" id="Layer_1" xmlns="http://www.w3.org/2000/svg" xmlns:xlink="http://www.w3.org/1999/xlink" x="0px" y="0px"
	 viewBox="0 0 136.1 103.5" style="enable-background:new 0 0 136.1 103.5;" xml:space="preserve">
<style type="text/css">
	.st0{opacity:0.2021;fill-rule:evenodd;clip-rule:evenodd;fill:#52578B;enable-background:new    ;}
	.st1{fill:#2B2E4F;}
	.st2{fill-rule:evenodd;clip-rule:evenodd;fill:#FFFFFF;}
	.st3{fill-rule:evenodd;clip-rule:evenodd;fill:#F85532;}
	.st4{fill-rule:evenodd;clip-rule:evenodd;fill:#FA4338;}
</style>
<g id="UI">
	<g id="Home" transform="translate(-975.000000, -3291.000000)">
		<g id="Group-38" transform="translate(-175.000000, 2537.000000)">
			<g id="Group-28" transform="translate(1150.052282, 754.184476)">
				<path id="Oval-Copy-11" class="st0" d="M37,100.1C14.8,94.8-15.5,59.5,9.1,38.9S48.9,57,72.8,63.3C86.9,67,124,44.9,132.3,51.5
					s3.3,22.5-18.7,38.2S59.2,105.5,37,100.1z"/>
				<path id="Path-4-Copy-2" class="st0" d="M55.2,25.6c0.7,8,23,0.5,34.4,0c11.4-0.5,21.9-4.5,21.2-12c-0.7-7.5-1.6-13.8-24.2-13.8
					C64-0.2,54.5,17.7,55.2,25.6z"/>
				<g id="megaphone" transform="translate(28.947718, 26.815524)">
					<path id="Shape" class="st1" d="M81.6,23c0-5.2-3.9-9.5-8.9-10.1v-26.1c0-1.6-1-2.9-2.6-3.4c-1.5-0.4-3.1,0.2-3.9,1.6
						C60.7-5.5,52,1,40.4,4.3c-8.8,2.5-16,2.1-16.1,2.1c-0.1,0-0.2,0-0.3,0H5.5c-9.3,0-16.9,7.6-16.9,16.9c0,8.8,6.7,16,15.3,16.8
						l5.6,23c0.7,3,3.4,5.2,6.6,5.2h3.9c2.1,0,4-0.9,5.3-2.6s1.7-3.8,1.3-5.8l-4.8-19.7H24c0.1,0,0.2,0,0.3,0
						c0.1,0,7.3-0.4,16.1,2.1c11.6,3.3,20.3,9.8,25.8,19.2c0.6,1.1,1.8,1.7,3,1.7c0.3,0,0.6,0,0.9-0.1c1.5-0.4,2.6-1.8,2.6-3.4V33.8
						c5-0.6,8.9-4.9,8.9-10.1V23z M21.9,58.3l0.6,2.6c0.2,0.8,0,1.7-0.5,2.3c-0.5,0.7-1.3,1-2.1,1H16c-1.3,0-2.4-0.9-2.7-2.1
						l-5.3-22h9.5l1.4,5.9h-1c-1.1,0-2,0.9-2,2c0,1.1,0.9,2,2,2H20l1,4.1h-0.6c-1.1,0-2,0.9-2,2s0.9,2,2,2H21.9L21.9,58.3z
						 M22.2,27.6H9.7c-1.1,0-2,0.9-2,2s0.9,2,2,2h12.5v4.5h-2.9c0,0-0.1,0-0.1,0H5.5c0,0,0,0-0.1,0c-7.1,0-12.8-5.8-12.8-12.9
						c0-7.1,5.8-12.9,12.8-12.9h16.7V27.6L22.2,27.6z M68.6,14.8v17v26c-6-9.4-15.4-16.1-27.2-19.4c-6.5-1.8-12.2-2.2-15.1-2.3v-6.5
						V10.5c2.9,0,8.6-0.4,15.1-2.3c11.8-3.3,21.2-10,27.2-19.4V14.8L68.6,14.8z M77.6,23.7c0,3-2.1,5.4-4.9,6V17
						c2.8,0.6,4.9,3,4.9,6V23.7z"/>
					<path id="Path" class="st1" d="M81.6,11.3c0.5,0,1-0.2,1.4-0.5l5.9-5.1c0.8-0.7,0.9-2,0.1-2.7c-0.8-0.8-2.1-0.9-2.9-0.1
						l-5.9,5.1c-0.8,0.7-0.9,2-0.1,2.7C80.5,11.1,81.1,11.3,81.6,11.3z"/>
					<path id="Path_00000091010043514985149750000016501883007904356269_" class="st1" d="M83,35.8c-0.8-0.7-2.1-0.7-2.9,0.1
						s-0.7,2,0.1,2.7l5.9,5.1c0.4,0.3,0.9,0.5,1.4,0.5c0.6,0,1.1-0.2,1.5-0.6c0.8-0.8,0.7-2-0.1-2.7L83,35.8z"/>
					<path id="Path_00000117650092857020382470000011896402205236509589_" class="st1" d="M89.5,21.3h-4.7c-1.2,0-2.1,0.9-2.1,2
						s1,2,2.1,2h4.7c1.2,0,2.1-0.9,2.1-2S90.6,21.3,89.5,21.3z"/>
					<path id="Path_00000021097652411046946290000008414694866464261029_" d="M2.4,28.5c0-0.1-0.1-0.2-0.2-0.3
						C2.2,28.1,2.1,28,2,27.9c-0.1-0.1-0.2-0.2-0.3-0.2c-0.1-0.1-0.2-0.1-0.3-0.2c-0.1-0.1-0.2-0.1-0.4-0.1c-0.3-0.1-0.5-0.1-0.8,0
						c-0.1,0-0.3,0.1-0.4,0.1c-0.1,0.1-0.2,0.1-0.3,0.2c-0.1,0.1-0.2,0.2-0.3,0.2C-0.9,28-1,28.1-1.1,28.2c-0.1,0.1-0.1,0.2-0.2,0.3
						c-0.1,0.1-0.1,0.2-0.1,0.4s0,0.3,0,0.4s0,0.3,0,0.4c0,0.1,0.1,0.3,0.1,0.4c0.1,0.1,0.1,0.2,0.2,0.3c0.1,0.1,0.2,0.2,0.2,0.3
						s0.2,0.2,0.3,0.3c0.1,0.1,0.2,0.1,0.3,0.2c0.1,0.1,0.2,0.1,0.4,0.1c0.1,0,0.3,0,0.4,0c0.1,0,0.3,0,0.4,0c0.1,0,0.3-0.1,0.4-0.1
						c0.1-0.1,0.2-0.1,0.3-0.2c0.1-0.1,0.2-0.2,0.3-0.3c0.1-0.1,0.2-0.2,0.2-0.3c0.1-0.1,0.1-0.2,0.2-0.3c0.1-0.1,0.1-0.2,0.1-0.4
						c0-0.1,0-0.3,0-0.4s0-0.3,0-0.4S2.5,28.7,2.4,28.5z"/>
				</g>
				<g id="Group-35" transform="translate(32.983335, 32.274425)">
					<path id="Combined-Shape" class="st2" d="M18.5,55.4c0.2,0.8,0,1.7-0.5,2.3c-0.5,0.7-1.3,1-2.1,1H12c-1.3,0-2.4-0.9-2.7-2.1
						L4,34.8h9.5l1.4,5.9h-1c-1.1,0-2,0.9-2,2s0.9,2,2,2h1.9l1,4.1h-0.6c-1.1,0-2,0.9-2,2s0.9,2,2,2h1.6L18.5,55.4z M5.6,22.2
						c-1.1,0-2,0.9-2,2c0,1.1,0.9,2,2,2h12.5v4.5h-2.9c0,0-0.1,0-0.1,0H1.5c0,0,0,0-0.1,0c-7.1,0-12.8-5.8-12.8-12.9
						C-11.4,10.8-5.6,5,1.5,5h16.7v17.1H5.6z M64.6,26.4v26C58.5,43,49.2,36.3,37.3,33c-6.5-1.8-12.2-2.2-15.1-2.3v-6.5V5
						c2.9,0,8.6-0.4,15.1-2.3c11.8-3.3,21.2-10,27.2-19.4v26V26.4z M73.5,18.2c0,3-2.1,5.4-4.9,6V11.5c2.8,0.6,4.9,3,4.9,6V18.2z"/>
					<path id="Combined-Shape-Copy" class="st3" d="M18.5,55.4c0.2,0.8,0,1.7-0.5,2.3c-0.5,0.7-1.3,1-2.1,1H12
						c-1.3,0-2.4-0.9-2.7-2.1L4,34.8h9.5l1.4,5.9h-1c-1.1,0-2,0.9-2,2s0.9,2,2,2h1.9l1,4.1h-0.6c-1.1,0-2,0.9-2,2s0.9,2,2,2h1.6
						L18.5,55.4z M5.6,22.2c-1.1,0-2,0.9-2,2c0,1.1,0.9,2,2,2h12.5v4.5h-2.9c0,0-0.1,0-0.1,0H1.5c0,0,0,0-0.1,0
						c-7.1,0-12.8-5.8-12.8-12.9C-11.4,10.8-5.6,5,1.5,5h16.7v17.1H5.6z"/>
				</g>
				<g id="Group-19-Copy" transform="translate(76.947718, 53.815524)">
					<path id="Path_00000091703531212722372840000001191192113621044917_" class="st3" d="M7.7,6.1C8,5.4,9.7-1.2,11.3-7.6L11.4-8
						c0.2-0.9,0.4-1.8,0.7-2.6c0.9-3.4,0.7-5-0.8-5.8c-1.6-0.8-3.1,0.1-6.3,4L2.7-9.6c-0.9,1.1-1.5,1.1-2-0.2
						c-0.9-2.2-1.5-4.4-2.6-5.4c-1.2-1.3-2.8-1.2-3.8,0.2c-0.8,1.1-1.9,4.2-3,7.4l-0.1,0.4c-0.8,2.5-1.6,5.1-2.2,6.9
						c-0.2,0.7-0.3,1.3-0.4,2c-0.1,1.1,0.6,2.1,1.5,2.4c1.3,0.3,2.3-0.6,2.6-2.4c0.7-3.4,2.5-9.4,3.5-9.4c1.3,0,1.5,4.3,2,5.5
						C-1.1-0.3,0.7,0,2.1-1.4c0.3-0.2,0.9-1.1,1.5-2l0.2-0.2c0.5-0.8,1.1-1.6,1.3-1.9C5.6-6.1,6.5-5.8,6.3-5C5.1,0,3.9,3.2,3.8,5.1
						c0,1.2,0.4,1.8,1.4,2.1C6.3,7.5,7.2,7.1,7.7,6.1z"/>
					<ellipse id="Oval-Copy-3" class="st4" cx="-4.1" cy="2.9" rx="1.5" ry="1.6"/>
					<ellipse id="Oval-Copy-4" class="st4" cx="0.3" cy="3.9" rx="1.5" ry="1.6"/>
				</g>
			</g>
		</g>
	</g>
</g>
</svg>
