<?xml version="1.0" encoding="UTF-8"?>
<svg width="467px" height="158px" viewBox="0 0 467 158" version="1.1" xmlns="http://www.w3.org/2000/svg" xmlns:xlink="http://www.w3.org/1999/xlink">
    <title>Group 39</title>
    <defs>
        <polygon id="path-1" points="0 157.836028 266.795 157.836028 266.795 0 0 0"></polygon>
    </defs>
    <g id="UI" stroke="none" stroke-width="1" fill="none" fill-rule="evenodd">
        <g id="Home" transform="translate(-760.000000, -1976.000000)">
            <g id="Group-39" transform="translate(760.000000, 1976.000000)">
                <path d="M84.455648,39.5171703 C100.707115,19.739103 108.690292,15.2184019 116.958582,19.4565591 C124.941759,23.1296288 125.797099,31.3233995 121.235284,48.5585725 C120.140448,52.8645403 119.008662,57.2884984 117.86111,61.747935 L117.86111,61.747935 L117.286118,63.9802278 C117.038391,64.9410565 116.790099,65.9028895 116.541451,66.8649068 L115.545466,70.7120149 C107.819647,100.504591 100.022444,129.423518 98.4262074,133.039174 C95.8601863,137.842419 91.298371,139.820226 86.1663288,138.690051 C80.7491731,137.277332 78.7533789,133.886806 78.7533789,127.953386 C79.0384923,118.346896 85.0258749,101.959354 91.5834845,77.0954982 C92.7239383,72.8573409 87.5918961,71.162078 85.0258749,74.5526038 C84.7870166,74.8603211 84.4981314,75.2473599 84.1677692,75.6994329 L83.8238979,76.1726548 C82.3956434,78.1480214 80.349355,81.0877356 78.2322202,84.0774054 L78.2322202,84.0774054 L77.4233858,85.2168716 C74.1833031,89.7694239 70.9400569,94.1683588 69.6297482,95.1783026 C62.5019118,102.241898 53.3782812,100.546635 49.9569197,90.9401453 C47.3908986,85.0067251 46.2504447,63.2508511 39.6928352,63.2508511 C34.2756795,63.2508511 25.1520489,93.7655835 21.4455739,110.718213 C19.4497797,120.042159 14.3177375,124.280316 7.760128,122.867597 C2.91319922,121.454878 -0.508162267,116.369089 0.0620646478,111.000756 C0.347178105,107.327687 1.20251848,104.219705 2.05785885,100.829179 C4.74607145,91.7474134 8.84821405,78.6177751 13.2196766,65.7995116 L13.2196766,65.7995116 L13.8941798,63.8305156 L13.8941798,63.8305156 L14.3228565,62.5884542 C19.8317448,46.6741875 25.6115063,31.8161317 29.4287508,26.5201546 C34.8459064,19.739103 43.1141967,19.1740153 49.1015793,25.6725232 C54.518735,30.7583119 57.9400965,41.494977 62.5019118,52.7967298 C65.0679329,59.2952376 68.204181,59.5777814 72.7659963,53.9269051 L72.7659963,53.9269051 Z M60.5,113 C64.6421356,113 68,116.357864 68,120.5 C68,124.642136 64.6421356,128 60.5,128 C56.3578644,128 53,124.642136 53,120.5 C53,116.357864 56.3578644,113 60.5,113 Z M37.5,109 C41.6421356,109 45,112.357864 45,116.5 C45,120.642136 41.6421356,124 37.5,124 C33.3578644,124 30,120.642136 30,116.5 C30,112.357864 33.3578644,109 37.5,109 Z" id="Logo" fill="#F85532" fill-rule="nonzero"></path>
                <line x1="166.5" y1="7.5" x2="166.5" y2="147.5" id="Line-5" stroke="#E4E4E4" stroke-linecap="square"></line>
                <g id="Group-628" transform="translate(200.000000, 0.000000)">
                    <path d="M56.9353368,134.711716 C54.8367131,137.223828 51.8690856,139.173325 48.0351657,140.557494 C44.2012459,141.94302 39.9524818,142.635783 35.2902291,142.634429 C30.3920847,142.633071 26.0985825,141.56478 22.4083669,139.426841 C18.7167955,137.288902 15.8671139,134.185704 13.8606778,130.117248 C11.8528859,126.050148 10.8252653,121.271305 10.7737486,115.778008 L10.7751043,111.930531 C10.7751043,106.28404 11.7281615,101.39403 13.6342758,97.2618563 C15.5376788,93.1310381 18.2843272,89.9709012 21.874221,87.7814455 C25.4614035,85.5933456 29.6654295,84.4992956 34.4835876,84.50065 C41.1929474,84.502007 46.4395067,86.1030888 50.22191,89.302541 C54.0029575,92.5033489 56.2425741,97.1601788 56.9421153,103.274386 L45.5949056,103.271675 C45.0756724,100.034263 43.9301058,97.6631435 42.1568501,96.1596721 C40.3822387,94.6575564 37.9406228,93.9051428 34.8320025,93.9051428 C30.8679354,93.9037871 27.850147,95.3937015 25.7772816,98.3721747 C23.7044161,101.350648 22.6537486,105.781076 22.6266346,111.660747 L22.6266346,115.275043 C22.6252789,121.207587 23.7505099,125.689532 26.0036835,128.720877 C28.2582128,131.753578 31.5606982,133.269251 35.9124955,133.269251 C40.2900511,133.270606 43.4122284,132.337885 45.2790274,130.473797 L45.2803831,120.719535 L34.6720299,120.718179 L34.6733856,112.129819 L56.9394039,112.133886 L56.9353368,134.711716 Z" id="Fill-558" fill="#009EDB"></path>
                    <path d="M135.948114,120.776068 L150.092133,120.778779 L142.985553,99.5986765 L135.948114,120.776068 Z M153.238713,130.222586 L132.798823,130.218519 L128.910675,141.874828 L116.514153,141.873473 L137.587156,85.2973962 L148.389374,85.3001076 L169.557275,141.882962 L157.160754,141.880251 L153.238713,130.222586 Z" id="Fill-560" fill="#009EDB"></path>
                    <polygon id="Fill-562" fill="#009EDB" points="184.751013 132.520904 209.504741 132.524971 209.502029 141.890148 173.090636 141.883369 173.101482 85.3045814 184.760503 85.3059371"></polygon>
                    <path d="M243.778059,127.052959 C243.778059,124.851302 243.001243,123.160744 241.447611,121.981285 C239.892623,120.801826 237.095814,119.558649 233.054472,118.249043 C229.01313,116.940792 225.813677,115.650166 223.456115,114.38123 C217.031452,110.907927 213.821154,106.232117 213.82251,100.35109 C213.82251,97.2939864 214.684735,94.5676735 216.40783,92.1707957 C218.130925,89.7752736 220.605078,87.9044075 223.830288,86.5581973 C227.056854,85.2119871 230.676574,84.5382042 234.692157,84.5382042 C238.733499,84.5395599 242.334239,85.2729936 245.494376,86.735794 C248.654513,88.2013058 251.109685,90.2673928 252.857183,92.9354106 C254.606036,95.604784 255.480463,98.6361295 255.479108,102.029447 L243.821442,102.028091 C243.821442,99.4373482 243.006666,97.4227779 241.374403,95.9843801 C239.74214,94.5459823 237.449651,93.8261055 234.496937,93.8261055 C231.647255,93.8261055 229.430685,94.4280364 227.851295,95.6318981 C226.270548,96.8357597 225.480175,98.4232845 225.480175,100.391761 C225.480175,102.231446 226.404763,103.772877 228.258005,105.016054 C230.108535,106.260587 232.836204,107.426489 236.436943,108.515116 C243.067673,110.512062 247.899388,112.986215 250.930733,115.940285 C253.959367,118.894356 255.47504,122.573726 255.47504,126.97704 C255.473684,131.873829 253.620442,135.714527 249.915314,138.497779 C246.210185,141.282387 241.222565,142.673336 234.953807,142.673336 C230.600654,142.67198 226.637943,141.874828 223.062962,140.280525 C219.487981,138.687577 216.761668,136.503544 214.884023,133.731138 C213.006379,130.960087 212.068234,127.745722 212.068234,124.093466 L223.765215,124.096177 C223.763859,130.339176 227.494746,133.461353 234.955163,133.462709 C237.72757,133.464065 239.891267,132.900094 241.4449,131.773507 C242.999888,130.64692 243.778059,129.072952 243.778059,127.052959" id="Fill-564" fill="#009EDB"></path>
                    <path d="M77.7470957,106.092344 C78.4534155,104.889838 79.3115736,103.78901 80.2958119,102.812906 L71.9379208,93.6483732 C69.83523,95.6575208 68.0429944,97.9879692 66.6317106,100.555665 L77.7470957,106.092344 Z" id="Fill-566" fill="#56C02B"></path>
                    <path d="M98.2353845,99.618063 C99.5002527,100.196947 100.678356,100.937159 101.739869,101.814297 L110.122163,92.6633216 C107.913727,90.7599186 105.411105,89.1886622 102.694282,88.0295386 L98.2353845,99.618063 Z" id="Fill-568" fill="#DDA83A"></path>
                    <path d="M117.429658,102.373388 L106.321051,107.911423 C106.852485,109.149177 107.22937,110.464206 107.432725,111.836175 L119.791287,110.668917 C119.426604,107.743316 118.615895,104.954641 117.429658,102.373388" id="Fill-570" fill="#C5192D"></path>
                    <path d="M105.524306,106.305596 L116.631557,100.768917 C115.255521,98.2120665 113.501245,95.8897522 111.440581,93.8765376 L103.059643,103.026158 C104.014056,104.006329 104.843745,105.108513 105.524306,106.305596" id="Fill-572" fill="#4C9F38"></path>
                    <path d="M75.5392025,114.199567 C75.5392025,113.950118 75.5473367,113.699313 75.5581823,113.45122 L63.1982646,112.344969 C63.160305,112.957745 63.1359024,113.575944 63.1359024,114.199567 C63.1359024,116.56933 63.4300893,118.872665 63.9777921,121.074322 L75.9147315,117.649823 C75.6707054,116.538149 75.5392025,115.384448 75.5392025,114.199567" id="Fill-574" fill="#3F7E44"></path>
                    <path d="M103.96864,124.358234 C103.090147,125.427881 102.076083,126.380939 100.953563,127.193003 L107.479903,137.759329 C109.90254,136.118932 112.058103,134.113852 113.870674,131.82543 L103.96864,124.358234 Z" id="Fill-576" fill="#FCC30B"></path>
                    <path d="M107.606119,114.199567 C107.606119,115.369536 107.480039,116.511035 107.238724,117.609152 L119.174308,121.039074 C119.719299,118.848262 120.009419,116.555773 120.009419,114.199567 C120.009419,113.613904 119.989084,113.032309 119.953836,112.454781 L107.595274,113.620683 C107.602052,113.814548 107.606119,114.005701 107.606119,114.199567" id="Fill-578" fill="#FF3A21"></path>
                    <path d="M79.3769184,124.594397 L69.4979318,132.102264 C71.3362611,134.364928 73.5121597,136.337471 75.9497085,137.946687 L82.4746931,127.392562 C81.3250594,126.598122 80.2838817,125.65591 79.3769184,124.594397" id="Fill-580" fill="#FD9D24"></path>
                    <path d="M75.7394394,111.668203 C75.9604185,110.271832 76.3657729,108.936468 76.9229656,107.686512 L65.8197818,102.1539 C64.5928733,104.764978 63.7509835,107.591613 63.3686761,110.559241 L75.7394394,111.668203 Z" id="Fill-582" fill="#0A97D9"></path>
                    <path d="M105.962197,138.71564 L99.4453468,128.162871 C98.2618207,128.832587 96.9861069,129.355887 95.6426081,129.708369 L97.9418754,141.915093 C100.803758,141.257578 103.501602,140.166239 105.962197,138.71564" id="Fill-584" fill="#A21942"></path>
                    <path d="M106.763145,119.337941 C106.330676,120.606876 105.74637,121.805315 105.027849,122.910211 L114.939372,130.385541 C116.548588,128.071361 117.820235,125.509088 118.689239,122.765151 L106.763145,119.337941 Z" id="Fill-586" fill="#26BDE2"></path>
                    <path d="M93.8852141,130.065054 C93.1314448,130.17351 92.3586957,130.23316 91.5723897,130.23316 C90.9406334,130.23316 90.3183671,130.193845 89.7055907,130.123349 L87.407679,142.330072 C88.7688019,142.52936 90.1583945,142.635105 91.5723897,142.635105 C93.1422904,142.635105 94.6823657,142.506313 96.1831257,142.260932 L93.8852141,130.065054 Z" id="Fill-588" fill="#FD6925"></path>
                    <path d="M92.5974345,98.1978316 C93.9748258,98.2859521 95.3047676,98.5476022 96.5655687,98.9638022 L101.023111,87.3779892 C98.3713612,86.4412004 95.5420151,85.8867191 92.5974345,85.7836859 L92.5974345,98.1978316 Z" id="Fill-590" fill="#E5243B"></path>
                    <path d="M87.9395201,129.817503 C86.5499276,129.49349 85.22812,128.98917 84.0039228,128.328944 L77.4748711,138.889848 C79.9856277,140.32689 82.7322761,141.391114 85.6429642,142.012025 L87.9395201,129.817503 Z" id="Fill-592" fill="#DD1367"></path>
                    <path d="M86.7536893,98.9065916 C88.0416044,98.4998816 89.3986602,98.2517885 90.8045212,98.1867149 L90.8045212,85.7739248 C87.8206252,85.8525554 84.9533196,86.3961912 82.2649663,87.3289128 L86.7536893,98.9065916 Z" id="Fill-594" fill="#19486A"></path>
                    <path d="M78.2897824,123.167929 C77.5021207,122.004739 76.8595188,120.730381 76.3985808,119.376036 L64.4697757,122.799179 C65.372672,125.644793 66.7107479,128.296543 68.4094402,130.675796 L78.2897824,123.167929 Z" id="Fill-596" fill="#BF8B2E"></path>
                    <path d="M81.6386328,101.623415 C82.686589,100.79237 83.8402898,100.092829 85.0766883,99.542415 L80.5906766,87.9715147 C77.9199475,89.0926786 75.4579961,90.6110628 73.2753189,92.4521035 L81.6386328,101.623415 Z" id="Fill-598" fill="#00689D"></path>
                    <path d="M25.5910084,34.5321217 C25.5910084,33.6210912 25.2683518,32.91206 24.6243942,32.4036725 C23.979081,31.895285 22.8470714,31.3692733 21.2270098,30.8242819 C19.6055925,30.2806462 18.2810735,29.7546345 17.2534528,29.2448913 C13.9062293,27.6017828 12.2319397,25.3418307 12.2319397,22.4691022 C12.2319397,21.0374829 12.6494953,19.7753261 13.4832509,18.6812762 C14.3170064,17.5872262 15.4964655,16.7358465 17.0216281,16.1257815 C18.5481464,15.5170721 20.2617513,15.2133953 22.1678657,15.2133953 C24.0238191,15.2133953 25.6886188,15.5441861 27.1609091,16.2057678 C28.6331994,16.8687051 29.7774103,17.8122724 30.5935417,19.0351139 C31.4096732,20.2606668 31.8177389,21.6583936 31.8177389,23.2310057 L25.6086325,23.2310057 C25.6086325,22.1789824 25.2859759,21.3628509 24.6420183,20.783967 C23.9967051,20.2037274 23.1249899,19.9136075 22.0255171,19.9136075 C20.9124874,19.9136075 20.0353494,20.1589893 19.3900362,20.6511084 C18.7460786,21.1405161 18.423422,21.7654939 18.423422,22.5219745 C18.423422,23.1849119 18.7786154,23.7841313 19.4876466,24.3223442 C20.1980334,24.8605572 21.4452775,25.4163942 23.2307345,25.9898554 C25.0161916,26.5633165 26.4844148,27.1815157 27.631337,27.8444531 C30.4227235,29.4523134 31.8177389,31.6702388 31.8177389,34.4968735 C31.8177389,36.7554698 30.9663593,38.5300812 29.2635999,39.819352 C27.5594849,41.1072671 25.2236137,41.7525804 22.2559862,41.7525804 C20.1627852,41.7525804 18.2661608,41.3770514 16.57018,40.6259936 C14.8728435,39.8749357 13.595774,38.8459594 12.7389715,37.5390645 C11.8808133,36.2321696 11.4510564,34.7273425 11.4510564,33.0245831 L17.6967667,33.0245831 C17.6967667,34.4087529 18.0546716,35.4268837 18.7704812,36.0843983 C19.4849352,36.7405571 20.6467702,37.0686365 22.2559862,37.0686365 C23.2849625,37.0686365 24.0983826,36.8463017 24.6962463,36.4043435 C25.2927544,35.9596739 25.5910084,35.3360518 25.5910084,34.5321217" id="Fill-600" fill="#009EDB"></path>
                    <path d="M55.6338648,15.5675042 L55.6338648,32.4744401 C55.6338648,34.3900443 55.225799,36.0494212 54.4096676,37.4498594 C53.5935361,38.8516533 52.4235669,39.919945 50.8970486,40.652023 C49.371886,41.3868125 47.5674492,41.7528515 45.4864496,41.7528515 C42.3398696,41.7528515 39.8630056,40.93672 38.0531459,39.3044571 C36.2432863,37.6721942 35.3214102,35.4366448 35.286162,32.5978088 L35.286162,15.5675042 L41.5481408,15.5675042 L41.5481408,32.7225332 C41.6186372,35.5491679 42.9323106,36.9618074 45.4864496,36.9618074 C46.7757203,36.9618074 47.7518244,36.6079696 48.4134061,35.8975828 C49.0763434,35.1885516 49.4071342,34.0348509 49.4071342,32.4391918 L49.4071342,15.5675042 L55.6338648,15.5675042 Z" id="Fill-602" fill="#009EDB"></path>
                    <path d="M73.2057715,34.5321217 C73.2057715,33.6210912 72.8831149,32.91206 72.2391574,32.4036725 C71.5938441,31.895285 70.4618345,31.3692733 68.8417729,30.8242819 C67.2203556,30.2806462 65.8958366,29.7546345 64.8682159,29.2448913 C61.5209924,27.6017828 59.8467028,25.3418307 59.8467028,22.4691022 C59.8467028,21.0374829 60.2642584,19.7753261 61.098014,18.6812762 C61.9317695,17.5872262 63.1112286,16.7358465 64.6363912,16.1257815 C66.1629095,15.5170721 67.8765145,15.2133953 69.7826288,15.2133953 C71.6385822,15.2133953 73.3033819,15.5441861 74.7756722,16.2057678 C76.2479625,16.8687051 77.3921734,17.8122724 78.2083049,19.0351139 C79.0244363,20.2606668 79.4325021,21.6583936 79.4325021,23.2310057 L73.2233956,23.2310057 C73.2233956,22.1789824 72.900739,21.3628509 72.2567815,20.783967 C71.6114682,20.2037274 70.7397531,19.9136075 69.6402803,19.9136075 C68.5272505,19.9136075 67.6501125,20.1589893 67.0047993,20.6511084 C66.3608418,21.1405161 66.0381851,21.7654939 66.0381851,22.5219745 C66.0381851,23.1849119 66.3933786,23.7841313 67.1024097,24.3223442 C67.8127966,24.8605572 69.0600406,25.4163942 70.8454977,25.9898554 C72.6309547,26.5633165 74.0991779,27.1815157 75.2461002,27.8444531 C78.0374867,29.4523134 79.4325021,31.6702388 79.4325021,34.4968735 C79.4325021,36.7554698 78.5811224,38.5300812 76.8783631,39.819352 C75.1742481,41.1072671 72.8383768,41.7525804 69.8707493,41.7525804 C67.7775483,41.7525804 65.8809239,41.3770514 64.1849431,40.6259936 C62.4876066,39.8749357 61.2105371,38.8459594 60.3537346,37.5390645 C59.4955765,36.2321696 59.0658195,34.7273425 59.0658195,33.0245831 L65.3115299,33.0245831 C65.3115299,34.4087529 65.6694347,35.4268837 66.3852444,36.0843983 C67.0996983,36.7405571 68.2615333,37.0686365 69.8707493,37.0686365 C70.8997257,37.0686365 71.7131457,36.8463017 72.3110095,36.4043435 C72.9075175,35.9596739 73.2057715,35.3360518 73.2057715,34.5321217" id="Fill-604" fill="#009EDB"></path>
                    <polygon id="Fill-606" fill="#009EDB" points="103.266252 20.3752234 95.5130032 20.3752234 95.5130032 41.3980648 89.2862726 41.3980648 89.2862726 20.3752234 81.676728 20.3752234 81.676728 15.5679109 103.266252 15.5679109"></polygon>
                    <path d="M111.754833,31.7645955 L117.30778,31.7645955 L114.523172,22.8061293 L111.754833,31.7645955 Z M118.797695,36.571908 L110.264918,36.571908 L108.775004,41.3982004 L102.122583,41.3982004 L111.59486,15.5680465 L117.450129,15.5680465 L126.994257,41.3982004 L120.306589,41.3982004 L118.797695,36.571908 Z" id="Fill-608" fill="#009EDB"></path>
                    <mask id="mask-2" fill="white">
                        <use xlink:href="#path-1"></use>
                    </mask>
                    <g id="Clip-611"></g>
                    <polygon id="Fill-610" fill="#009EDB" mask="url(#mask-2)" points="129.663224 41.3976581 135.872331 41.3976581 135.872331 15.5675042 129.663224 15.5675042"></polygon>
                    <polygon id="Fill-612" fill="#009EDB" mask="url(#mask-2)" points="162.136173 41.3975225 155.944691 41.3975225 146.791004 25.3243422 146.791004 41.3975225 140.564273 41.3975225 140.564273 15.5673686 146.791004 15.5673686 155.927066 31.6405489 155.927066 15.5673686 162.136173 15.5673686"></polygon>
                    <path d="M174.385601,31.7645955 L179.938549,31.7645955 L177.153941,22.8061293 L174.385601,31.7645955 Z M181.428463,36.571908 L172.895687,36.571908 L171.405772,41.3982004 L164.753352,41.3982004 L174.225628,15.5680465 L180.080897,15.5680465 L189.625026,41.3982004 L182.937357,41.3982004 L181.428463,36.571908 Z" id="Fill-613" fill="#009EDB" mask="url(#mask-2)"></path>
                    <path d="M198.09544,30.4162162 L198.09544,36.6076985 L202.176097,36.6076985 C203.298617,36.6076985 204.162198,36.3501155 204.765484,35.8363051 C205.368771,35.3211391 205.671092,34.5971953 205.671092,33.6631179 C205.671092,31.5102661 204.600089,30.4284175 202.459439,30.4162162 L198.09544,30.4162162 Z M198.09544,26.3355589 L201.342342,26.3355589 C202.702109,26.3247133 203.671435,26.0752645 204.251674,25.5885681 C204.830558,25.1032275 205.120678,24.3847065 205.120678,23.4357164 C205.120678,22.3443778 204.807511,21.5594275 204.179822,21.0781539 C203.553489,20.5982361 202.542136,20.3569215 201.147121,20.3569215 L198.09544,20.3569215 L198.09544,26.3355589 Z M191.868709,41.3973869 L191.868709,15.567233 L201.147121,15.567233 C204.469942,15.567233 206.998323,16.1772981 208.730907,17.3947168 C210.463492,18.6134912 211.329784,20.3813241 211.329784,22.6995712 C211.329784,24.0362915 211.02204,25.1764353 210.406553,26.122714 C209.79242,27.0703483 208.886813,27.7671782 207.692441,28.2159149 C209.041363,28.5711083 210.075762,29.2340457 210.79835,30.2033713 C211.518227,31.1726968 211.880199,32.356223 211.880199,33.7512384 C211.880199,36.2823305 211.07898,38.183022 209.476542,39.4546687 C207.872749,40.7263154 205.498918,41.37434 202.352338,41.3973869 L191.868709,41.3973869 Z" id="Fill-614" fill="#009EDB" mask="url(#mask-2)"></path>
                    <polygon id="Fill-615" fill="#009EDB" mask="url(#mask-2)" points="221.893671 36.6076985 232.732493 36.6076985 232.732493 41.3973869 215.66694 41.3973869 215.66694 15.567233 221.893671 15.567233"></polygon>
                    <polygon id="Fill-616" fill="#009EDB" mask="url(#mask-2)" points="251.742391 30.4339758 241.950169 30.4339758 241.950169 36.6078341 253.517002 36.6078341 253.517002 41.3975225 235.722083 41.3975225 235.722083 15.5673686 253.550895 15.5673686 253.550895 20.3746811 241.950169 20.3746811 241.950169 25.8218841 251.742391 25.8218841"></polygon>
                    <path d="M18.343978,55.7343221 L18.343978,71.6380399 L20.4642929,71.6380399 C22.213146,71.6380399 23.5580005,71.0157736 24.496145,69.7698852 C25.4356452,68.5239968 25.9047174,66.6734662 25.9047174,64.2169376 L25.9047174,63.1215319 C25.9047174,60.6772047 25.4356452,58.8348082 24.496145,57.5943427 C23.5580005,56.3538771 22.1914548,55.7343221 20.3951522,55.7343221 L18.343978,55.7343221 Z M12.2419718,76.3328294 L12.2419718,51.02462 L20.3951522,51.02462 C22.6320574,51.02462 24.6412049,51.5316518 26.4266619,52.5443598 C28.2107633,53.5584235 29.604423,54.9900428 30.6062853,56.837862 C31.6081477,58.6870369 32.1165352,60.757191 32.1273808,63.0523912 L32.1273808,64.2169376 C32.1273808,66.5338291 31.6379731,68.6121173 30.6591576,70.449091 C29.6789865,72.2847089 28.3015952,73.721751 26.5229166,74.7588616 C24.7428824,75.7959721 22.7581375,76.3206281 20.5686818,76.3328294 L12.2419718,76.3328294 Z" id="Fill-617" fill="#009EDB" mask="url(#mask-2)"></path>
                    <polygon id="Fill-618" fill="#009EDB" mask="url(#mask-2)" points="49.6144208 65.5902618 40.6559545 65.5902618 40.6559545 71.6393956 51.3524283 71.6393956 51.3524283 76.3328294 34.5553041 76.3328294 34.5553041 51.02462 51.3876765 51.02462 51.3876765 55.7343221 40.6559545 55.7343221 40.6559545 61.0703577 49.6144208 61.0703577"></polygon>
                    <polygon id="Fill-619" fill="#009EDB" mask="url(#mask-2)" points="64.7314258 69.4488554 69.7719188 51.0248911 76.5870231 51.0248911 68.0691594 76.3317448 61.3936922 76.3317448 52.9463249 51.0248911 59.708557 51.0248911"></polygon>
                    <polygon id="Fill-620" fill="#009EDB" mask="url(#mask-2)" points="93.4012291 65.5902618 84.5295277 65.5902618 84.5295277 71.6393956 95.1392366 71.6393956 95.1392366 76.3328294 78.4288773 76.3328294 78.4288773 51.02462 95.1744848 51.02462 95.1744848 55.7343221 84.5295277 55.7343221 84.5295277 61.0703577 93.4012291 61.0703577"></polygon>
                    <polygon id="Fill-621" fill="#009EDB" mask="url(#mask-2)" points="103.337697 71.6388534 112.992993 71.6388534 112.992993 76.3322871 97.237047 76.3322871 97.237047 51.0240777 103.337697 51.0240777"></polygon>
                    <path d="M129.486712,63.1390205 C129.486712,60.6255525 129.066445,58.7153711 128.225911,57.4125433 C127.385377,56.1083598 126.184227,55.456268 124.619749,55.456268 C121.559933,55.456268 119.943939,57.7514683 119.769054,62.3405131 L119.752785,64.199178 C119.752785,66.6801091 120.163562,68.5862235 120.986472,69.9188766 C121.809382,71.2515298 123.032224,71.9171786 124.653641,71.9171786 C126.195072,71.9171786 127.384021,71.2623754 128.217777,69.9527692 C129.051532,68.6431629 129.474511,66.7600954 129.486712,64.3035669 L129.486712,63.1390205 Z M135.691751,64.199178 C135.691751,66.6679078 135.233525,68.8519407 134.318427,70.7526322 C133.40333,72.6533237 132.101857,74.1161241 130.416722,75.1410334 C128.730231,76.1672984 126.809204,76.679753 124.653641,76.679753 C122.499434,76.679753 120.586541,76.1849225 118.917674,75.1939057 C117.250163,74.2028889 115.948691,72.7861823 115.015969,70.9437859 C114.083247,69.1013895 113.592484,66.9864973 113.547746,64.5991095 L113.547746,63.1742687 C113.547746,60.6946932 114.001905,58.5065933 114.91158,56.6126802 C115.821255,54.7174115 117.124083,53.2546111 118.822775,52.2229233 C120.520112,51.1925912 122.451984,50.6760695 124.619749,50.6760695 C126.76311,50.6760695 128.674648,51.1858127 130.355716,52.2052992 C132.035428,53.2247857 133.342323,54.6767405 134.275045,56.5598079 C135.207766,58.4428754 135.67955,60.6011499 135.691751,63.0346316 L135.691751,64.199178 Z" id="Fill-622" fill="#009EDB" mask="url(#mask-2)"></path>
                    <path d="M144.215987,63.0349027 L148.213946,63.0349027 C149.396117,63.0349027 150.296302,62.7393601 150.917212,62.1482748 C151.536767,61.5571896 151.847223,60.7234341 151.847223,59.6456525 C151.847223,58.463482 151.527277,57.5199147 150.890098,56.8122393 C150.252919,56.1059195 149.383916,55.746659 148.283087,55.7344577 L144.215987,55.7344577 L144.215987,63.0349027 Z M144.215987,67.7446048 L144.215987,76.3329649 L138.115336,76.3329649 L138.115336,51.0233999 L148.213946,51.0233999 C150.14853,51.0233999 151.86078,51.379949 153.350694,52.0930473 C154.839253,52.8047898 155.991598,53.8188535 156.809085,55.1338826 C157.626572,56.4502674 158.034638,57.9415375 158.034638,59.6104043 C158.034638,62.0791341 157.150721,64.0516778 155.384244,65.5293909 C153.617767,67.0057483 151.191064,67.7446048 148.109557,67.7446048 L144.215987,67.7446048 Z" id="Fill-623" fill="#009EDB" mask="url(#mask-2)"></path>
                    <polygon id="Fill-624" fill="#009EDB" mask="url(#mask-2)" points="168.285764 51.0240777 173.934966 68.6319105 179.566545 51.0240777 187.597712 51.0240777 187.597712 76.3322871 181.478082 76.3322871 181.478082 70.4227904 182.069167 58.3245227 175.950892 76.3322871 171.91904 76.3322871 165.783142 58.3068986 166.374227 70.4227904 166.374227 76.3322871 160.272221 76.3322871 160.272221 51.0240777"></polygon>
                    <polygon id="Fill-625" fill="#009EDB" mask="url(#mask-2)" points="205.40063 65.5902618 196.416405 65.5902618 196.416405 71.6393956 207.138637 71.6393956 207.138637 76.3328294 190.315755 76.3328294 190.315755 51.02462 207.173886 51.02462 207.173886 55.7343221 196.416405 55.7343221 196.416405 61.0703577 205.40063 61.0703577"></polygon>
                    <polygon id="Fill-626" fill="#009EDB" mask="url(#mask-2)" points="230.328294 76.3322871 224.261536 76.3322871 215.29358 60.5844748 215.29358 76.3322871 209.191574 76.3322871 209.191574 51.0240777 215.29358 51.0240777 224.245268 66.77189 224.245268 51.0240777 230.328294 51.0240777"></polygon>
                    <polygon id="Fill-627" fill="#009EDB" mask="url(#mask-2)" points="253.550624 55.7343221 245.954636 55.7343221 245.954636 76.3328294 239.85263 76.3328294 239.85263 55.7343221 232.396279 55.7343221 232.396279 51.02462 253.550624 51.02462"></polygon>
                </g>
            </g>
        </g>
    </g>
</svg>