<?xml version="1.0" standalone="no"?>
<!DOCTYPE svg PUBLIC "-//W3C//DTD SVG 1.1//EN" "http://www.w3.org/Graphics/SVG/1.1/DTD/svg11.dtd" >
<svg xmlns="http://www.w3.org/2000/svg">
<metadata>Generated by IcoMoon</metadata>
<defs>
<font id="minkaicons" horiz-adv-x="1024">
<font-face units-per-em="1024" ascent="960" descent="-64" />
<missing-glyph horiz-adv-x="1024" />
<glyph unicode="&#x20;" horiz-adv-x="0" d="" />
<glyph unicode="&#xe000;" glyph-name="inat-wordmark" d="M124 488l10-14c4-4 8-10 10-14 4-6 8-10 12-16 4-4 8-10 12-16s8-10 12-18c2 2 4 2 6 2s6 0 8 0c4 0 6 0 10 0 2 0 4 0 6-2 0 6 0 14 0 20s0 12 0 18c0 16 0 30 0 46s0 30 2 46c0 6 0 12 0 18s0 12 2 18c-2-2-4-2-6-2s-4 0-6 0c-2 0-4 0-6 0s-4 0-8 2c0-6 0-10 2-16 0-4 0-8 0-14 0-4 0-8 0-14 0-4 0-10 0-16s0-14 2-20c0-6 0-12 0-20-4 4-6 6-8 10-2 2-4 6-6 8s-4 6-6 8c-2 4-6 6-8 10s-6 8-10 12c-4 6-8 12-12 16-4 6-8 12-12 18s-8 12-12 18c-2-2-4-2-6-2-4 0-6 0-8 0s-6 0-8 0c-4 0-6 0-8 2 0-14 0-28 0-40s0-26 0-38c0-8 0-14 0-22s0-14 0-22c0-8 0-14-2-22 0-8 0-14 0-22 2 2 4 2 6 2s4 0 6 0c2 0 4 0 6 0s4 0 6-2c0 6 0 12-2 20 0 6 0 14 0 20 0 8 0 14 0 20s0 12 0 16v24c2-4 4-8 8-10 2-4 4-8 8-12zM268 446c0 4 0 8 0 10s2 4 2 6c2 2 4 4 6 4 2 2 6 4 10 6v-30c0-4-2-6-4-8 0-2-4-2-6-2-4 0-6 0-6 4-2 2-2 6-2 10zM230 442c0-6 0-12 2-16s4-6 6-8 6-6 10-6c4-2 8-2 12-2 6 0 10 0 16 2 4 2 8 6 12 10 0-2 2-4 2-4 2-2 4-4 6-4 0-2 2-2 6-4 2 0 4 0 8 0s8 0 12 2c6 2 10 4 14 8 0 2 0 2 0 4 0 0 0 2 0 2 0 2 0 2 0 4 0 0 0 2 0 4-2-2-6-4-8-4s-2 2-4 2c0 2 0 2-2 4 0 2 0 4 0 6s0 6 0 8c0 4 0 6 0 10s0 8 0 12c0 4 0 8 0 12s0 8 0 12c0 4 0 8-2 14-2 4-4 8-8 10-2 4-8 6-12 8-6 2-12 4-20 4s-14-2-22-4c-6-2-12-4-20-10l4-20h6c2 4 6 8 8 10 4 2 8 2 14 2 2 0 4 0 6 0s4-2 4-2 4-4 4-6c2-2 2-4 2-8 0-2 0-4-2-4 0-2 0-4-2-4-2-2-4-2-6-4-4 0-6-2-12-2-4-2-8-4-14-6-4-2-8-4-10-8-4-2-6-6-8-10s-2-8-2-14zM388 442v70c4 0 6 0 10 0 2-2 6-2 8-2 0 2 0 4 0 4 0 2 0 4 0 6s0 6 0 8c-2 0-6 0-8 0s-6 0-10 0c0 2 0 6 2 10 0 4 0 8 0 14 0 4 0 8 0 14 0 4 0 8 2 12l-4 4c-6-6-12-10-18-14-8-4-14-8-20-10v-30c-2 0-6 0-8 0-4 0-6 0-8 0 2-2 2-2 2-4s0-4 0-4 0-4 0-6c0-2-2-2-2-4 4 0 6 0 8 2 2 0 4 0 8 0v-32c0-4 0-10 0-16-2-6-2-12-2-18 0-12 4-20 8-26 6-8 14-10 24-10 6 0 10 0 16 2 4 0 10 2 14 4 0 2 0 2 0 4 0 0 0 2 0 4s0 4 0 8c-2-2-4-2-4-2-2-2-4-2-6-2-8 0-12 4-12 14zM418 484c0-2 0-4 0-8 0-2 0-6 0-10 0-2 0-6 0-8 0-4 0-6 0-8 0-12 2-22 8-30 6-6 12-10 24-10 4 0 6 2 10 2 2 0 4 2 8 2 2 2 4 4 6 6s4 6 8 8c0-6-2-12-2-18 4 2 6 2 10 2s6 0 10 0c2 0 6 0 10 0s8 0 10-2c0 8 0 16 0 24-2 8-2 18-2 30v18c0 4 0 10 0 14 2 6 2 10 2 14s0 8 0 12c0 4 0 6 0 10-6-2-14-2-20-2-4 0-8 0-10 0-4 0-8 0-12 2 2-10 2-20 2-30 0-12 0-22 0-32 0-4 0-8 0-10 0-4-2-8-2-12 0-2-2-4-2-6-2-2-4-4-8-4-2 0-4 2-6 2 0 2-2 4-2 8-2 2-2 4-2 8s0 8 0 12 0 16 0 22c0 6 0 10 0 16 0 4 0 8 0 12 2 4 2 8 2 14-4-2-8-2-10-2-4 0-6 0-10 0s-8 0-12 0c-2 0-6 0-10 2 0-8 0-14 0-22 0-6 0-16 0-26zM580 500l2 32c-4-2-6-2-10-2-2 0-6 0-10 0-2 0-6 0-10 0-2 0-6 0-10 2 0-6 0-12 0-16s0-10 0-14c2-4 2-8 2-14 0-4 0-10 0-18v-16c0-8 0-16-2-22 0-8 0-16 0-22 2 2 6 2 10 2s6 0 10 0c4 0 8 0 12 0 2 0 6 0 10-2 0 10 0 18 0 28-2 8-2 18-2 26 0 4 2 8 2 12 0 2 0 6 2 8 0 2 2 4 4 6 4 2 6 2 10 2 2 0 6 0 8 0 2-2 4-4 6-6l2 2c0 4 0 10 0 12 0 4 2 8 2 10 0 4 0 6 0 10 0 2 0 6 2 10-2 0-4 2-4 2-2 0-4 0-4 0-4 0-8-2-12-4-4 0-6-4-8-6-4-4-6-8-8-10 0-4-2-8-2-12zM662 446c0 4 0 8 0 10s2 4 2 6c2 2 4 4 6 4 2 2 6 4 10 6v-30c0-4-2-6-4-8 0-2-2-2-6-2s-6 0-6 4c-2 2-2 6-2 10zM624 442c0-6 0-12 2-16s4-6 6-8 6-6 10-6c4-2 8-2 12-2 6 0 10 0 16 2 4 2 8 6 12 10 0-2 2-4 4-4 0-2 2-4 4-4 2-2 4-2 6-4 2 0 4 0 8 0s8 0 14 2c4 2 8 4 12 8 0 2 0 2 0 4 0 0 0 2 0 2 0 2 0 2 0 4 0 0 0 2 0 4-2-2-6-4-8-4s-2 2-4 2c0 2 0 2-2 4 0 2 0 4 0 6s0 6 0 8c0 4 0 6 0 10s0 8 0 12c0 4 0 8 0 12s0 8 0 12c0 4 0 8-2 14-2 4-4 8-8 10-2 4-8 6-12 8-6 2-12 4-20 4s-14-2-22-4c-6-2-12-4-20-10l4-20h6c2 4 6 8 10 10 2 2 6 2 12 2 2 0 4 0 6 0s4-2 6-2c0-2 2-4 2-6 2-2 2-4 2-8 0-2 0-4 0-4-2-2-2-4-4-4-2-2-4-2-6-4-2 0-6-2-12-2-4-2-8-4-12-6-6-2-8-4-12-8-4-2-6-6-8-10s-2-8-2-14zM742 530v-72c0-8 0-16 0-24-2-8-2-16-2-24 4 2 8 2 10 2 4 0 8 0 12 0s6 0 10 0c4 0 8 0 10-2 0 4 0 8 0 12 0 6 0 10 0 16 0 4 0 10 0 14 0 6 0 12 0 16v58c0 10 0 20 0 30s0 20 0 30c-2-2-6-2-10-2s-6 0-10 0c-4 0-8 0-12 0-2 0-6 0-10 2 0-8 0-14 0-18 2-6 2-10 2-14s0-8 0-12c0-4 0-8 0-12zM806 474c0-8 0-16 0-22s0-10 0-14c0-4 0-8-2-12 0-4 0-10 0-16 4 2 6 2 10 2s8 0 10 0c4 0 8 0 12 0s8 0 10-2c0 4 0 8 0 12s0 8 0 12c0 4 0 8 0 12s0 8 0 12v12c0 8 0 16 0 26 0 12 0 22 2 36-8-2-14-2-22-2-4 0-8 0-12 0-2 0-6 0-10 2 0-6 0-8 0-12 2-4 2-6 2-10s0-8 0-14c0-6 0-12 0-22zM878 446h-8c0-4 0-10 0-14-2-6-2-10-2-16 4-2 10-4 16-4 6-2 12-2 18-2 4 0 10 0 16 2 4 2 10 4 14 8 4 2 8 8 10 12 2 6 4 12 4 20 0 18-8 30-24 36l-12 4c-4 2-8 4-12 6-2 0-4 4-4 6s2 4 2 6c2 0 2 2 4 2 0 2 2 2 4 2s2 0 4 0c6 0 10-2 14-4 2-2 4-8 6-14h8c0 6 0 10 0 14 2 6 2 10 4 16-6 2-10 2-16 4-4 2-10 2-14 2-6 0-12 0-16-2-6-2-10-4-14-8s-8-8-10-14c-2-6-4-12-4-20 0-10 2-18 6-24 6-4 12-8 18-12l14-4c4-2 8-4 10-4 0-2 2-4 2-8 0-2 0-2-2-4 0-2-2-2-2-2-2-2-4-2-6-2 0 0-2 0-4 0-6 0-10 0-14 4-4 2-8 8-10 14zM1004 442v70c2 0 6 0 8 0 2-2 6-2 8-2 0 2 0 4 0 4 0 2 0 4 0 6s0 6 0 8c-2 0-4 0-8 0-2 0-6 0-8 0 0 2 0 6 0 10s0 8 0 14c0 4 0 8 0 14 0 4 2 8 2 12l-4 4c-6-6-12-10-18-14s-14-8-20-10v-30c-2 0-4 0-8 0-2 0-6 0-6 0 0-2 0-2 0-4s0-4 0-4 0-4 0-6c0-2 0-2 0-4 2 0 4 0 6 2 2 0 6 0 8 0v-32c0-4 0-10 0-16s0-12 0-18 2-20 6-26c6-8 14-10 24-10 6 0 10 0 16 2 4 0 10 2 14 4 0 2 0 2 0 4 0 0 0 2 0 4s0 4 0 8c-2-2-2-2-4-2-2-2-4-2-6-2-6 0-10 4-10 14zM850 564c0-6-2-12-8-16-4-6-10-8-16-8s-12 2-18 8c-4 4-6 10-6 16s2 12 6 18c6 4 12 6 18 6s12-2 16-6c6-6 8-12 8-18M24 474c0-8 0-16 0-22s0-10 0-14c0-4 0-8-2-12 0-4 0-10 0-16 4 2 6 2 10 2s8 0 10 0c4 0 8 0 12 0s8 0 10-2c0 4 0 8 0 12s0 8 0 12c0 4 0 8 0 12s0 8 0 12v12c0 8 0 16 0 26 0 12 0 22 2 36-8-2-14-2-22-2-4 0-8 0-12 0-2 0-6 0-10 2 0-6 0-8 0-12 2-4 2-6 2-10s0-8 0-14c0-6 0-12 0-22M0 550c6 0 12 2 18 4 4 2 6-4 12-4 4-2 12-2 16 0 8 0 12 4 16 10 6 6 8 14 8 22s2 16 8 22c4 4 8 6 12 8-4 4-8 2-14 2-12 0-28 0-40-6-8-6-14-14-16-24 0-6-2-14-4-20-4-6-10-8-16-14 0 0 0 0 0 0z" />
<glyph unicode="&#xe001;" glyph-name="arrow-down" d="M482 748v-358l-164 164-42-42 236-236 236 236-42 42-164-164v358zM74 512c0 242 196 438 438 438s438-196 438-438c0-242-196-438-438-438s-438 196-438 438zM898 512c0 214-172 386-386 386s-386-172-386-386c0-214 172-386 386-386s386 172 386 386z" />
<glyph unicode="&#xe002;" glyph-name="arrow-left" d="M748 542h-358l164 164-42 42-236-236 236-236 42 42-164 164h358zM512 950c242 0 438-196 438-438s-196-438-438-438c-242 0-438 196-438 438s196 438 438 438zM512 126c214 0 386 172 386 386s-172 386-386 386c-214 0-386-172-386-386s172-386 386-386z" />
<glyph unicode="&#xe003;" glyph-name="arrow-right" d="M276 482h358l-164-164 42-42 236 236-236 236-42-42 164-164h-358zM512 74c-242 0-438 196-438 438s196 438 438 438c242 0 438-196 438-438s-196-438-438-438zM512 898c-214 0-386-172-386-386s172-386 386-386c214 0 386 172 386 386s-172 386-386 386z" />
<glyph unicode="&#xe004;" glyph-name="species-unknown" d="M499.136 932.236c28.83 0 44.166-19.956 56.752-63.253v0l3.896-14.452c1.277-5.079 2.535-10.42 3.787-16.027v0l3.756-17.627 9.691-49.265c0.455-2.187 0.897-4.265 1.331-6.238v0l2.514-10.65c1.63-6.342 3.19-11.238 4.831-15.111v0l2.011-5.237c16.758-40.395 49.443-44.929 85.261-9.448v0l40.365 56.874 9.594 13.105 11.325 14.945 11.084 13.884c12.355 14.952 22.75 25.554 31.815 31.888 43.762 30.58 78.537 14.536 76.67-35.226-3.134-83.604-14.683-148.958-34.062-212.307v0l-3.911-12.27-21.279-63.543c-5.054-16.422-7.394-27.9-7.7-37.939v0l0.045-2.865 0.389-5.927 0.837-6.462 1.351-7.323 1.927-8.51 4.113-15.708 15.955-55.629 3.694-14.435c2.17-9.065 3.782-17.154 4.975-25.092 10.32-68.637-0.113-157.896-35.86-225.225-64.488-121.464-159.157-169.909-306.715-162.735-158.61 7.713-307.451 153.195-307.451 297.077 0 115.096 30.88 194.312 81.338 247.93 2.733 2.903 5.391 5.7 7.985 8.401v0l14.896 15.163c2.386 2.369 4.729 4.666 7.042 6.904v0l13.595 12.807c4.467 4.094 8.9 8.046 13.384 11.949v0l17.648 15.16 8.508 7.832c2.42 2.383 4.577 4.692 6.676 7.146 4.665 5.458 9.3 11.971 14.702 20.796 5.203 8.504 11.438 23.656 14.328 35.348v0l5.977 23.74 9.046 34.223 6.081 21.82 6.118 20.968c1.022 3.421 2.047 6.805 3.072 10.149v0l6.171 19.599 6.204 18.628c1.037 3.021 2.076 6 3.116 8.934v0l6.253 17.081c1.045 2.756 2.090 5.47 3.137 8.135v0l6.297 15.426c1.052 2.475 2.104 4.902 3.159 7.28v0l6.336 13.663c19.047 39.161 38.426 61.651 57.935 61.651zM501.17 886.494l-2.323-2.933c-1.33-1.788-2.759-3.9-4.267-6.315v0l-2.316-3.849c-8.262-14.217-17.614-35.23-27.514-61.625-17.887-47.684-36.876-111.242-51.749-171.4-3.956-15.999-11.915-35.345-19.52-47.77-6.55-10.702-12.513-19.083-18.791-26.425-4.37-5.114-8.872-9.715-14.203-14.615v0l-3.404-3.091-19.88-17.114c-3.064-2.667-6.104-5.359-9.155-8.116l6.388-74.917-80.654-9.178c-0.667-1.151-1.326-2.312-1.977-3.482l34.594-73.152-69.326-44.797c-0.082-0.744-0.16-1.489-0.238-2.238l63.099-59.385-56.721-50.71c31.66-100.225 141.923-191.373 256.505-196.944 96.719-4.702 164.719 15.848 216.255 69.306l-32.22 79.008 84.412 26.258-43.572 72.225 65.791 52.703-71.349 45.484 52.512 87.97-2.415 9.181-2.474 10.556-1.794 9.286c-0.247 1.466-0.467 2.897-0.666 4.302v0l-0.914 8.196c-0.328 4.016-0.469 7.962-0.467 12.085 0.511 17.239 4.325 34.181 12.197 58.308v0l12.004 35.3 10.608 32.381c18.294 59.803 29.179 121.398 32.167 201.069v0l0.019 2.362-7.43-4.899c-4.704-3.288-11.523-10.197-19.977-20.159v0l-8.985-10.96c-3.166-3.978-6.495-8.274-9.97-12.868v0l-5.166-6.893-36.066-50.335-13.248-17.952-6.094-7.686-6.192-5.912c-56.708-51.323-126.157-36.047-151.975 36.77-2.772 6.428-5.188 14.391-7.716 25.025v0l-3.116 14.114-9.72 49.412-3.597 16.495c-1.808 7.769-3.62 14.814-5.389 21.116v0l-3.465 11.605-3.262 9.583-2.975 7.521c-1.401 3.238-2.662 5.688-3.734 7.329v0l-0.572 0.783zM446.275 175.378c9.898 0.581 18.049-7.564 18.63-17.456 0.581-11.054-6.404-18.618-16.884-19.201-11.061-0.581-19.795 8.145-19.795 18.618 0 8.728 8.734 17.456 18.049 18.037zM507.691 395.686c40.686 0 67.387-24.014 67.387-57.265 0-9.852-1.906-19.703-6.991-29.557-10.172-20.319-26.064-34.481-48.95-46.797-19.707-9.852-28.607-20.319-33.692-37.56-5.721-10.468-16.529-14.778-27.335-11.084s-17.164 14.778-15.257 25.246c5.086 30.787 15.257 40.024 41.958 56.649 19.072 14.778 41.958 23.398 41.958 41.253 0 11.084-13.349 13.546-27.335 13.546-27.335 0-31.786-14.162-48.95-14.162-13.349 0-22.249 11.7-22.249 20.319 0 30.173 48.315 39.408 79.465 39.408zM650.844 579.251c20.405 0 36.947-16.436 36.947-36.713s-16.542-36.713-36.947-36.713c-20.405 0-36.947 16.436-36.947 36.713s16.542 36.713 36.947 36.713zM484.815 615.964c20.405 0 36.947-16.436 36.947-36.713s-16.542-36.713-36.947-36.713c-20.405 0-36.947 16.436-36.947 36.713s16.542 36.713 36.947 36.713z" />
<glyph unicode="&#xe005;" glyph-name="ios-calendar-outline" d="M704 832v64h-32v-64h-320v64h-32v-64h-192v-704h768v704zM864 160h-704v480h704zM864 672h-704v128h160v-64h32v64h320v-64h32v64h160z" />
<glyph unicode="&#xe006;" glyph-name="icn-captive" d="M740 408c0 2-2 4-4 6 2 0 2 2 2 4 4 6 4 14 0 22-2 8-8 12-12 14 0 0 0 2-2 2-4 2-6 6-10 8-32 24-62 48-106 58-14 4-32 10-50 16-32 12-66 24-94 28-8 0-16-2-20-10s-2-16 4-22v-2c2-2 10-8 14-14 4-4 8-8 12-12-12-6-22-12-32-20-6-4-10-8-16-10-4-2-6-4-10-6-2-2-6-4-8-6h-2c0 0-2-2-4-2 0-2-4-4-6-6-24 16-52 28-82 38v0c-10 4-22 0-28-10-6-8-4-20 2-28 12-14 28-30 46-46-16-16-28-28-34-36-8-10-8-20-4-30 6-8 18-14 28-10v0c14 4 40 14 72 32 24-16 44-26 60-32v0c36-24 72-34 108-34 28 0 58 6 86 22 32 16 56 38 82 60v0c10 10 10 20 8 26zM698 410c0-4 2-8 6-10-22-20-44-38-68-50h-2c-22-12-46-18-70-18-28 0-58 8-88 28-2 0-4 2-8 4-14 4-34 16-58 32h-2c-8 4-18 4-24 0-14-8-26-14-38-20 6 6 10 10 16 16 6 4 8 10 8 18s-2 14-8 18c-10 8-18 16-26 24 18-8 36-18 50-28 10-6 20 0 26 4 2 2 6 6 10 8 0 0 2 0 2 2 4 0 6 2 10 4 2 2 4 4 8 6v0c6 4 12 8 20 12 12 8 24 18 38 24 0 0 2 0 2 0 2 2 2 2 4 2l30 8-24 20c-2 2-6 6-10 10 14-4 30-10 46-16 20-6 38-12 52-16 36-10 64-30 94-54 4-2 8-6 12-8 0 0 0 0 0 0-8-6-10-12-8-20zM840 788c14 10 26 28 26 48 0 30-26 56-58 56h-592c-32 0-56-26-56-56 0-20 10-38 26-48-52-76-80-168-80-264 0-122 48-232 132-308 64-54 146-84 232-84h86c84 0 166 30 230 86 86 74 132 184 132 306 0 96-28 188-78 264zM214 810c-14 2-22 12-22 26 0 12 10 24 24 24h592c14 0 24-12 24-24 0-14-8-24-20-26l-34-4 24-22c2-2 4-4 4-6 16-22 30-44 40-68-14 2-24 2-24 2-24 0-46-8-64-16l-2-2c-4-2-10-4-16-6v0c-24-8-52-8-92 2l-6 2c-22 8-38 10-54 10-10 0-16 0-24-2v0h-2c-14-4-28-10-42-18-12-8-24-14-32-12h-2c-2 0-8 2-14 6-2 0-4 2-6 2-2 2-4 2-6 4-2 0-4 2-6 2-36 18-78 24-116 14-6-2-12-4-16-4-2-2-6-2-8-4-4 0-6-2-10-2-6-2-12-4-18-4h-2l-2-2c0 0-2 0-4 0-14 0-28 4-44 8l-4 2c-14 4-26 8-42 10v0h-2c-2 0-4 0-12 2 12 26 26 50 42 74 2 2 4 2 6 4l26 24zM764 242c-56-50-132-78-208-78h-86c-80 0-154 28-210 76-78 70-122 172-122 284 0 52 8 102 24 148 14 0 20-2 20-2h4c12-2 22-6 34-8l6-2c18-6 34-10 52-10 4 0 8 0 14 2 8 0 14 4 22 6 2 0 6 2 10 2 2 0 6 2 8 4 6 0 10 2 14 4 30 6 66 2 94-12 2 0 4-2 6-2 2-2 4-2 6-4 2 0 4-2 6-2 8-6 18-10 28-10 2 0 2 0 4 0 14 0 30 6 46 16v0c12 6 24 12 36 14 4 2 10 2 16 2 12 0 26-2 44-8l6-2h2c46-12 80-14 110-2 8 2 16 4 22 8 16 6 32 14 50 14 12 0 28-2 38-4 18-48 26-98 26-152 0-114-44-214-122-282z" />
<glyph unicode="&#xe007;" glyph-name="chatbubble" d="M512 126c58 0 112 10 162 30 2 2 2 2 4 2 0 0 0 0 0 0 8 4 16 4 22 4 10 0 18-2 26-4l168-62-46 176c0 12 4 22 8 30 2 2 4 6 6 8 42 62 66 136 66 216 0 222-186 402-416 402s-416-180-416-402c0-222 186-400 416-400z" />
<glyph unicode="&#xe008;" glyph-name="identification" d="M512 862c0 0-102 152-290 78v-600l290-276 290 276v600c-188 74-290-78-290-78zM512 274c-44 0-78 36-78 80s34 78 78 78c44 0 78-34 78-78s-34-80-78-80z" />
<glyph unicode="&#xe009;" glyph-name="person" d="M896 128c0 0 0 52-4 80-4 22-34 50-162 98-126 46-120 24-120 110 0 54 30 22 48 128 6 42 12 14 26 80 8 34-4 38-2 54 0 16 2 32 6 66 2 42-36 152-176 152s-178-110-174-152c2-34 4-50 6-66 0-16-12-20-4-54 14-66 20-38 28-80 18-106 46-74 46-128 0-86 8-64-120-110-128-48-158-76-162-98-4-28-4-80-4-80z" />
<glyph unicode="&#xe00a;" glyph-name="iconic-animalia" d="M670 812c-82-6-126-8-236-72-80-44-132-126-144-212-12-58-28-114-48-168-26-58-94-78-138-122-4-4-2-14 2-14 48 0 104 20 150 42 46 20 72-28 110-36 52-14 110-24 162-6 56 12 104 46 138 90 44 56 66 126 70 196 6 70 10 128 48 172s60 68 138 102c4 28-170 34-252 28zM650 660c-28 0-50 22-50 50s22 52 50 52c28 0 52-24 52-52s-24-50-52-50z" />
<glyph unicode="&#xe00b;" glyph-name="iconic-arachnida" d="M689.315 861.837l2.663-0.201c7.164-1.195 12.263-7.351 12.364-14.36l-0.201-2.663-29.59-177.542c-0.384-2.282-1.287-4.427-2.638-6.284l-1.493-1.744-57.664-57.673c5.297-15.539 8.198-32.507 8.198-50.224 0-3.519-0.117-7.011-0.335-10.464l94.697 36.392 186.915 190.711c5.715 5.834 15.083 5.928 20.924 0.213 5.191-5.086 5.838-13.052 1.901-18.855l-1.688-2.066-189.156-193.034-5.263-3.456-109.388-41.988c-1.56-0.596-3.157-0.912-4.732-0.975-0.426-1.615-0.904-3.191-1.424-4.761l140.828-56.338c2.087-0.835 3.944-2.128 5.443-3.771l1.372-1.758 54.804-82.178h169.609c7.267 0 13.306-5.236 14.561-12.13l0.234-2.663c0-7.267-5.236-13.306-12.13-14.561l-2.663-0.234h-177.542c-3.956 0-7.705 1.579-10.452 4.321l-1.858 2.264-56.668 84.968-137.526 55.011c-0.511-0.893-1.033-1.777-1.565-2.652 42.134-34.721 69.523-93.052 69.523-158.705 0-11.981-0.909-23.721-2.663-35.122l55.507-23.708 4.753-3.248 189.156-193.034 1.688-2.066c3.937-5.809 3.284-13.775-1.901-18.855s-13.165-5.571-18.893-1.524l-2.034 1.732-187.087 190.893-47.747 20.417c-21.955-74.251-80.779-127.832-150.842-127.832-70.289 0-129.264 53.929-151.051 128.539l-49.389-21.131-187.087-190.893c-5.715-5.834-15.083-5.928-20.924-0.213-5.191 5.086-5.838 13.052-1.901 18.855l1.688 2.066 189.156 193.034 4.753 3.248 57.244 24.442c-1.679 11.164-2.552 22.658-2.552 34.38 0 65.654 27.391 123.984 69.524 158.741-0.18 0.261-0.359 0.557-0.542 0.855l-133.175-53.258-56.668-84.968-1.858-2.264c-2.2-2.196-5.038-3.646-8.106-4.136l-2.346-0.183h-177.542l-2.663 0.234c-6.037 1.098-10.799 5.861-11.897 11.897l-0.234 2.663 0.234 2.663c1.098 6.037 5.861 10.799 11.897 11.897l2.663 0.234h169.609l54.804 82.178 1.372 1.758c1.003 1.099 2.155 2.041 3.439 2.788l2.001 0.983 136.082 54.431c-0.904 2.646-1.732 5.331-2.493 8.052l-108.303 41.578-5.263 3.456-189.156 193.034-1.688 2.066c-3.937 5.809-3.284 13.775 1.901 18.855s13.165 5.571 18.893 1.524l2.034-1.732 186.915-190.711 89.192-34.247c-0.14 2.755-0.216 5.525-0.216 8.317 0 19.236 3.426 37.582 9.608 54.183l-53.696 53.722-1.493 1.744c-0.904 1.233-1.603 2.604-2.088 4.055l-0.55 2.232-29.59 177.542-0.201 2.663c0.085 6.134 4.007 11.613 9.78 13.688l2.584 0.672 2.663 0.201 2.581-0.268c5.048-0.978 9.335-4.563 11.107-9.512l0.672-2.584 28.845-172.87 43.396-43.437c20.304 31.040 51.965 51.137 88.015 51.137 37.299 0 69.907-21.519 90.092-54.419l46.692 46.728 28.845 172.87c1.047 6.271 5.887 10.954 11.779 12.096l2.581 0.268zM512.001 225.64c-16.341 0-29.59-13.249-29.59-29.59s13.249-29.59 29.59-29.59c16.341 0 29.59 13.249 29.59 29.59s-13.249 29.59-29.59 29.59zM423.23 314.411c-16.341 0-29.59-13.249-29.59-29.59s13.249-29.59 29.59-29.59c16.341 0 29.59 13.249 29.59 29.59s-13.249 29.59-29.59 29.59zM600.772 314.411c-16.341 0-29.59-13.249-29.59-29.59s13.249-29.59 29.59-29.59c16.341 0 29.59 13.249 29.59 29.59s-13.249 29.59-29.59 29.59zM509.311 654.7c-44.582 0-82.046-45.788-82.046-103.566 0-23.109 5.993-44.307 16.041-61.418 20.082 10.948 42.402 17.033 66.005 17.033s45.924-6.077 65.994-16.982c10.060 17.058 16.052 38.254 16.052 61.367 0 57.779-37.464 103.566-82.046 103.566z" />
<glyph unicode="&#xe00c;" glyph-name="iconic-aves" d="M760.348 860.031c2.228-0.008 4.438-0.056 6.633-0.149 0.601-0.025 1.215-0.051 1.829-0.081 1.416-0.080 2.815-0.18 4.214-0.296 1.406-0.116 2.803-0.249 4.192-0.405l-0.007-0.001 2.061-0.24c0.905-0.117 1.818-0.233 2.717-0.37 1.622-0.232 3.219-0.489 4.816-0.774 0.103-0.026 0.232-0.044 0.349-0.072l3.004-0.568 2.962-0.629c59.517-13.226 105.746-61.721 115.648-122.412l0.068-0.58 56.152-56.152c5.123-5.125 6.652-12.818 3.885-19.507-2.426-5.848-7.725-9.92-13.866-10.846l-2.676-0.199h-41.589l-0.004-75.794c0-3.374-0.046-6.736-0.137-10.089-0.035-1.503-0.086-3.013-0.149-4.512l-0.283-5.795c-0.089-1.708-0.199-3.425-0.325-5.134-0.238-3.353-0.528-6.686-0.85-10.014-0.1-1.071-0.212-2.139-0.33-3.217-0.34-3.122-0.722-6.236-1.14-9.335l-0.29-2.184c-0.493-3.477-1.041-6.944-1.627-10.399-0.164-0.987-0.335-1.983-0.52-2.99-0.541-2.968-1.107-5.907-1.718-8.834l-0.494-2.395c-1.571-7.346-3.374-14.602-5.383-21.769l-0.811-2.855c-2.068-7.128-4.347-14.139-6.825-21.059l-0.501-1.383c-0.047-0.129-0.095-0.263-0.146-0.386-19.649-53.817-51.889-101.573-93.153-139.706-0.274-0.257-0.458-0.436-0.644-0.602-5.827-5.347-11.821-10.508-17.99-15.469-0.988-0.798-1.983-1.596-2.996-2.392l-4.185-3.234-4.699-3.528c-0.058-0.039-0.115-0.079-0.173-0.129-3.127-2.299-6.31-4.566-9.54-6.782-0.475-0.327-0.945-0.644-1.416-0.96-10.224-6.96-20.835-13.404-31.799-19.29l-3.859-1.999 1.572 0.787c-3.429-1.815-6.898-3.575-10.395-5.278l242.39 0.006c9.885 0 17.899-8.012 17.899-17.899 0-8.988-6.621-16.429-15.26-17.706l-2.649-0.191h-246.64l39.946-39.948h21.23c48.603 0 88.466-38.186 91.153-86.129l0.143-5.177v-28.645c0-8.988-6.621-16.429-15.26-17.706l-2.649-0.191h-28.645c-48.603 0-88.466 38.186-91.153 86.129l-0.143 5.177v21.228l-65.274 65.274-193.983-0.019c-33.137-18.202-68.571-31.268-105.050-39.030l-13.727-2.659-98.307-98.307c-25.509-25.512-59.106-38.278-92.722-38.278-33.342 0-66.679 12.558-92.141 37.71-3.391 3.35-5.309 7.91-5.326 12.684-0.016 3.813 1.195 7.501 3.403 10.554l1.838 2.158 89.461 89.459c-21.141 7.464-41.829 16.82-61.789 28.209-4.852 2.76-8.13 7.636-8.878 13.163-0.619 4.61 0.587 9.246 3.283 12.944l1.798 2.098 571.067 571.081c26.632 26.632 61.489 42.050 98.846 43.866l7.498 0.18zM766.878 138.453h-10.739v-10.739c0-29.143 22.585-53.115 51.17-55.332l4.332-0.17h10.739v10.739c0 30.603-24.899 55.5-55.5 55.5zM426.108 344.54h-57.277l28.638-57.277 28.638 57.277zM311.555 344.54h-57.277l28.638-57.277 28.638 57.277zM483.385 401.816h-57.277l28.638-57.277 28.638 57.277zM368.832 401.816h-57.277l28.638-57.277 28.638 57.277zM540.662 459.093h-57.277l28.638-57.277 28.638 57.277zM426.108 459.093h-57.277l28.638-57.277 28.638 57.277zM483.385 516.37h-57.277l28.638-57.277 28.638 57.277zM540.662 573.647h-57.277l28.638-57.277 28.638 57.277zM769.769 745.477c7.535 0 14.917-3.065 20.245-8.393 5.331-5.328 8.393-12.71 8.393-20.245 0-7.538-3.065-14.917-8.393-20.248-5.355-5.331-12.71-8.39-20.245-8.39-7.538 0-14.92 3.065-20.248 8.39-5.359 5.331-8.39 12.71-8.39 20.248 0 7.535 3.035 14.917 8.39 20.245 5.328 5.331 12.71 8.393 20.248 8.393zM695.319 282.717l9.915 5.083c3.156 1.683 6.279 3.425 9.38 5.225l3.231 1.9 0.283 0.18 3.691 2.226 3.87 2.408 1.004 0.663-0.633-0.398 4.881 3.148c1.719 1.136 3.424 2.292 5.114 3.456 3.888 2.673 7.7 5.434 11.465 8.286l0.018 0.026 1.684 1.266 0.003 0.023 1.574 1.203c1.091 0.85 2.177 1.702 3.256 2.561l-3.144-2.475c2.241 1.746 4.463 3.527 6.667 5.331l-0.001-0.003c44.632 36.66 79.194 85.123 98.919 140.625l1.212 3.578 0.715 2.035 0.514 1.541 0.232 0.842 0.199 0.633 0.715 2.238 1.060 3.283 0.745 2.552 0.521 1.719 0.487 1.808 0.304 0.953-0.222-0.606 0.316 1.090 1.562 5.692c0.535 2.065 1.043 4.136 1.527 6.207l0.028 0.211 1.107 4.809 0.526 2.585-0.398-1.746 0.633 2.953 1.172 5.812 0.049 0.194 0.9 5.243-0.258-1.571 0.291 1.571c0.293 1.753 0.581 3.513 0.85 5.278l1.21 8.937 0.117 0.949 0.375 3.211 0.091 0.679 0.132 1.261 0.283 3.053 0.059 0.574 0.117 1.207 0.068 0.663 0.427 5.439 0.275 4.301-0.16-2.017 0.232 3.808 0.283 6.078 0.17 10.497v138.686c0 63.182-51.406 114.589-114.591 114.589-27.718 0.002-54.4-10.039-75.178-28.105l-2.962-2.669-2.882-2.787-119.358-119.372c46.28-52.358 71.531-119.033 71.431-189.684-0.113-76.604-29.973-148.585-84.088-202.708-6.884-6.884-13.995-13.458-21.298-19.714l-11.1-9.164 43.911 0.032 4.804 0.107c6.58 0.192 13.138 0.592 19.652 1.181 8.885 0.803 17.704 1.983 26.445 3.512l13.035 2.561 3.48 0.784 2.828 0.644c1.54 0.371 3.074 0.747 4.61 1.142l-2.263-0.543c6.727 1.671 13.401 3.55 19.997 5.643l3.731 1.218 2.953 1.004-2.238-0.773 2.339 0.768 2.086 0.747c9.204 3.222 18.259 6.876 27.132 10.933l7.914 3.745z" />
<glyph unicode="&#xe00d;" glyph-name="iconic-actinopterygii" d="M512.007 929.727l6.74-4.073 0.292-0.151c29.575-16.636 55.938-35.709 79.129-56.81 40.693-35.537 69.915-74.215 87.533-116.038 17.785-36.161 29.8-74.858 36.141-115.045 57.046-9.041 97.241-39.886 118.973-92.043 3.078-7.386-0.484-15.865-7.915-18.835l-116.364-46.535c-17.525-69.342-58.078-138.23-131.561-224.677l-9.095-10.596-16.771-19.049-8.77-9.744-9.032-9.899-10.372-11.13 2.718-0.331c123.203-15.146 192.616-87.074 205.182-212.72 0.844-8.445-5.787-15.771-14.273-15.771-115.503 0-187.489 70.439-213.882 207.001-26.349-136.561-98.337-207.001-213.84-207.001-8.486 0-15.118 7.326-14.273 15.771 12.736 127.374 83.898 199.539 210.292 213.313l-1.089 1.23-18.621 20.645-4.489 5.070-4.426 5.032-17.056 19.786c-2.37 2.797-4.708 5.573-7.015 8.34l-0.655-1.433-2.8 5.589c-69.29 83.665-109.772 152.833-128.057 220.124l-117.547 46.986c-7.431 2.973-10.99 11.449-7.915 18.835 21.828 52.385 62.281 83.27 119.727 92.184 5.21 29.79 13.812 59.183 25.663 87.52 19.946 68.224 68.933 128.568 146.356 181.102 6.397 4.464 12.954 8.773 19.671 12.926l17.398 10.431zM681.634 684.857c-40.556-48.626-97.487-73.084-169.627-73.084-71.377 0-127.865 23.942-168.335 71.549-12.005-37.323-18.142-76.068-18.142-114.581 0-12.682 0.738-25.256 2.269-37.816l63.023-18.093-42.353-61.777c1.716-4.341 3.531-8.702 5.452-13.093l78.088-9.584-33.511-70.384c2.93-4.398 5.959-8.835 9.086-13.318l70.885-8.713-24.727-51.918c6.721-8.216 13.744-16.585 21.069-25.122l11.22-12.934 17.929-20.15 8.127-8.931 7.755 8.367 17.635 19.439c11.080 12.385 21.488 24.369 31.255 36.002l-26.3 55.247 76.498 9.407c1.918 2.723 3.798 5.428 5.637 8.115l-35.675 74.893 83.34 10.227c1.13 2.674 2.221 5.337 3.274 7.997l-45.424 66.228 66.52 19.079c0.684 6.516 1.174 13.068 1.479 19.675l0.325 9.956 0.068 7.196c0 38.48-5.149 76.064-15.546 111.835l-1.301 4.284zM298.79 607.855l-5.096-1.102c-31.426-7.585-55.129-23.798-71.658-48.797l-3.688-5.926-2.404-4.321 85.341-34.135c-3.004 18.282-4.439 36.584-4.439 55.161 0 13.037 0.651 26.094 1.946 39.116zM725.482 607.843l0.040-0.498c1.1-12.759 1.649-25.637 1.649-38.606 0-18.745-1.249-36.96-3.917-54.953l84.815 33.929-2.404 4.321c-17.398 29.714-43.862 48.239-80.18 55.807zM468.975 769.557c-23.765 0-43.031-19.266-43.031-43.031s19.266-43.031 43.031-43.031c23.765 0 43.031 19.266 43.031 43.031s-19.266 43.031-43.031 43.031z" />
<glyph unicode="&#xe00e;" glyph-name="iconic-reptilia" d="M723.982 785.263l12.917-0.188c55.509-1.394 76.935-10.011 107.124-42.945 4.107-4.476 7.162-6.352 10.932-7.353l3.343-0.679 3.44-0.483c18.684-2.465 29.718-6.846 46.419-22.158 5.040-4.615 8.72-11.087 11.048-18.406 17.915 0.011 32.624-8.191 42.746-23.951l44.328-11.42c7.317-1.878 11.716-9.336 9.847-16.637-1.693-6.583-7.901-10.813-14.445-10.226l-2.192 0.378-21.695 5.546c2.89-7.106 4.95-13.368 6.175-18.824 1.667-7.359-2.941-14.692-10.307-16.355s-14.692 2.941-16.355 10.307c-1.98 8.731-7.44 21.886-16.382 39.055-4.801 9.216-10.747 13.933-19.123 14.709-1.284-12.331-5.838-23.9-13.638-31.055-11.449-10.479-33.522-14.396-67.659-13.745l-6.547 0.176-22.651-0.013c-1.372-49.367-14.152-91.221-45.179-137.503-21.698-32.383-48.726-57.66-80.933-75.77l-0.023-64.405 31.909-0.006c19.015 0 34.639-14.565 36.309-33.136v0l0.146-3.312c0-20.131-16.324-36.452-36.452-36.452v0h-68.359c-20.131 0-36.452 16.324-36.452 36.452l0.075-2.071-2.006 7.735-4.615 18.509c-0.726 2.993-1.415 5.939-2.091 8.838v0l-3.772 16.867c-1.748 8.207-3.284 16.005-4.607 23.398l-162.872 0.017c-4.197-9.394-9.41-19.505-15.623-30.367v0l-3.772-6.437 30.675-0.023c19.015 0 34.639-14.565 36.309-33.136v0l0.146-3.312c0-20.131-16.324-36.452-36.452-36.452v0h-113.925c-20.131 0-36.452 16.324-36.452 36.452 0 4.067 0.673 8.076 1.977 11.867l-0.418-1.421 3.603 20.545 3.292 17.9 3.227 16.584 1.604 7.823-113.524-0.011c-39.499 0-74.59-34.069-74.59-80.865 0-33.753 19.275-60.974 59.081-82.283 2.482-1.138 6.326-2.278 11.449-3.418l6.769-1.372 7.983-1.372 9.167-1.372 10.307-1.372 11.449-1.372 19.224-2.043 69.527-6.263c37.198-3.424 60.864-21.346 61.079-46.089 0.188-22.598-19.935-40.021-46.6-41.553l-3.856-0.107h-141.006c-89.526 0-185.577 79.036-185.577 181.319 0 133.34 91.81 233.558 220.486 233.543 48.847-2.61 100.2 5.715 154.146 25.072 6.609 2.379 13.733 5.141 21.368 8.307l11.825 5.040 12.595 5.627c2.173 0.989 4.362 2.001 6.59 3.043l13.744 6.521 14.509 7.114 15.273 7.708 16.036 8.3 16.798 8.893 17.558 9.485 18.318 10.077 19.076 10.669 19.834 11.261 20.59 11.852 21.346 12.442 20.567 12.12-0.003 0.732c-0.908 61.209 22.197 95.431 69.002 95.431l6.906-0.023zM717.076 757.945c-28.736 0-42.523-20.177-41.675-68.116l0.146-5.443v-39.712c0-7.552-6.124-13.676-13.676-13.676-6.799 0-12.43 4.956-13.492 11.449l-0.184 2.212-0.023 12.84-17.901-10.528-15.117-8.747-3.678-65.987-65.797 23.26-2.549-46.054-54.565 19.295-2.974-56.816-64.743 24.263 2.089 1.352-3.561-1.566-11.79-4.872c-1.906-0.766-3.772-1.495-5.621-2.212l-10.675-3.986c-57.245-20.552-112.217-29.453-164.116-26.67-112.284 0-192.408-87.467-192.408-206.22 0-84.094 79.347-151.131 153.5-153.885l4.727-0.090h141.006c14.492 0 23.17 7.064 23.108 14.090-0.065 7.679-10.096 15.75-31.762 18.598l-6.727 0.694-60.448 5.387-21.779 2.212-12.947 1.484-11.724 1.499-10.526 1.537c-1.667 0.267-3.266 0.529-4.826 0.79l-8.795 1.638c-9.609 1.959-16.941 4.091-22.216 6.516-48.848 26.122-74.272 62.044-74.272 106.774 0 60.358 44.902 105.639 97.416 108.1l4.522 0.107 119.545 0.011 0.139 0.529 2.98 11.989 2.925 10.682 2.768 9.121c12.699 39.361 39.572 56.709 74.946 56.709 34.436 0 54.207-33.231 48.471-76.475-0.529-3.958-1.367-8.125-2.507-12.505l148.847-0.006c-1.453 12.419-2.057 23.266-1.815 32.553v0l0.188 4.318c2.814 47.907 15.834 69.835 47.831 69.835 30.338 0 47.845-17.517 47.845-47.845v0l0.023-26.578c20.673 13.828 38.602 31.369 53.867 52.656l4.346 6.263c27.859 41.573 39.192 78.241 40.536 122.276l-30.76 0.016c-7.552 0-13.676 6.124-13.676 13.676 0 6.799 4.956 12.43 11.449 13.492l2.212 0.184 81.213-0.012c7.805-0.267 14.858-0.276 21.109-0.073l8.793 0.446c13.662 0.996 22.287 3.206 25.363 6.015 6.892 6.31 6.892 30.238-0.006 36.56-10.985 10.073-16.846 12.925-27.992 14.692l-8.207 1.181c-0.665 0.107-1.288 0.225-1.903 0.338l-3.576 0.824c-8.919 2.342-16.528 7.022-24.125 15.316-21.61 23.587-36.026 31.327-72.858 33.525l-10.142 0.449-11.28 0.237c-3.958 0.054-8.124 0.066-12.526 0.066zM637.329 486.897c-10.827 0-16.298-5.88-19.056-27.355v0l-0.824-7.747c-0.24-2.786-0.457-5.776-0.652-8.989-0.939-15.905 1.537-38.981 7.482-69.043v0l2.977-14.363c0.533-2.472 1.097-4.998 1.67-7.558v0l3.723-15.843c0.652-2.721 1.339-5.489 2.043-8.287v0l4.451-17.31 0.448-3.489c0-5.040 4.076-9.117 9.117-9.117v0h68.359c5.040 0 9.117 4.076 9.117 9.117s-4.076 9.117-9.117 9.117v0h-59.242v150.374c0 15.244-5.272 20.514-20.514 20.514zM396.326 469.189c-24.078 0-40.078-10.331-48.932-37.759-0.414-1.284-0.832-2.637-1.255-4.025v0l-2.572-8.924-2.64-10.11c-0.441-1.79-0.903-3.613-1.35-5.504v0l-2.76-11.881-2.824-13.057-2.89-14.232-2.969-15.412-4.573-25.314-2.89-16.804 0.131-1.119c0.734-3.561 3.528-6.362 7.096-7.096v0l1.836-0.188h113.925c5.040 0 9.117 4.076 9.117 9.117s-4.076 9.117-9.12 9.117v0l-80.435 0.017 13.701 21.104c24.654 37.992 38.211 67.126 40.783 86.524 3.813 28.7-6.221 45.544-21.37 45.544zM739.866 739.798c12.584 0 22.791-10.2 22.791-22.791s-10.2-22.791-22.791-22.791c-12.584 0-22.791 10.2-22.791 22.791s10.2 22.791 22.791 22.791z" />
<glyph unicode="&#xe00f;" glyph-name="iconic-protozoa" d="M222.777 704.845c7.090 2.445 14.749-0.637 18.291-6.955l1.126-2.516 17.623-51.231c9.847 3.284 19.75 5.482 29.602 6.511l0.923 2.457 39.358 83.655c3.591 7.634 12.694 10.913 20.328 7.323 6.783-3.191 10.132-10.737 8.268-17.743l-0.947-2.593-34.957-74.228 1.493-0.269c16.612-3.23 32.29-9.033 46.612-17.073l46.416 31.209c7 4.715 16.495 2.852 21.203-4.148 4.186-6.223 3.185-14.416-2.006-19.47l-2.143-1.738-36.841-24.75c8.564-7.538 16.339-16.047 23.191-25.409l49.17 16.911c7.977 2.746 16.672-1.495 19.421-9.471 2.445-7.090-0.637-14.749-6.955-18.291l-2.516-1.126-44.112-15.208c4.32-11.237 6.294-21.892 5.933-33.279l67.661-13.486c8.274-1.649 13.647-9.692 12.002-17.966-1.463-7.356-7.981-12.417-15.226-12.297l-2.741 0.295-67.238 13.4c-2.095-6.778-4.787-14.010-8.071-21.869l-3.477-8.071-5.352-11.579 70.052-32.969c7.634-3.591 10.913-12.694 7.323-20.328-3.191-6.783-10.737-10.132-17.743-8.268l-2.593 0.947-70.464 33.148-5.273-10.808-6.039-12.922c-1.661-3.698-3.17-7.195-4.545-10.565l54.765-11.539c8.255-1.754 13.529-9.858 11.778-18.113-1.552-7.336-8.134-12.318-15.374-12.109l-2.741 0.327-58.065 12.28c-5.014-20.354-4.156-36.703 2.045-62.806l48.728 16.687c7.977 2.746 16.672-1.495 19.421-9.471 2.445-7.090-0.637-14.749-6.955-18.291l-2.516-1.126-51.077-17.609c0.393-1.67 0.767-3.321 1.113-4.949l71.235-15.078c8.255-1.754 13.529-9.858 11.778-18.113-1.552-7.336-8.134-12.318-15.374-12.109l-2.741 0.327-60.896 12.883c0.183-16.016-2.933-30.672-10.163-46.086l25.446-13.484c7.461-3.941 10.313-13.185 6.372-20.646-3.503-6.633-11.195-9.622-18.101-7.436l-2.539 1.064-28.336 14.958c-5.59-5.949-11.689-11.391-18.219-16.313l17.775-51.639c2.746-7.977-1.495-16.672-9.471-19.421-7.090-2.445-14.749 0.637-18.291 6.955l-1.126 2.516-15.642 45.427c-9.17-4.356-18.829-7.878-28.83-10.529l6.738-50.087c1.129-8.367-4.734-16.057-13.097-17.186-7.431-1.005-14.338 3.519-16.573 10.407l-0.613 2.692-6.59 48.963c-12.981-1.106-26.256-0.812-39.545 0.965l-14.272-31.785c-3.452-7.699-12.493-11.141-20.192-7.688-6.842 3.070-10.325 10.552-8.588 17.586l0.9 2.606 11.953 26.704c-8.786 3.452-17.097 8.009-24.894 13.586l-54.21-36.459c-7-4.715-16.495-2.852-21.203 4.148-4.186 6.223-3.185 14.416 2.006 19.47l2.143 1.738 48.092 32.334c-9.138 10.484-17.254 22.71-24.267 36.467l-34.398-19.858c-7.307-4.217-16.657-1.715-20.87 5.592-3.75 6.494-2.191 14.599 3.334 19.283l2.254 1.587 37.581 21.679c-7.035 19.782-12.216 41.797-15.363 65.611l-51.852-4.039c-8.416-0.658-15.769 5.63-16.42 14.042-0.583 7.474 4.32 14.117 11.328 15.962l2.719 0.46 51.383 4.024c-0.639 11.222-0.866 22.761-0.654 34.581l-51.94 10.999c-8.255 1.754-13.529 9.858-11.778 18.113 1.552 7.336 8.134 12.318 15.374 12.109l2.741-0.327 47.099-9.971c0.66 8.443 1.527 17.003 2.611 25.669 0.053 0.417 0.107 0.844 0.162 1.263l-48.616 10.285c-8.255 1.754-13.529 9.858-11.778 18.113 1.552 7.336 8.134 12.318 15.374 12.109l2.741-0.327 47.599-10.074c3.72 16.527 8.644 32.458 14.59 47.648l-50.121 24.454c-7.582 3.699-10.731 12.846-7.030 20.429 3.286 6.74 10.879 9.979 17.852 8.017l2.577-0.982 49.206-23.999c5.237 10.367 10.957 20.287 17.088 29.702l-30.081 45.421c-4.661 7.030-2.741 16.512 4.295 21.175 6.251 4.143 14.432 3.082 19.453-2.143l1.722-2.152 23.87-35.981c5.52 6.723 11.262 13.082 17.184 19.050l-24.636 42.713c-4.217 7.307-1.715 16.657 5.592 20.87 6.494 3.75 14.599 2.191 19.283-3.334l1.587-2.254 21.508-37.236c9.059 7.058 18.398 13.235 27.909 18.441l-18.454 53.628c-2.746 7.977 1.495 16.672 9.471 19.421zM250.55 267.891c-20.192-6.952-30.922-28.956-23.97-49.148s28.956-30.922 49.148-23.97c20.192 6.952 30.922 28.956 23.97 49.148s-28.956 30.922-49.148 23.97zM203.991 442.693c-26.922-9.269-41.233-38.61-31.96-65.53s38.61-41.233 65.53-31.96c26.922 9.269 41.233 38.61 31.96 65.53s-38.61 41.233-65.53 31.96zM255.726 569.563c-20.192-6.952-30.922-28.956-23.97-49.148s28.956-30.922 49.148-23.97c20.192 6.952 30.922 28.956 23.97 49.148s-28.956 30.922-49.148 23.97zM600.123 310.301c-5.396 5.204-13.638 5.654-19.515 1.427l-2.086-1.799-46.046-47.682c-5.86-6.070-5.694-15.741 0.376-21.602 5.396-5.204 13.638-5.654 19.515-1.427l2.086 1.799 46.046 47.682c4.706 4.87 5.524 12.068 2.527 17.743-0.471 0.636-0.889 1.291-1.303 1.947l-1.606 1.91zM643.117 266.983c-2.988 1.936-5.894 3.97-8.703 6.097-5.34 1.468-11.144-0.16-14.99-4.286l-1.691-2.179-35.496-55.309c-4.559-7.101-2.49-16.554 4.608-21.108 6.312-4.051 14.486-2.872 19.421 2.429l1.691 2.179 35.496 55.309c3.037 4.734 3.136 10.513 0.758 15.188zM586.492 355.651l-2.754 0.11-56.465-2.808c-8.426-0.417-14.92-7.59-14.499-16.016 0.368-7.49 6.081-13.451 13.262-14.389l2.754-0.11 56.465 2.808c2.524 0.121 4.873 0.858 6.917 2.050-2.17 5.277-3.859 10.686-5.11 16.195l0.184-0.724-0.437 5.212c-0.164 2.638-0.227 5.19-0.195 7.669-0.005-0.003-0.067 0.006-0.121 0.014zM701.345 245.185c-4.257 0.352-8.469 1.042-12.634 2.081-4.809 1.201-9.529 2.624-14.132 4.255-1.547-1.853-2.609-4.087-3.089-6.535l-0.286-2.741-0.836-56.531c-0.121-8.437 6.613-15.376 15.050-15.503 7.499-0.112 13.816 5.202 15.217 12.309l0.286 2.741 0.836 56.531-0.206 2.748zM734.186 238.45c-6.425-3.876-8.978-11.718-6.408-18.49l1.207-2.48 34.423-57.127c4.355-7.232 13.746-9.555 20.97-5.204 6.425 3.876 8.978 11.718 6.408 18.49l-1.207 2.48-34.423 57.127c-4.355 7.232-13.746 9.555-20.97 5.204zM588.393 426.5l-2.62 0.861-73.215 16.949c-8.219 1.902-16.426-3.218-18.335-11.437-1.693-7.307 2.166-14.603 8.817-17.471l2.62-0.861 73.215-16.949c8.219-1.902 16.426 3.218 18.335 11.437 1.693 7.307-2.166 14.603-8.817 17.471zM568.968 491.407c-6.070 5.86-15.741 5.694-21.602-0.376-5.204-5.396-5.654-13.638-1.427-19.515l1.799-2.086 46.358-44.767c6.070-5.86 15.741-5.694 21.602 0.376 5.204 5.396 5.654 13.638 1.427 19.515l-1.799 2.086-46.358 44.767zM801.092 293.424l-0.897-0.996c-6.697-6.951-13.528-13.192-20.439-18.683l-0.012-0.029 1.373-2.391 38.727-55.316c4.839-6.912 14.366-8.593 21.278-3.753 6.146 4.302 8.155 12.308 5.126 18.886l-1.373 2.391-38.727 55.316c-1.366 1.947-3.108 3.486-5.056 4.575zM659.382 537.119l-2.62 0.861-73.215 16.949c-8.219 1.902-16.426-3.218-18.335-11.437-1.693-7.307 2.166-14.603 8.817-17.471l2.62-0.861 73.215-16.949c6.319-1.462 12.63 1.224 16.075 6.282 0.733 4.589 1.31 9.107 1.754 13.741-1.419 3.944-4.376 7.191-8.313 8.89zM655.402 610.393l-2.746 0.236-92.449-0.313c-8.438-0.027-15.255-6.89-15.226-15.328 0.027-7.5 5.455-13.72 12.582-14.988l2.746-0.236 92.449 0.313c8.438 0.027 15.255 6.89 15.226 15.328-0.027 7.5-5.455 13.72-12.582 14.988zM924.219 321.495l-2.27 1.564-59.619 33.682c-5.128 2.896-11.219 2.509-15.839-0.487-2.223-4.111-4.533-8.058-6.882-11.906-0.335-4.749 1.634-9.502 5.419-12.647l2.27-1.564 59.619-33.682c7.346-4.151 16.665-1.558 20.816 5.788 3.688 6.531 2.051 14.621-3.518 19.252zM657.673 682.2l-2.609 0.892-74.543 18.232c-8.196 2.003-16.464-3.015-18.471-11.211-1.782-7.284 1.987-14.634 8.603-17.579l2.609-0.892 74.543-18.232c8.196-2.003 16.464 3.015 18.471 11.211 1.782 7.284-1.987 14.634-8.603 17.579zM953.522 396.41l-2.62 0.861-73.215 16.949c-1.327 0.308-2.653 0.43-3.955 0.389-3.369-8.888-6.931-17.409-10.651-25.629 1.371-1.562 3.108-2.814 5.095-3.672l2.62-0.861 73.215-16.949c8.219-1.902 16.426 3.218 18.335 11.437 1.693 7.307-2.166 14.603-8.817 17.471zM970.792 451.404l-2.62 0.861-73.215 16.949c-1.377 0.323-2.753 0.44-4.102 0.383-1.995-9.255-4.477-18.495-7.451-27.714-0.041-0.129-0.083-0.261-0.121-0.39 0.676-0.471 1.404-0.859 2.165-1.187l2.62-0.861 73.215-16.949c8.219-1.902 16.426 3.218 18.335 11.437 1.693 7.307-2.166 14.603-8.817 17.471zM654.655 767.010c-6.070 5.86-15.741 5.694-21.602-0.376-5.204-5.396-5.654-13.638-1.427-19.515l1.799-2.086 47.682-46.046c3.25-3.137 7.532-4.549 11.713-4.249l0.876 0.81 3.655 2.897c2.638 1.777 5.343 3.447 8.092 5.011 2.445 4.908 1.967 10.877-1.31 15.425l-1.799 2.086-47.682 46.046zM985.667 543.929l-2.749 0.198-58.318-1.016c-8.436-0.147-15.157-7.106-15.009-15.542 0.13-7.499 5.645-13.647 12.793-14.811l2.749-0.198 58.318 1.016c8.436 0.147 15.157 7.106 15.009 15.542-0.13 7.499-5.645 13.647-12.793 14.811zM706.099 803.094c-6.425-3.876-8.978-11.718-6.408-18.49l1.207-2.48 34.423-57.127c2.328-3.864 6.097-6.328 10.198-7.119 3.194 0.637 6.396 1.080 9.617 1.401l1.156 0.516c6.425 3.876 8.978 11.718 6.408 18.49l-1.207 2.48-34.423 57.127c-4.355 7.232-13.746 9.555-20.97 5.204zM958.227 633.049l-2.471-1.223-58.406-35.745c-2.324-1.421-4.132-3.366-5.369-5.588 1.339-6.152 2.424-12.463 3.292-18.886 4.194-3.754 10.222-4.878 15.557-2.811l2.471 1.223 58.406 35.745c7.196 4.405 9.46 13.808 5.056 21.005-3.916 6.396-11.78 8.898-18.534 6.281zM936.633 688.532l-2.391-1.373-55.316-38.727c-1.91-1.338-3.423-3.037-4.507-4.934 3.432-7.052 6.462-14.477 9.151-22.225 3.388-1.025 7.128-0.795 10.489 0.754l2.391 1.373 55.316 38.727c6.912 4.839 8.593 14.366 3.753 21.278-4.302 6.146-12.308 8.155-18.886 5.126zM920.532 753.419c-5.396 5.204-13.638 5.654-19.515 1.427l-2.086-1.799-46.046-47.682c-5.86-6.070-5.694-15.741 0.376-21.602 5.396-5.204 13.638-5.654 19.515-1.427l2.086 1.799 46.046 47.682c5.86 6.070 5.694 15.741-0.376 21.602zM821.789 842.763c-7.5-0.027-13.72-5.455-14.988-12.582l-0.236-2.746 0.313-92.449c0.027-8.438 6.89-15.255 15.328-15.226 7.5 0.027 13.72 5.455 14.988 12.582l0.236 2.746-0.313 92.449c-0.027 8.438-6.89 15.255-15.328 15.226zM589.652 435.703l8.952 10.802c22.579 27.119 31.798 42.737 36.273 67.376 2.272 12.503 3.318 24.369 3.526 39.858l-0.011 14.264-0.785 37.137 0.059 18.213c1.023 52.574 10.345 76.037 41.946 99.952 37.166 25.007 82.309 33.307 125.794 22.466 95.011-23.689 152.565-172.183 107.078-313.262-47.709-147.972-143.099-236.848-231.166-214.889-62.038 15.473-111.131 62.018-124.057 119.121l-0.284 1.697c-4.32 39.114 6.105 64.626 32.672 97.271zM586.812 347.972l0.437-5.212-0.184 0.724c10.277-45.392 50.405-83.442 101.647-96.219 68.548-17.092 151.284 59.997 194.692 194.618 40.557 125.787-9.665 255.357-85.39 274.239-35.015 8.728-71.29 2.058-100.659-17.681-20.298-15.381-27.553-31.511-28.963-69.6l-0.261-12.784 0.072-14.391 0.601-25.343 0.197-16.426c-0.001-20.378-1.117-35.237-4.069-51.481-5.213-28.698-15.443-47.55-37.178-74.537l-14.411-17.465c-20.315-24.963-28.146-42.352-26.536-68.445zM844.107 655.727c21.432-20.697 22.028-54.847 1.331-76.275s-54.847-22.028-76.275-1.331c-21.432 20.697-22.028 54.847-1.331 76.275s54.847 22.028 76.275 1.331zM822.881 633.745c-9.293 8.972-24.099 8.713-33.072-0.576s-8.713-24.099 0.576-33.072c9.293-8.972 24.099-8.713 33.072 0.576s8.713 24.099-0.576 33.072zM837.381 518.883c26.551-25.639 27.29-67.95 1.651-94.501s-67.95-27.29-94.501-1.651c-26.551 25.639-27.29 67.95-1.651 94.501s67.95 27.29 94.501 1.651zM816.159 496.902c-14.412 13.918-37.384 13.516-51.3-0.896s-13.516-37.384 0.896-51.3c14.412-13.918 37.384-13.516 51.3 0.896s13.516 37.384-0.896 51.3zM721.311 380.128c21.432-20.697 22.028-54.847 1.331-76.275s-54.847-22.028-76.275-1.331c-21.432 20.697-22.028 54.847-1.331 76.275s54.847 22.028 76.275 1.331zM700.083 358.151c-9.293 8.972-24.099 8.713-33.072-0.576s-8.713-24.099 0.576-33.072c9.293-8.972 24.099-8.713 33.072 0.576s8.713 24.099-0.576 33.072z" />
<glyph unicode="&#xe010;" glyph-name="iconic-plantae" d="M890.271 872.452c4.591 0.177 9.059-1.541 12.336-4.745 3.289-3.213 5.074-7.645 4.929-12.224l-0.406-8.948c-0.094-1.674-0.205-3.444-0.334-5.296l-1.563-18.854-1.56-14.758c-3.787-33.054-9.697-66.989-18.194-100.148-24.057-93.862-63.979-164.505-123.829-198.458-24.945-14.119-53.258-21.418-82.164-21.149-39.986 1.551-79.098 11.577-114.588 29.264-29.052-41.738-49.889-79.904-57.024-108.466l-0.515-2.017-0.527-2.015-2.315-8.423-4.109-13.999-6.34-22.195c-2.521-9.615-4.276-18.009-5.418-26.281 74.266-10.372 133.681-53.246 150.288-110.384 79.723-8.829 138.85-60.417 138.85-122.721v-0.72c-1.155-42.934-36.037-76.961-78.291-76.38h-468.829c-42.172-0.552-76.991 33.368-78.236 76.217 0 55.545 46.613 103.399 114.503 119.282 16.99 67.31 95.323 117.178 186.629 117.178l1.727-0.028-3.5-10.109c-20.637-61.257-32.791-117.673-34.538-169.29l-0.22-12.807c1.688-8.406 6.735-12.601 15.14-12.601s13.801 4.203 16.197 12.601v0l0.185 11.98c0.934 29.983 6.492 63.646 15.381 99.008 34.675-53.525 64.755-110.777 78.031-157.753l3.082-11.582c5.601-5.797 11.646-7.882 18.12-6.272s10.572 6.234 12.283 13.851c-13.318 53.415-55.032 131.429-92.776 190.407l-7.474 11.477c4.195 13.611 8.788 27.352 13.718 41.123v0l-31.776 5.272-0.546-1.486 0.553 3.517c1.235 7.406 2.909 15.042 5.096 23.498l2.362 8.749 7.107 24.582c-0.818 1.299-1.534 2.546-2.091 3.899l-1.201 2.914-1.193 2.841-4.766 10.779-4.909 10.062c-8.221 15.997-17.849 30.471-33.044 49.803l-5.97 7.494-6.343 7.721c-32.171-26.050-64.384-39.26-96.216-39.26-9.868 0.021-19.696 1.299-29.231 3.801-48.518 12.58-90.17 55.127-125.284 117.254-17.82 31.532-31.079 62.537-39.655 86.993l-4.581 13.838c-1.378 4.45-0.875 9.282 1.401 13.344 2.28 4.077 6.133 7.019 10.648 8.103 119.784 28.877 207.162 19.13 259.467-29.578 26.758-24.914 41.632-57.234 47.303-93.364 3.468-22.096 3.003-41.042 1.201-53.517-0.308-2.073-0.994-4.057-2.006-5.848l27.229-35.265 6.74-9.226 5.66-8.224 2.571-3.941c3.158-4.943 6.052-9.842 8.813-14.968 11.575 27.246 30.333 59.136 53.792 92.893-6.080 15.117-12.336 37.199-15.396 63.269-5.682 48.479 2.223 95.376 28.52 137.045 50.331 79.67 159.183 124.089 323.286 132.605l13.81 0.625zM164.293 647.883c30.991-74.855 73.292-135.914 124.603-153.001l6.225-1.841c29.974-7.773 61.891 1.619 95.323 28.367-14.243 14.601-39.587 32.036-70.589 50.102l-8.59 4.941-18.194 10.079-4.693 2.521-4.742 2.521-19.393 10.056-4.942 2.498-4.969 2.487-20.136 9.84-5.075 2.421-5.089 2.41-20.409 9.431-10.194 4.585-20.236 8.838-8.905 3.75zM871.114 817.107l-3.010-1.631c-39.312-21.867-86.988-59.93-134.672-105.080l-10.215-9.783-17.159-16.904-8.53-8.631-8.486-8.735-16.793-17.744c-9.254-9.944-18.358-20.009-27.25-30.127l-13.178-15.209-15.318-18.279-14.704-18.226c-5.846-7.391-11.514-14.738-16.983-22.024l-6.743 3.164c63.509-30.834 117.523-35.213 161.133-13.413l5.881 3.136c45.935 26.026 79.218 80.67 101.525 155.225 12.406 41.472 20.206 84.499 24.505 124.272zM182.068 676.39l6.934-2.775 20.749-8.612c27.517-11.598 53.352-23.259 77.704-35.313 52.319-25.906 92.623-51.071 117.468-75.265-0.388 5.597-0.995 11.399-1.948 17.329l-1.636 8.728c-5.524 25.709-16.846 48.095-35.294 65.203-37.139 34.456-98.799 44.859-183.977 30.695zM836.452 835.91l-9.859-1.036c-124.091-13.519-206.357-51.595-245.193-113.099-19.967-31.636-27.14-67.697-24.422-105.874 1.127-15.79 3.788-30.544 7.28-43.687 18.83 24.913 39.689 50.331 61.645 75.261l16.66 18.585 16.946 18.256 8.57 8.993 8.619 8.887 17.333 17.413c49.607 48.928 100.046 90.972 142.429 116.312z" />
<glyph unicode="&#xe011;" glyph-name="iconic-mollusca" d="M512.258 840.012c36.179 0 64.59-9.819 84.655-29.13l80.872-4.785c42.473-2.51 80.691-28.081 99.737-66.734 4.19-8.513 6.959-18.598 8.355-30.064 37.993-5.89 114.592-22.91 114.592-105.113 0-3.711-0.097-7.476-0.275-11.269 25.81-15.51 47.756-37.863 62.577-63.985 18.522-32.66 24.193-69.023 15.976-102.402-3.72-15.104-9.671-29.442-17.673-42.658-0.025-0.036-0.047-0.074-0.074-0.123-0.069-0.121-0.135-0.221-0.206-0.341l-0.613-1.001-0.319-0.45c-0.194-0.27-0.386-0.554-0.6-0.809-0.025-0.025-0.035-0.058-0.064-0.077-3.7-4.533-69.593-84.41-196.874-177.986v-42.445c0-57.703-46.118-104.649-102.798-104.649-42.215 0-64.476 24.304-78.704 32.155-8.796-4.778-17.756-9.531-26.732-14.187-26.147-13.55-56.666-12.926-81.604 0.053-9.581 4.985-19.409 10.206-29.305 15.559-15.804-8.791-38.073-33.574-80.786-33.574-57.266 0-103.865 46.947-103.865 104.644v42.58c-121.854 85.857-199.418 166.944-213.291 223.303-8.327 33.821-2.288 69.334 17.46 102.704 15.326 25.899 37.675 48.168 63.73 63.712-0.178 3.789-0.275 7.544-0.275 11.246 0 82.213 76.611 99.225 114.589 105.11 1.397 11.468 4.175 21.557 8.355 30.064 19.037 38.642 57.259 64.215 99.745 66.719l78.725 4.662c20.018 19.408 48.446 29.28 84.715 29.28zM295.287 178.075v-17.421c0-37.121 30.1-67.31 67.096-67.31 25.469 0 40.008 14.156 44.335 16.441-39.083 22.174-76.388 45.034-111.431 68.296zM725.543 176.967c-34.919-24.091-71.215-47.020-108.47-68.484 3.112-1.603 17.618-15.145 42.436-15.145 36.406 0 66.032 30.201 66.033 67.31zM512.265 802.694c-29.139 0-49.663-7.355-62.712-22.474-47.379-54.714-0.856-207.682 18.736-329.528 1.641-10.169-5.169-19.773-15.184-21.434-10.029-1.651-19.475 5.244-21.101 15.412-3.107 19.296-6.807 39.053-10.695 58.941l-4.724 23.911c-18.207 91.758-36.61 183.64-13.832 244.36l-51.787-3.063c-29.386-1.74-55.827-19.42-68.983-46.139-3.54-7.179-5.408-17.237-5.546-29.884-1.152-99.677 97.734-292.193 123.163-346.792 4.337-9.323 0.415-20.453-8.773-24.853-9.147-4.386-20.12-0.447-24.478 8.9-35.754 76.892-115.542 234.509-125.673 341.356-47.17-8.414-77.746-24.429-77.746-67.209 0-6.536 0.339-13.267 1.005-20.022 11.525-114.755 120.443-213.236 179.473-274.271 7.118-7.362 7.001-19.183-0.242-26.395-7.277-7.253-18.923-7.081-25.997 0.247-66.781 69.082-160.71 156.154-185.23 268.116-35.406-26.78-62.069-71.324-51.002-116.266 9.185-37.268 68.467-111.428 207.346-207.834 64.171-44.546 133.83-85.55 201.023-120.526 15.037-7.826 33.018-7.839 48.1-0.025 181.111 93.868 324.829 214.964 392.453 296.396 5.992 9.913 10.454 20.655 13.244 31.98 11.16 45.342-14.236 89.614-48.401 116.090-25.409-115.937-127.24-208.245-186.266-269.025-7.13-7.338-18.773-7.424-26-0.184-7.228 7.236-7.315 19.057-0.18 26.395 66.915 68.906 169.226 162.966 180.471 275.326 0.662 6.738 1.005 13.479 1.005 20.015 0 42.771-30.569 58.781-77.745 67.209-10.731-113.57-102.282-291.075-126.157-342.319-4.337-9.316-15.312-13.305-24.48-8.891-9.183 4.41-13.1 15.542-8.749 24.863 31.299 67.114 124.77 250.827 123.613 347.714-0.14 12.65-2.008 22.714-5.553 29.917-13.161 26.732-39.598 44.421-68.974 46.149l-53.826 3.187c29.77-79.167-10.66-211.379-29.28-327.36-1.468-9.156-9.278-15.66-18.124-15.66-0.982 0-1.985 0.075-2.978 0.247-10.021 1.656-16.829 11.248-15.188 21.432 5.027 31.338 11.835 64.688 18.375 97.886l3.875 19.879c17.141 89.231 29.368 174.145-3.503 211.87-13.116 15.058-33.642 22.37-62.736 22.37zM574.718 400.971c17.314 0 31.36-14.046 31.36-31.36s-14.046-31.36-31.36-31.36-31.36 14.042-31.36 31.36c0 17.314 14.046 31.36 31.36 31.36zM449.278 400.971c17.314 0 31.36-14.046 31.36-31.36s-14.046-31.36-31.36-31.36c-17.318 0-31.36 14.042-31.36 31.36 0 17.314 14.046 31.36 31.36 31.36z" />
<glyph unicode="&#xe012;" glyph-name="iconic-mammalia" d="M504.716 771.052c188.586 0 369.865-101.087 374.742-227.877 109.178-109.668 145.264-219.502 105.913-328.101-22.109-61.003-54.904-89.795-99.49-90.118-21.101-0.148-39.84 4.263-68.098 16.366l-7.271 3.183-11.974 5.512-3.171 1.508-3.252 1.554-13.791 6.747-38.13 19.122c-26.392 13.024-44.121 16.942-77.546 19.721l-7.41 0.584-4.583 0.383c-28.181 2.564-39.884 8.912-39.884 31.882 0 46.64 79.257 47.722 156.145 16.517l5.484-2.281 45.449-19.554 14.478-5.964 10.924-4.139 4.502-1.514 5.955-1.733 5.431-1.234 3.58-0.636 5.679-0.811c21.222-2.727 32.83 4.017 41.011 26.634 23.161 64.049 5.593 136.88-54.2 218.889-6.508-9.228-14.235-17.346-23.161-24.457-4.13-68.098-29.883-99.85-74.776-99.85h-282.633c-8.541 0-15.479 6.927-15.479 15.479l0.106 3.842c1.408 24.020 16.255 40.142 43.637 49.25l1.731 0.546c-38.306 8.145-79.22 20.394-119.393 35.761-16.416-42.829-45.564-86.398-68.663-86.398-26.412 0-40.769 15.311-38.866 39.010 0.864 10.703 4.504 22.272 11.413 37.861v0l5.108 11.018 2.927 6.023 7.175 14.357 5.571 11.24c-15.595 7.826-30.688 16.090-45.050 24.695l-0.748-2.604-1.717-5.721-3.614-11.162c-13.017-38.265-29.883-67.708-45.413-67.708-13.667 0-21.747 8.824-22.621 22.030-0.568 8.609 1.677 19.226 6.182 32.447 1.15 3.366 2.437 6.861 3.874 10.574l2.281 5.742 0.829 2.031 10.253 24.090 1.677 4.381c1.542 4.625 2.719 10.076 3.516 16.351-5.851 4.387-11.449 8.829-16.799 13.333l-8.003 6.927-8.281 7.223c-27.451 23.381-53.487 39.814-79.424 51.577-7.895 3.575-15.459 6.601-23.557 9.47l-8.299 2.837-24.494 7.976c-19.678 7.182-29.43 17.521-26.984 36.305 2.079 15.911 11.891 25.312 27.159 26.859 3.961 0.398 8.194 0.326 13.443-0.143l4.139-0.425 30.754-4.018c28.694-3.153 53.3-2.727 83.484 3.047 19.768 3.777 37.922 9.641 60.557 19.11l8.703 3.723 46.892 20.926c67.461 29.017 122.598 41.86 206.027 41.86zM875.444 502.622l-1.433-5.806c-0.95-3.575-2.006-7.047-3.177-10.413 68.787-89.391 93.293-171.758 72.030-246.69l-2.133-7.030-2.202-6.441c-12.62-34.873-36.43-49.937-69.293-47.308l-4.752 0.503-6.724 0.938-6.163 1.085-6.118 1.418-4.305 1.217-4.664 1.494-8.010 2.884-9.666 3.805-11.824 4.906-38.879 16.73-16.457 6.885c-28.796 11.207-58.257 17.365-81.275 17.365-18.476 0-27.25-3.5-28.492-6.090l-0.151-0.625 0.142-0.11 31.45-2.525c29.501-2.845 48.749-7.249 73.636-18.759l6.935-3.321 43.717-21.868 17.707-8.46 10.443-4.716 9.51-4.018 8.691-3.371c16.638-6.093 29.094-8.455 41.718-8.363 30.155 0.223 52.562 19.878 70.615 69.712 32.611 90.027 6.313 181.98-80.835 277.006zM719.457 536.060c-50.171 0-95.289-23.477-100.376-63.547-3.014-23.786 3.737-47.815 20.846-72.622 7.427-10.77-1.034-25.335-14.074-24.206l-8.339 0.674c-65.565 4.984-104.45-0.706-119.92-14.049l259.668-0.021c29.097 0 44.444 22.312 44.444 89.331 0 60.316-32.295 84.427-82.246 84.427zM363.964 568.849c-4.529 0-7.464-4.179-9.585-17.966v0l-0.99-7.719-0.612-6.328-1.677-21.841-0.708-8.216c-2.032-20.973-5.114-35.398-11.409-48.484v0l-10.52-21.141-6.259-12.713c-8.622-18.014-12.97-29.891-13.63-38.063v0l-0.142-2.958c0.083-1.877 0.856-2.41 3.686-2.564v0l4.466-0.060c1.273 0 4.079 2.969 7.733 7.935v0l3.898 5.593c0.689 1.029 1.394 2.11 2.118 3.222v0l4.454 7.168 4.625 7.954 4.637 8.518 4.504 8.864c4.381 8.966 8.321 18.119 11.126 26.492 18.759 56.035 15.903 112.319 4.302 112.319zM311.234 700.891l-10.16-4.453-29.663-13.346-16.605-7.208c-24.367-10.178-44.369-16.636-66.455-20.859-33.919-6.481-61.674-6.885-93.59-3.304l-10.803 1.339-25.229 3.289-2.466 0.1-2.039-0.193c-0.045-0.425-0.142-0.623 0.045-0.805l0.538-0.302 6.355-2.247 17.493-5.714 15.124-5.029c8.834-3.129 17.182-6.46 25.904-10.411 28.532-12.935 56.981-30.892 86.621-56.116l8.931-7.786 7.446-6.441c26.446-22.214 59.541-43.112 95.762-61.664 0.692 4.987 1.263 10.539 1.758 16.78v0l1.932 24.995c3.549 38.399 13.225 58.296 41.844 58.296 42.385 0 49.276-65.284 30.794-134.052 69.379-26.735 141.235-43.839 195.587-45.547l4.381-0.040c-6.604 18.678-8.743 37.417-6.36 56.238 7.56 59.548 67.264 90.605 131.075 90.605 58.337 0 102.648-28.371 111.562-91.047 9.328 13.934 15.008 30.907 17.062 51.32 4.556 45.385-21.193 89.028-65.606 124.843l-33.015-34.711-19.946 69.169c-2.56 1.352-5.145 2.685-7.755 3.981l-60.407-38.942-20.729 69.878c-1.624 0.455-3.252 0.898-4.875 1.331l-51.769-45.414-21.048 59.279c-0.86 0.1-1.717 0.195-2.564 0.297l-44.767-46.929-31.602 49.735c-67.316-1.979-114.848-14.034-172.768-38.913zM270.15 641.192c14.239 0 25.786-11.546 25.786-25.786s-11.546-25.786-25.786-25.786c-14.239 0-25.786 11.546-25.786 25.786s11.546 25.786 25.786 25.786z" />
<glyph unicode="&#xe013;" glyph-name="iconic-chromista" d="M656 838c-20-2-52-8-64-26-44-8-90-24-160-64v0l-2-2c-144-98-156-266-198-390-12-22-32-40-56-56-24-18-54-34-78-58-10-8-10-22-2-32 10-8 24-10 34 0 0 0 0 0 0 0 18 18 44 34 72 52 18 12 38 28 54 48 14-8 36-8 52-6 14 2 22 8 26 16 4-2 6-6 10-8 28-42 50-98 108-116 44-10 58-6 88 2 28 8 86 30 82 40-30 2-40 8-58 20s-26 32-36 58c-10 24-24 48-46 62-16 12-36 18-56 16-20 0-44-10-54-20-10-8-24-14-36-16-6 14-20 24-40 18-4 0-8-2-12-2 12 38 22 78 34 116 18-8 44-10 64-8s30 12 34 24c12-2 22-6 30-16 28-46 50-110 106-128 44-12 60-6 88 2s86 32 82 44c-32 2-40 10-58 22s-26 34-36 62c-10 28-24 54-46 70-16 14-36 20-56 18-20 0-42-10-54-24-10-12-32-20-50-18-2 0-4 0-4 0-6 20-24 36-48 30-8-2-18-4-28-8 22 54 54 104 106 142 4-20 30-36 50-46s36-2 46 12c8-4 16-8 24-16 22-38 40-92 88-110 36-10 50-6 74 0s74 26 70 34c-26 4-34 10-48 22-16 10-22 30-30 54-8 22-20 44-36 58-14 12-32 18-48 18-18 0-36-10-46-20-10-8-26-14-40-12 0 14-8 28-24 32-6 2-16 4-24 6 42 22 74 30 106 36 14-8 32-10 48-10s28 6 32 18c2 0 4 0 4 0 4-6 8-12 12-18 2-14 12-34 26-46 12-14 28-26 44-32 20-6 42-6 60 0 18 4 32 8 48 2 18-8 28-12 48-30 8 2-18 50-34 72-14 24-22 36-56 60-16 10-30 16-44 20-4 2-8 6-14 6-24 10-56 12-96 10-6 10-16 18-32 16z" />
<glyph unicode="&#xe014;" glyph-name="iconic-insecta" d="M312.451 891.176l71.894-54.337c4.398-3.319 6.231-9.001 4.593-14.228l-38.198-121.677 53.728-47.612c6.655 7.239 14.606 14.2 24.099 20.355-15.74 5.225-28.706 17.246-34.755 33.229-8.223 21.723-1.948 46.212 15.748 61.447l33.448 28.888c0.436 0.41 0.904 0.791 1.398 1.141l20.571 17.661c10.5 8.982 22.892 14.613 35.767 16.894l0.001 22.527c0 7.203 5.907 13.040 13.193 13.040s13.193-5.837 13.193-13.040l-0.027-22.497c12.932-2.261 25.386-7.903 35.925-16.92l55.311-47.686c17.683-15.235 23.947-39.711 15.726-61.421-5.677-14.99-17.439-26.492-31.898-32.182 10.356-6.618 18.745-14.323 25.549-22.346l53.479 47.54-38.263 121.533c-1.642 5.224 0.195 10.904 4.593 14.228l72.027 54.417c5.785 4.377 14.069 3.293 18.498-2.425s3.331-13.905-2.454-18.282l-64.651-48.887 38.026-120.828c1.532-4.869 0.051-10.172-3.786-13.573l-62.675-55.659c7.274-13.753 10.862-26.583 12.598-34.947l114.662-26.296c3.765-0.864 6.959-3.318 8.733-6.716l43.117-82.505 143.406-50.518c6.047-2.13 9.667-8.249 8.573-14.501s-6.575-10.82-12.994-10.824c-1.512 0.004-3.011 0.263-4.431 0.769l-148.3 52.239c-3.15 1.109-5.762 3.362-7.296 6.298l-42.71 81.723-80.14 18.365c49.691-62.241 162.005-210.182 210.339-333.162 0.303-0.558 3.52-6.986 7.452-17.201l8.396-15.578-3.135 0.566c8.412-26.552 15.9-65.072 4.053-98.184-8.122-22.982-25.667-41.513-48.33-51.051-8.651-2.784-17.714-4.106-26.81-3.913-28.883 0-78.569 10.98-137.008 69.908-16.401 12.928-31.928 26.878-46.496 41.759-10.47-33.559-34.974-98.168-76.607-134.042-15.422-13.278-35.197-20.571-55.653-20.526-20.459-0.048-40.239 7.245-55.665 20.526-41.592 35.885-66.108 100.496-76.643 134.135-14.5-14.948-30.036-28.903-46.446-41.838-58.725-59.15-108.602-69.921-137.194-69.921-8.71-0.216-17.397 0.975-25.717 3.535-23.073 9.454-40.994 28.151-49.305 51.429-20.159 56.384 15.742 128.456 17.271 131.509 48.090 122.334 160.612 270.426 210.135 332.421l-84.263-18.768-42.682-81.671c-1.534-2.937-4.146-5.19-7.296-6.298l-148.287-52.252c-1.421-0.506-2.923-0.765-4.431-0.769-6.422-0.003-11.91 4.563-13.007 10.817s2.525 12.377 8.572 14.508l143.406 50.518 43.107 82.505c1.789 3.428 5.021 5.894 8.828 6.742l118.952 26.437c2.224 8.555 6.746 22.115 15.457 36.568l-61.904 54.919c-3.838 3.405-5.319 8.708-3.786 13.573l37.974 120.866-64.584 48.85c-3.746 2.829-5.677 7.421-5.070 12.041s3.662 8.569 8.015 10.36c4.353 1.791 9.339 1.148 13.085-1.681zM548.508 339.369l-0.477-0.165c-11.079-3.040-22.545-4.626-34.092-4.693-11.713 0.065-23.334 1.691-34.561 4.815-8.89-55.242-32.753-108.21-70.714-152.662l-6.178-7.195c5.523-20.315 29.238-99.347 73.126-137.185 21.992-18.837 54.649-18.837 76.645 0 43.966 37.919 67.625 116.892 73.13 137.189-2.106 2.318-4.152 4.739-6.169 7.177-37.969 44.461-61.837 97.441-70.702 152.718zM386.668 566.857c-12.16-14.848-37.021-45.826-66.394-85.59l40.288-75.837-99.31-16.736 22.215 41.226c-9.358-13.476-18.824-27.464-28.188-41.774l41.588-78.261-98.437-16.558c-1.226-2.285-2.438-4.568-3.638-6.849l38.377-72.137-77.092-12.989c-8.555-23.066-19.243-62.111-8.2-92.785 5.763-16.283 18.28-29.361 34.412-35.951l0.684-0.19c6.693-1.761 60.265-13.288 133.989 61.477 0.478 0.474 0.995 0.911 1.542 1.306 25.63 20.188 49.025 43 69.798 68.056 71.657 83.692 88.709 200.462 43.923 300.769-10.356 23.983-25.907 45.428-45.561 62.828zM641.245 566.857c-19.67-17.394-35.241-38.839-45.613-62.828-44.784-100.297-27.737-217.063 43.909-300.755 20.768-25.055 44.167-47.868 69.798-68.056 0.548-0.394 1.065-0.83 1.542-1.306 79.046-80.12 135.041-61.093 135.609-60.895 15.735 6.66 27.892 19.582 33.472 35.574 11.345 31.647-0.374 72.2-8.864 94.568l-66.496 11.178 33.315 62.668c-3.083 6.034-6.269 12.089-9.544 18.156l-87.47 14.719 37.104 69.803c-2.129 3.299-4.264 6.581-6.404 9.845l-94.395 15.896 36.126 67.981c-31.865 43.559-59.183 77.647-72.095 93.446zM622.385 584.793l-0.446-0.276c-18.075-11.292-35.96-35.431-53.655-72.416-20.421-42.671-28.313-90.061-23.682-142.168-22.305-9.009-42.746-9.009-61.326 0 0 0 0.266 6.661-0.011 17.596-0.012-7.279-0.291-14.578-0.826-21.857 20.417-6.798 42.555-6.798 63.026-0.066-3.727 50.286 4.816 101.564 26.249 149.391 11.342 26.833 28.698 50.681 50.671 69.795zM438.75 649.246l-1.388-1.005c-6.796-4.979-12.454-10.437-17.154-16.010l-2.567-3.126-0.396-0.91c-0.648-1.132-1.46-2.146-2.393-3.022-9.66-13.656-14.073-27.094-15.995-34.968l-7.069 5.413c28.497-20.565 50.756-48.443 64.374-80.615 9.416-21.010 16.345-42.686 20.839-64.645-3.483 19.147-8.795 39.418-16.901 57.988-17.533 40.174-36.993 66.997-58.379 80.464 7.037 26.636 19.377 46.781 37.028 60.432zM521.651 670.818l-9.776-0.024-3.279-0.085c-0.085-0.004-0.174-0.008-0.259-0.012l3.667 0.077c57.858 0 96.867-26.193 117.026-78.578-1.678 7.903-5.455 20.632-13.899 33.552-0.289 0.285-0.504 0.617-0.704 0.961-14.255 21.328-41.396 42.834-92.776 44.112zM452.302 770.52l-25.421-21.845c-9.392-8.095-12.723-21.097-8.351-32.633s15.522-19.182 27.985-19.188l18.416 0.028c19.28 35.502-0.549 61.958-12.625 73.638zM513.964 808.032c-11.634 0.017-22.881-4.13-31.666-11.673l-9.633-8.267c12.677-12.234 21.407-28.075 24.83-45.517 3.027-15.411 1.738-31.195-3.521-45.722l18.192 0.054c1.53 0.029 3.073 0.046 4.634 0.046l5.267-0.080 11.75-0.034c-5.258 14.523-6.547 30.309-3.521 45.722 3.428 17.473 12.183 33.339 24.893 45.579l-9.5 8.205c-8.796 7.562-20.072 11.716-31.733 11.683zM556.363 737.519c-2.727-13.944-0.448-28.312 6.317-40.68l18.68 0.017c12.465-0.008 23.627 7.633 28.004 19.17s1.043 24.547-8.356 32.636l-25.812 22.232c-9.658-8.791-16.303-20.463-18.829-33.374z" />
<glyph unicode="&#xe015;" glyph-name="iconic-fungi" d="M438.665 869.703c6.089-0.079 14.332-0.459 24.726-1.134l0.002-0.386c69.738-6.639 136.257-32.17 192.599-73.95 54.482-40.407 97.259-94.325 124.129-156.197 109.622-33.185 191.909-130.657 201.523-249.52 0.978-12.127-7.28-22.966-19.215-25.225 0 0-84.351-17.634-201.319-22.449l-10.102-0.383 31.327-198.859c17.765-57.44-25.497-115.315-85.164-115.315-49.156 0-89.14 39.932-89.14 89.014 0 6.702 0.754 13.351 2.24 19.848l1.733 6.45 31.325 198.863c-36.168 1.239-71.758 3.724-106.611 7.459l-26 3.031 27.268-173.094c3.526-11.275 5.314-22.99 5.314-34.822 0-64.367-52.437-116.739-116.897-116.739-76.346 0-132.242 72.295-113.237 145.762l1.661 5.802 43.808 278.104c-101.398 3.19-199.496 13.575-292.435 31.007-14.879 2.79-25.119 16.263-23.823 31.34 7.723 89.985 47.313 174.832 111.486 238.902 64.176 64.076 165.817 103.612 255.923 111.31l0.716 0.040 0.681 0.009c12.227 0.84 21.383 1.221 27.479 1.134zM723.282 339.608h-52.226l-32.025-203.298c-0.113-0.711-0.282-1.402-0.501-2.083-12.896-39.918 17.145-80.446 58.638-80.446 41.497 0 71.541 40.526 58.638 80.448-0.511 1.583-9.532 59.385-14.079 88.289l-18.442 117.095zM406.929 454.958l-20.591 0.026-44.488-282.433c-0.437-2.768-4.824-13.085-4.824-29.525 0-49.21 40.090-89.249 89.374-89.249s89.374 40.038 89.374 89.249c0 9.339-1.45 18.573-4.321 27.439l-0.29 1.030-0.208 1.053-28.713 182.296c-15.056 2.228-33.627 5.31-49.015 8.197-11.95 2.24-20.417 12.525-20.515 24.447-0.049 5.864 2.956 33.076 11.519 61.332l1.924 6.064-7.268 0.029c-0.909 0.004-1.886 0.009-2.932 0.013l-9.011 0.026zM752.533 242.336c-6.67-1.048-11.466-6.721-11.624-13.24l0.167-2.475c1.186-7.498 8.218-12.626 15.736-11.439 6.67 1.048 11.466 6.721 11.624 13.237l-0.165 2.478c-1.186 7.498-8.197 12.626-15.736 11.439zM576.787 512.219c-26.838 0-48.591-21.753-48.591-48.591s21.753-48.591 48.591-48.591c26.838 0 48.591 21.753 48.591 48.591s-21.753 48.591-48.591 48.591zM852.147 479.819c-17.895 0-32.394-14.505-32.394-32.394s14.505-32.394 32.394-32.394c17.895 0 32.394 14.505 32.394 32.394s-14.505 32.394-32.394 32.394zM437.288 842.001c-5.9 0-14.6-0.42-26.103-1.261l0.006 0.309c-173.422-15.266-326.534-151.849-341.397-325.087-0.079-0.938 0.569-1.811 1.482-1.977 18.349-3.444 36.511-6.511 54.575-9.313 1.921 13.9 7.133 42.991 20.298 78.473 16.753 45.151 50.166 109.625 114.21 160.42 5.949 4.718 14.613 3.729 19.334-2.213 4.724-5.944 3.732-14.589-2.219-19.314-98.27-77.94-120.251-192.297-124.357-221.383 18.424-2.56 36.752-4.848 55.018-6.815 7.565 46.886 19.43 70.648 19.961 71.69 3.445 6.77 11.73 9.468 18.499 6.036 6.77-3.431 9.473-11.677 6.069-18.435-0.224-0.448-10.306-21.17-17.087-62.020 66.606-6.142 132.884-8.636 201.349-8.636 52.953 117.173 178.913 186.091 309.098 163.627-55.709 110.491-164.044 184.375-288.687 195.026l-0.094 0.041 6.142-0.437c-11.502 0.841-20.203 1.261-26.103 1.261zM722.568 577.010c-17.895 0-32.394-14.505-32.394-32.394s14.505-32.394 32.394-32.394c17.895 0 32.394 14.505 32.394 32.394s-14.505 32.394-32.394 32.394z" />
<glyph unicode="&#xe016;" glyph-name="link" d="M738 704h-98c0 0 52-34 64-96h34c34 0 62-28 62-64v-64c0-34-28-64-62-64h-224c-36 0-66 30-66 64v64h-96v-64c0-22 6-44 14-64 26-56 82-96 148-96h224c88 0 158 72 158 160v64c0 90-70 160-158 160zM660 608c-24 56-80 96-146 96h-224c-90 0-162-70-162-160v-64c0-88 72-160 162-160h94c0 0-52 34-64 96h-30c-36 0-66 30-66 64v64c0 36 30 64 66 64h224c34 0 62-28 62-64v-64c0 0 0 0 0 0h96c0 0 0 0 0 0v64c0 24-4 44-12 64z" />
<glyph unicode="&#xe017;" glyph-name="locate" d="M512 672c-88 0-160-72-160-160s72-160 160-160c88 0 160 72 160 160s-72 160-160 160zM894 554c-20 178-162 320-340 340v66h-84v-66c-178-20-320-162-340-340h-66v-84h66c20-178 162-320 340-340v-66h84v66c178 20 320 162 340 340h66v84zM512 214c-164 0-298 134-298 298s134 298 298 298c164 0 298-134 298-298s-134-298-298-298z" />
<glyph unicode="&#xe018;" glyph-name="arrows-out" d="M48 308l-48-288c0-6 2-12 4-16 0 0 0 0 0 0 4-2 10-4 16-4l288 50c6 0 12 4 12 10 2 6 2 12-4 16l-56 58 152 150c6 8 6 18 0 24l-104 104c-6 8-18 8-24 0l-152-150-56 56c-4 4-10 6-16 4s-10-8-12-14zM976 716l48 288c0 6-2 12-4 16 0 0 0 0 0 0-4 2-10 4-16 4l-288-50c-6 0-12-4-12-10-2-6-2-12 4-16l56-58-152-150c-6-8-6-18 0-24l104-104c6-8 18-8 24 0l152 150 56-56c4-4 10-6 16-4s10 8 12 14zM716 48l288-48c6 0 12 2 16 4 0 0 0 0 0 0 2 4 4 10 4 16l-50 288c0 6-4 12-10 12-6 2-12 2-16-4l-58-56-150 152c-8 6-18 6-24 0l-104-104c-8-6-8-18 0-24l150-152-56-56c-4-4-6-10-4-16s8-10 14-12zM308 976l-288 48c-6 0-12-2-16-4 0 0 0 0 0 0-2-4-4-10-4-16l50-288c0-6 4-12 10-12 6-2 12-2 16 4l58 56 150-152c8-6 18-6 24 0l104 104c8 6 8 18 0 24l-150 152 56 56c4 4 6 10 4 16s-8 10-14 12z" />
<glyph unicode="&#xe019;" glyph-name="arrows-in" d="M368 108l48 290c2 6 0 10-4 14 0 0 0 0 0 0-4 4-10 6-14 6l-290-50c-6 0-10-4-12-10s0-14 4-18l56-56-152-152c-6-6-6-16 0-22l106-106c6-6 16-6 22 0l152 152 56-56c6-4 12-6 18-4s10 6 10 12zM656 916l-48-290c-2-6 0-10 4-14 0 0 0 0 0 0 4-4 10-6 14-6l290 50c6 0 10 4 12 10s0 14-4 18l-56 56 152 152c6 6 6 16 0 22l-106 106c-6 6-16 6-22 0l-152-152-56 56c-6 4-12 6-18 4s-10-6-10-12zM916 368l-290 48c-6 2-10 0-14-4 0 0 0 0 0 0-4-4-6-10-6-14l50-290c0-6 4-10 10-12s14 0 18 4l56 56 152-152c6-6 16-6 22 0l106 106c6 6 6 16 0 22l-152 152 56 56c4 6 6 12 4 18s-6 10-12 10zM108 656l290-48c6-2 10 0 14 4 0 0 0 0 0 0 4 4 6 10 6 14l-50 290c0 6-4 10-10 12s-12 0-18-4l-56-56-152 152c-6 6-16 6-22 0l-106-106c-6-6-6-16 0-22l152-152-56-56c-4-6-6-12-4-18s6-10 12-10z" />
<glyph unicode="&#xe01a;" glyph-name="iconic-unknown" d="M498.912 940.248c29.306 0 44.896-20.286 57.69-64.298v0l3.96-14.691c1.298-5.163 2.577-10.592 3.85-16.292v0l3.818-17.918 9.851-50.079c0.463-2.223 0.912-4.335 1.353-6.341v0l2.556-10.826c1.657-6.447 3.243-11.424 4.911-15.361v0l2.044-5.324c17.035-41.062 50.26-45.671 86.669-9.604v0l41.032 57.814 9.752 13.321 11.512 15.192 11.267 14.113c12.559 15.199 23.126 25.976 32.341 32.415 44.485 31.085 79.834 14.776 77.937-35.808-3.186-84.985-14.926-151.419-34.625-215.814v0l-3.976-12.473-21.631-64.593c-5.137-16.693-7.516-28.361-7.827-38.566v0l0.046-2.912 0.395-6.025 0.851-6.569 1.373-7.444 1.959-8.651 4.181-15.967 16.219-56.548 3.755-14.673c2.206-9.215 3.844-17.437 5.057-25.507 10.49-69.771-0.115-160.504-36.452-228.946-65.553-123.471-161.786-172.716-311.782-165.423-161.23 7.84-312.53 155.726-312.53 301.985 0 116.997 31.39 197.522 82.682 252.026 2.778 2.951 5.48 5.794 8.117 8.54v0l15.142 15.413c2.425 2.408 4.807 4.743 7.158 7.018v0l13.82 13.019c4.541 4.162 9.047 8.179 13.605 12.146v0l17.94 15.41 8.649 7.961c2.46 2.422 4.653 4.77 6.786 7.264 4.742 5.548 9.454 12.169 14.945 21.14 5.289 8.644 11.627 24.047 14.565 35.932v0l6.076 24.132 9.195 34.788 6.181 22.18 6.219 21.314c1.039 3.478 2.081 6.917 3.123 10.317v0l6.273 19.923 6.306 18.936c1.054 3.071 2.11 6.099 3.167 9.082v0l6.356 17.363c1.062 2.802 2.125 5.56 3.189 8.269v0l6.401 15.681c1.069 2.516 2.139 4.983 3.211 7.4v0l6.441 13.889c19.362 39.808 39.061 62.669 58.892 62.669zM500.98 893.749l-2.361-2.981c-1.352-1.818-2.805-3.964-4.337-6.419v0l-2.354-3.913c-8.398-14.452-17.905-35.812-27.969-62.643-18.182-48.472-37.485-113.080-52.604-174.231-4.021-16.263-12.112-35.929-19.842-48.559-6.658-10.879-12.72-19.398-19.101-26.862-4.442-5.198-9.019-9.875-14.438-14.856v0l-3.46-3.142-20.208-17.397c-3.115-2.711-6.205-5.448-9.306-8.25l6.494-76.155-81.986-9.33c-0.678-1.17-1.348-2.35-2.010-3.54l35.165-74.36-70.471-45.537c-0.083-0.756-0.163-1.514-0.242-2.275l64.141-60.366-57.658-51.548c32.183-101.881 144.268-194.534 260.742-200.197 98.317-4.78 167.44 16.11 219.827 70.451l-32.752 80.313 85.806 26.692-44.292 73.418 66.878 53.574-72.528 46.235 53.379 89.423-2.455 9.333-2.515 10.73-1.824 9.439c-0.251 1.49-0.475 2.945-0.677 4.373v0l-0.929 8.331c-0.333 4.082-0.477 8.094-0.475 12.285 0.519 17.524 4.396 34.746 12.398 59.271v0l12.202 35.883 10.783 32.916c18.596 60.791 29.661 123.403 32.698 204.391v0l0.019 2.401-7.553-4.98c-4.782-3.342-11.713-10.365-20.307-20.492v0l-9.133-11.141c-3.218-4.044-6.602-8.411-10.135-13.081v0l-5.251-7.007-36.662-51.167-13.467-18.249-6.195-7.813-6.294-6.010c-57.645-52.171-128.241-36.642-154.486 37.377-2.818 6.534-5.274 14.629-7.843 25.438v0l-3.167 14.347-9.881 50.228-3.656 16.767c-1.838 7.897-3.68 15.059-5.478 21.465v0l-3.522 11.797-3.316 9.741-3.024 7.645c-1.424 3.291-2.706 5.782-3.796 7.45v0l-0.581 0.796zM445.178 170.887c10.062 0.591 18.347-7.689 18.938-17.744 0.591-11.237-6.51-18.926-17.163-19.518-11.244-0.591-20.122 8.28-20.122 18.926 0 8.872 8.878 17.744 18.347 18.335zM507.609 394.833c41.358 0 68.5-24.411 68.5-58.211 0-10.015-1.937-20.028-7.106-30.045-10.34-20.655-26.495-35.051-49.759-47.57-20.033-10.015-29.080-20.655-34.249-38.18-5.816-10.641-16.802-15.022-27.787-11.267s-17.448 15.022-15.509 25.663c5.17 31.296 15.509 40.685 42.651 57.585 19.387 15.022 42.651 23.785 42.651 41.934 0 11.267-13.57 13.77-27.787 13.77-27.787 0-32.311-14.396-49.759-14.396-13.57 0-22.617 11.893-22.617 20.655 0 30.671 49.113 40.059 80.778 40.059zM653.125 581.43c20.742 0 37.557-16.708 37.557-37.319s-16.815-37.319-37.557-37.319c-20.742 0-37.557 16.708-37.557 37.319s16.815 37.319 37.557 37.319zM484.355 618.75c20.742 0 37.557-16.708 37.557-37.319s-16.815-37.319-37.557-37.319c-20.742 0-37.557 16.708-37.557 37.319s16.815 37.319 37.557 37.319z" />
<glyph unicode="&#xe01b;" glyph-name="iconic-amphibia" d="M720.383 825.586c41.531 0 78.103-24.19 95.218-60.062l2.667-6.081 1.037-2.853 4.64-0.543c12.296-1.477 24.662-3.233 37.123-5.291l18.763-3.3 18.913-3.747 16.442-3.581c45.804-10.408 75.139-54.634 67.627-100.654l-1.077-5.534-0.637-2.582c-36.698-139.253-111.275-244.234-223.308-313.908l-0.024-138.144 47.649-0.028c28.391 0 51.708-21.736 54.209-49.475v0l0.216-4.953c0-30.055-24.374-54.428-54.428-54.428v0h-102.049c-30.055 0-54.428 24.374-54.428 54.428l0.106-3.030-6.537 25.504c-2.292 9.213-4.46 18.148-6.476 26.815l-2.912 12.795-5.198 24.373c-2.653 13.086-4.902 25.417-6.771 37.003l-10.077-4.343-27.347-11.312-28.642-11.348-7.365-2.843-7.44-2.845-30.609-11.379-31.905-11.399-16.449-5.71-16.774-5.72-16.624-5.499 139.359-0.028c24.86 0 45.572-17.78 50.103-41.324l0.684-4.789 0.233-4.917c0-26.52-20.228-48.311-46.107-50.792l-4.916-0.233-421.726 0.018c-7.543-0.448-15.213-0.785-23.025-1.028l-11.855-0.284-15.126-0.129c-4.771 0-9.464 0.651-13.974 1.933l-4.222 1.44-3.516 1.042-2.289 0.878-2.241 0.984-1.248 0.661-7.104 2.715 0.48 1.251-0.41 0.26c-10.162 7.388-17.346 18.381-19.942 30.864l-0.826 5.446-0.242 4.964c0 4.98 0.722 9.841 2.097 14.485 0.085 1.392 0.225 2.808 0.424 4.216 31.99 229.668 135.404 399.846 309.822 508.849 83.285 52.048 171.37 85.571 264.128 100.466l17.44 2.572-13.625-1.972 0.915 2.687c13.381 36.962 46.71 63.842 86.353 68.653l6.666 0.59 6.112 0.169zM686.367 393.583c-17.96 0-26.031-10.832-29.68-52.416v0l-0.968-13.421c-0.968-16.439 0.507-38.012 4.456-64.616v0l2.997-18.479c0.556-3.203 1.156-6.474 1.77-9.794v0l4.083-20.706 4.821-22.19 5.546-23.663 6.291-25.126 3.422-13.099 0.958-7.953c1.266-6.207 6.757-10.869 13.334-10.869v0h102.049c7.519 0 13.613 6.093 13.613 13.613s-6.093 13.613-13.613 13.613v0h-88.437v224.508c0 22.742-7.864 30.609-30.609 30.609zM937.71 627.534l3.838 13.9 0.472 1.912c5.495 24.143-8.425 48.168-31.311 55.729l-4.396 1.221-16.072 3.51c-22.538 4.696-44.782 8.425-66.751 11.18l-21.869 2.431-14.918 1.44-3.092 14.659c-6.244 29.645-32.545 51.236-63.241 51.236-29.576 0-55.012-20.031-62.422-47.822l-1.173-5.306-2.613-14.659-14.757-1.991c-35.565-4.791-70.406-12.447-104.549-22.997l-10.182-64.263-67.189 34.898c-8.805-3.988-17.582-8.189-26.287-12.579l0.026-82.992-88.894 29.619c-4.446-3.149-8.834-6.348-13.162-9.605l0.008-88.052-72.441 24.13c-54.383-56.56-96.69-123.499-126.974-200.955 17.157 19.848 36.739 37.646 58.693 53.406l9.705 6.726 9.592 6.206c67.829 42.396 141.705 61.596 221.156 57.513l13.562-0.92 13.085-1.298c46.657-5.357 80.148-47.515 74.789-94.188-0.968-8.435-3.189-16.685-6.608-24.473-14.753-33.651-31.837-63.966-51.279-90.931l13.995 5.012 7.717 2.801 30.084 11.163 7.314 2.784 7.239 2.78 28.108 11.108c12.201 4.932 24.014 9.841 35.442 14.75l13.456 5.905c-1.022 12.248-1.41 23.308-1.156 33.189v0l0.266 6.443c4.21 71.521 23.648 104.245 71.392 104.245 45.289 0 71.438-26.145 71.438-71.438l-0.066 3.35c65.313 45.732 115.258 105.752 149.932 180.281l-34.217 0.054c-24.568 0-46.865 14.866-67.351 42.173-6.77 9.019-4.932 21.812 4.083 28.58s21.812 4.932 28.58-4.083c12.178-16.237 22.883-24.19 31.789-25.609l2.903-0.237 51.158-0.024c4.772 12.974 9.133 26.341 13.098 40.096zM193.13 277.925c-9.393 0-17.016-7.623-17.016-17.016s7.623-17.016 17.016-17.016c9.393 0 17.016 7.623 17.016 17.016s-7.623 17.016-17.016 17.016zM312.186 345.962c-18.787 0-34.009-15.222-34.009-34.009s15.222-34.009 34.009-34.009c18.787 0 34.009 15.222 34.009 34.009s-15.222 34.009-34.009 34.009zM720.383 747.352c18.787 0 34.009-15.222 34.009-34.009s-15.222-34.009-34.009-34.009c-18.787 0-34.009 15.222-34.009 34.009s15.222 34.009 34.009 34.009z" />
<glyph unicode="&#xe01c;" glyph-name="icn-id-help" d="M904 784h2l-12 16c0 0 0 0 0 0l-16 20c-20 22-40 44-64 62v2l-20 14c0 0 0 0 0 0l-16 12c-80 52-170 80-266 80-94 0-186-26-264-80v0l-16-10c0 0 0 0 0 0l-22-16h2c-24-18-44-40-64-62v0l-16-20c0 0 0 0 0 0l-12-16c-56-80-86-176-86-274 0-264 214-478 478-478s478 214 478 478c0 98-28 192-86 272zM782 852c24-20 44-40 64-64l-128-126c-16 24-38 44-64 62zM722 512c0-116-94-210-210-210s-210 94-210 210c0 116 94 210 210 210s210-94 210-210zM512 946c84 0 164-24 234-68l-132-132c-32 14-66 22-102 22s-70-8-100-22l-132 132c70 44 150 68 232 68zM244 852l126-128c-24-16-46-36-64-60l-126 126c18 24 40 44 64 62zM146 278c-42 68-68 148-68 234 0 88 26 170 74 242l130-130c-16-34-26-72-26-112 0-36 8-70 22-102zM176 246l124 124c18-26 38-48 62-64l-122-124c-24 20-44 40-64 64zM512 78c-90 0-172 26-240 72l130 132c34-16 70-26 110-26s78 10 112 26l130-130c-68-46-152-74-242-74zM786 182l-122 124c24 18 44 40 60 64l126-124c-18-24-40-44-64-64zM746 412c14 30 22 64 22 100 0 40-10 76-26 110l130 130c48-72 74-154 74-240s-24-166-68-232z" />
<glyph unicode="&#xe01d;" glyph-name="no-location" d="M512 128l-8 10c-10 14-242 324-242 510 0 136 112 248 250 248s250-112 250-248c0-78-40-188-122-326-60-102-120-182-120-184zM512 876c-128 0-230-102-230-228 0-162 188-430 230-488 42 58 230 326 230 488 0 126-102 228-230 228zM514 722c54 0 90-32 90-76 0-32-16-54-42-70-28-16-36-28-36-48v-12h-42v16c-2 28 12 48 40 64 24 16 34 26 34 48s-18 38-48 38c-28 0-46-16-48-42h-42c2 46 34 82 94 82zM476 450c0 20 14 32 32 32 20 0 32-12 32-32 0-18-12-30-32-30-18 0-32 12-32 30z" />
<glyph unicode="&#xe01e;" glyph-name="arrow-up" d="M542 276v358l164-164 42 42-236 236-236-236 42-42 164 164v-358zM950 512c0-242-196-438-438-438s-438 196-438 438c0 242 196 438 438 438s438-196 438-438zM126 512c0-214 172-386 386-386s386 172 386 386c0 214-172 386-386 386s-386-172-386-386z" />
<glyph unicode="&#xe01f;" glyph-name="icn-location-obscured" d="M126 514c8 8 16 16 24 24l-48 52c-16-16-34-34-52-50l-24-26 34-34c14-14 28-28 40-40l50 50c-8 8-16 16-24 24zM152 392c40-38 76-68 112-90l38 60c-32 20-64 46-102 80zM720 364l36-60c38 22 76 50 116 84l-46 54c-38-32-72-58-106-78zM542 302l6-70c48 4 96 16 144 38l-28 64c-40-18-82-30-122-32zM330 268c46-20 92-32 144-36l6 70c-44 2-84 12-122 30zM976 534c-18 22-34 38-48 54l-52-48c8-10 16-18 24-26-8-10-16-18-26-26l50-50c14 12 26 26 38 38l36 34zM876 638c-38 34-76 64-114 88l-38-60c36-22 70-48 104-80zM696 760c-46 20-96 32-144 38l-6-70c40-4 82-16 122-34zM154 638l46-54c38 34 72 60 106 80l-38 60c-36-22-74-52-114-86zM484 728l-6 70c-50-4-98-18-144-38l28-64c40 18 80 28 122 32zM512 704c-102 0-186-86-186-190s84-190 186-190c102 0 186 86 186 190s-84 190-186 190zM512 388c-68 0-124 56-124 126s56 128 124 128c68 0 124-58 124-128s-56-126-124-126z" />
<glyph unicode="&#xe020;" glyph-name="icn-location-private" d="M776 726l158 158-50 50-170-170c-62 30-128 50-202 50-180 0-320-116-492-302 76-82 146-160 226-216l-156-156 50-50 168 168c60-30 126-48 204-48 220 0 380 180 492 298-62 76-138 158-228 218zM316 512c0 110 88 200 196 200 42 0 82-12 114-36l-112-112c-2 6-2 12-2 18 0 18 6 34 16 46-4 0-10 2-16 2-64 0-114-54-114-118 0-18 4-36 12-52l-60-62c-22 34-34 72-34 114zM512 312c-42 0-82 12-114 36l60 60c16-8 34-12 54-12 64 0 114 52 114 116 0 6 0 10 0 16-12-10-28-16-44-16-6 0-12 2-18 2l110 112c22-32 36-72 36-114-2-110-90-200-198-200z" />
<glyph unicode="&#xe021;" glyph-name="collapse" d="M972 228c30 32 30 80 0 114l-396 440c-32 36-86 38-122 8-2-2-4-4-6-8l-396-440c-30-34-30-82 0-114 24-28 68-32 96-6 2 2 4 4 6 6l358 398 358-398c26-28 70-32 98-6 2 2 4 4 4 6z" />
<glyph unicode="&#xe022;" glyph-name="photo-grid" d="M0 1024h448v-448h-448zM0 448h448v-448h-448zM576 1024h448v-448h-448zM576 448h448v-448h-448z" />
<glyph unicode="&#xe023;" glyph-name="photo-quilt" d="M0 922h562v-360h-562zM666 922h358v-360h-358zM308 462h716v-360h-716zM0 462h206v-360h-206z" />
<glyph unicode="&#xe024;" glyph-name="link-external" d="M768 256h-512v510l128 2v128h-256v-768h768v320h-128zM512 896l128-128-192-192 128-128 192 192 128-128v384z" />
<glyph unicode="&#xe025;" glyph-name="icn-dna" d="M668 356c60 58 86 142 78 242-26 4-50 8-76 16-2 0-4 0-4 0 2-22 4-46 2-66l-82 80c-18 2-36 2-54 0l128-130c-8-34-24-64-48-86-22-24-52-40-88-48l-128 128c-2-18-2-36 0-56l80-80c-40-2-84 4-132 16-144 40-266 18-344-60l56-54c56 56 152 70 268 38 144-38 266-18 344 60zM634 782c24-4 50-10 76-16 2 0 4-2 4-2-4 30-4 58-2 82l98-96c18 0 34 2 50 4l-138 138c10 30 24 56 44 76l-54 56c-60-58-86-142-78-242zM310 260c4-30 4-58 2-82l-98 96c-18 0-36-2-50-4l138-140c-10-28-24-54-44-74l54-56c60 58 86 142 78 242-24 4-50 10-76 16-2 0-4 2-4 2zM700 728c-144 38-266 18-344-60-60-58-86-142-78-242 26-4 50-8 76-16 2 0 4 0 4 0-10 78 4 142 40 188l172-172c6 4 10 8 16 12 4 6 8 10 12 16l-172 172c58 46 146 54 254 26 144-40 266-18 344 60l-56 54c-56-56-152-70-268-38z" />
<glyph unicode="&#xe026;" glyph-name="icn-wild" d="M556 76v0c-2 0-4 0-6 0-12-2-24-4-38-4-12 0-24 2-36 4-2 0-6 0-8 0v0c-18 4-40 10-62 20-10 4-14 6-18 8-2 0-2 0-6 2-32 10-68 6-122-10l-8-2c-36-14-64-20-92-20-14 0-24 0-42 2l-4 2c-24 6-48 14-72 28-20 10-30 14-34 12l-6 58c18 2 34-2 68-18 20-12 38-20 56-24h2c12-2 20-2 30-2 20 0 44 6 74 16l10 4c64 20 114 22 156 10 4-2 6-2 10-4 6-2 10-4 20-8 22-8 40-14 56-18 12 0 22-2 26-2 0 0 2 0 2 0 2 0 2 0 4 0 4 0 14 2 24 2 18 4 34 10 56 18 12 4 16 6 22 8 2 2 6 2 8 4 44 12 92 10 160-10l8-4c28-10 52-16 74-16 8 0 18 0 28 2 20 4 40 12 60 24 32 16 48 20 68 18l-8-58c-2 2-12-2-32-12-26-14-48-22-74-30h-4c-16-2-28-2-40-2-28 0-58 6-92 20l-8 2c-54 16-92 20-124 8-2 0-4 0-6 0-4-2-6-4-18-8-22-10-42-16-62-20zM930 888l2-2c8-8 18-24 10-52-18-64-38-132-76-194-34-56-76-100-126-132-60-40-134-62-224-64-34-8-80-12-138-14-34-66-70-112-88-134-16-18-40-22-60-14s-30 28-26 50c2 22 10 58 22 102-52 6-96 14-130 24-22 6-36 24-36 44 2 24 16 42 40 50 62 16 122 26 182 28 2 6 4 12 6 16s4 8 4 10v2c4 4 8 12 10 18 4 6 6 12 10 18 6 12 12 26 18 38 10 22 20 46 32 68-10 2-20 4-32 6-16 4-34 8-38 10h-4c-16 2-28 18-30 34 0 16 10 30 24 38 52 24 124 42 192 62 40 10 76 20 106 30 84 28 162 24 244 20 10 0 18 0 28-2 2 0 2 0 4 0 8 0 22 0 36-10s24-22 24-36c2-4 2-6 2-8 4-2 8-4 12-6zM732 820c16 0 28 12 28 28 0 18-12 30-28 30-18 0-30-12-30-30 0-16 12-28 30-28z" />
<glyph unicode="&#xe027;" glyph-name="icn-leading-id" d="M476 394l-92 128c-30 42-26 102 16 138l152 130-86 62c-14 10-24 12-34 8l-210-56-34 132 206 56c48 16 98 6 148-26l200-148c34-26 58-62 68-104l10-54c2-16 18-28 36-28h168v-138h-168c-84 0-152 58-170 138l-6 34-130-106 70-154c36-80-22-168-108-168h-358v138h330zM820 820c-58 0-104 46-104 102s46 102 104 102c56 0 102-46 102-102s-46-102-102-102zM302 0l-86 56 142 148h144zM358 728c-4-6-10-6-14-12h-344v52h414zM282 564c4-16 4-36 14-52h-296v52zM302 666c-6-16-16-32-16-52h-286v52z" />
<glyph unicode="&#xe028;" glyph-name="ios-world" d="M512 928c0 0 0 0 0 0s0 0 0 0 0 0 0 0c-230 0-416-186-416-416s186-416 416-416c0 0 0 0 0 0s0 0 0 0 0 0 0 0c230 0 416 186 416 416s-186 416-416 416zM512 130c0 0 0 0 0 0s0 0 0 0 0 0 0 0c-212 0-382 170-382 382 0 210 170 382 382 382 0 0 0 0 0 0s0 0 0 0 0 0 0 0c212 0 382-170 382-382s-170-382-382-382zM644 680c-36-8-76-14-116-16v-136h136c-2 56-8 108-20 152zM528 858v-162c38 0 74 6 108 14-26 82-66 136-108 148zM386 710c36-8 72-14 110-14v164c-42-12-82-66-110-150zM762 758c-46 46-104 78-168 94 30-30 54-78 72-134 34 10 66 22 96 40zM694 528h168c-4 78-34 150-80 206-34-20-70-34-108-46 12-48 20-102 20-160zM360 528h136v136c-40 2-80 8-118 16-10-44-18-96-18-152zM664 496h-136v-136c40-2 80-8 116-16 12 44 18 96 20 152zM378 344c38 8 78 14 118 16v136h-136c0-56 8-108 18-152zM496 164v164c-38 0-74-6-110-14 28-84 68-138 110-150zM594 172c64 16 122 48 168 94-30 18-62 30-96 40-18-56-42-104-72-134zM430 852c-64-16-122-50-168-96 30-16 62-28 96-38 18 56 42 104 72 134zM674 336c38-12 74-28 108-46 46 56 76 128 80 206h-168c0-58-8-112-20-160zM528 328v-164c42 14 82 68 108 150-34 8-70 14-108 14zM350 688c-38 12-74 26-108 46-46-56-76-128-80-206h166c2 58 10 112 22 160zM328 496h-166c4-78 34-150 80-206 34 18 70 34 108 46-12 48-20 102-22 160zM262 266c46-44 104-78 168-94-30 30-54 78-72 134-34-10-66-24-96-40z" />
<glyph unicode="&#xe029;" glyph-name="sparkly-label" d="M512 622c0 0 82 118 232 60v-468l-232-214-232 214v468c150 58 232-60 232-60zM544 266l-32 106-32-106-108-34 108-32 32-106 32 106 108 32zM114 674l72-22-72-22-20-72-22 72-72 22 72 22 22 70zM952 440l72-22-72-20-22-72-20 72-72 20 72 22 20 72zM684 918l108-34-108-32-32-108-34 108-106 32 106 34 34 106z" />
<glyph unicode="&#xe02a;" glyph-name="people" d="M222 324h-176c-6 0-8 4-8 10 8 32 48 46 62 52 16 6 38 6 52 10 10 2 22 6 26 10 4 6 0 50 0 50s-6 12-10 22c-4 10-10 38-10 38s-8 0-10 14c-4 16-8 22-8 34s8 12 8 12c0 0-6 16-8 50 0 42 32 82 90 82s90-40 90-82c-2-34-8-50-8-50s8 0 8-12c0-12-4-18-8-34-2-14-10-14-10-14s-6-28-10-38c-4-10-10-22-10-22s-2-44 2-50c4-4 16-8 24-10 14-4 36-4 52-10 4-2 10-4 16-6-4-2-8-2-14-4 0 0-8 0-8 0-4-2-8-2-12-2-18-2-32-6-44-10-22-8-42-18-62-30-6-4-10-6-14-10zM798 324c-4 4-8 6-14 10-20 12-38 22-62 30-12 4-26 8-44 10-4 0-6 0-10 2-2 0-8 0-10 0-6 2-12 2-16 4 8 2 14 4 16 6 16 6 38 6 54 10 8 2 20 6 24 10 4 6 0 50 0 50s-6 12-10 22c-4 10-8 38-8 38s-10 0-12 14c-4 16-8 22-8 34 2 12 8 12 8 12s-6 16-8 50c0 42 32 82 90 82s92-40 90-82c0-34-6-50-6-50s6 0 6-12c0-12-4-18-8-34-2-14-10-14-10-14s-4-28-8-38c-4-10-12-22-12-22s-2-44 2-50c4-4 16-8 24-10 14-4 36-4 52-10 14-6 56-20 62-52 2-6-2-10-8-10zM802 238c2-6-4-14-12-14h-560c-8 0-14 8-12 14 12 50 74 72 96 80 24 8 56 10 78 16 14 2 32 10 38 16 6 8 2 76 2 76s-12 16-18 32c-6 16-12 58-12 58s-14 0-18 22c-4 24-12 32-10 50 0 18 10 18 10 18s-10 26-10 78c-2 62 46 124 136 124 88 0 138-62 136-124 0-52-10-78-10-78s10 0 10-18c2-18-6-26-10-50-6-22-18-22-18-22s-6-42-12-58c-6-16-18-32-18-32s-4-68 2-76c6-8 24-14 38-16 20-6 54-8 78-16 22-8 84-30 96-80z" />
<glyph unicode="&#xe02b;" glyph-name="binoculars" d="M402 842v-440c0-10-4-18-10-26-8-6-16-10-26-10v-330c0-10-4-18-12-26-6-6-14-10-24-10h-294c-10 0-18 4-26 10-6 8-10 16-10 26v294l142 498c2 8 8 14 18 14zM586 842v-404h-148v404zM1024 330v-294c0-10-4-18-10-26-8-6-16-10-26-10h-294c-10 0-18 4-24 10-8 8-12 16-12 26v330c-10 0-18 4-26 10-6 8-10 16-10 26v440h242c10 0 16-6 18-14zM420 1006v-128h-200v128c0 6 2 10 4 12 4 4 8 6 14 6h164c6 0 10-2 14-6 2-2 4-6 4-12zM804 1006v-128h-200v128c0 6 2 10 4 12 4 4 8 6 14 6h164c6 0 10-2 14-6 2-2 4-6 4-12z" />
<glyph unicode="&#xe02c;" glyph-name="adjust" d="M972 552c14 0 26-4 36-12s16-18 16-28c0-28-18-40-52-40 0 0-48 0-48 0-34 0-52 12-52 40 0 10 6 20 16 28s22 12 36 12c0 0 48 0 48 0M512 792c78 0 144-26 200-82 54-54 82-120 82-198 0-80-28-146-82-200-56-56-122-82-200-82s-144 26-198 82c-56 54-82 120-82 200 0 78 26 144 82 198 54 56 120 82 198 82M518 308c0 0 0 408 0 408-58 0-108-20-150-60-40-40-60-88-60-144 0-58 20-106 60-146 42-40 92-58 150-58M154 512c0-28-18-40-52-40 0 0-50 0-50 0-34 0-52 12-52 40 0 10 6 20 16 28s22 12 36 12c0 0 50 0 50 0 14 0 26-4 36-12s16-18 16-28M512 870c-10 0-20 6-28 16s-12 22-12 36c0 0 0 50 0 50 0 14 4 26 12 36s18 16 28 16c10 0 20-6 28-16s12-22 12-36c0 0 0-50 0-50 0-14-4-26-12-36s-18-16-28-16M512 154c10 0 20-6 28-16s12-22 12-36c0 0 0-50 0-50 0-14-4-26-12-36s-18-16-28-16c-10 0-20 6-28 16s-12 22-12 36c0 0 0 50 0 50 0 14 4 26 12 36s18 16 28 16M888 830c0 0-34-36-34-36-24-22-46-26-66-8-18 20-16 42 8 66 4 4 16 16 36 36 24 24 46 26 66 6 18-18 16-40-10-64M172 228c10 10 20 16 34 18 12 2 22-2 30-10s12-20 10-32c-2-14-8-24-16-34 0 0-38-36-38-36-10-10-20-16-34-18-12 0-22 2-28 10-22 20-20 42 6 66 4 4 16 14 36 36M192 888c0 0 38-36 38-36 24-24 26-46 6-66-8-6-18-10-30-8-14 2-24 8-34 16-20 22-32 32-36 36-10 8-16 20-18 34 0 12 2 22 12 30 6 10 16 12 28 12 14-2 24-8 34-18M796 170c-24 24-26 46-8 66 20 18 42 16 66-8 0 0 34-36 34-36 26-24 28-46 10-66-20-18-42-16-66 8-20 20-32 32-36 36" />
<glyph unicode="&#xe02d;" glyph-name="logomark" d="M50 828c232-24 416-108 550-254l4-4c6-6 20-22 32-18 10 4 24 28 30 38v0c10 16 40 64 102 84s140-2 144-4h2c4-2 10-4 6-8-2-6-30-16-48-50-18-38-30-108-32-124-12-66-38-126-76-176-68-90-170-152-292-164-64-6-128 4-186 28 70 6 154 40 222 118 84 100-8 48-88 62-56 10-102 38-180 136 26 6 74 14 114 16-74 16-170 62-212 134 34 10 80 6 116 6-138 82-196 126-208 180zM376 916v0c14-6 132-58 188-136 82-110 86-216 64-192-52 58-102 94-160 134-46 32-76 122-92 194zM800 640c-12 0-20-10-18-20 0-12 10-20 22-18 10 0 18 10 18 20-2 12-12 20-22 18z" />
<glyph unicode="&#xe02e;" glyph-name="expand" d="M972 796c30-32 30-82 0-114l-396-440c-32-36-86-38-122-8-2 2-4 4-6 8l-396 440c-30 32-30 82 0 114 24 28 68 32 96 6 2-2 4-4 6-6l358-398 358 398c26 28 70 32 98 6 2-2 4-4 4-6z" />
<glyph unicode="&#xe02f;" glyph-name="focus" d="M0 358h154v-174h174v-154h-226c-50 0-92 42-102 92zM972 358v-224c0-52-40-94-92-104h-234v154h174v174zM870 994c52 0 92-42 102-92v-236h-152v174h-174v154zM338 1004v-154h-174v-174h-154v226c0 50 42 92 92 102z" />
<glyph unicode="&#xe030;" glyph-name="treeview" d="M204 546h274v136h-204v274h476v-274h-204v-136h274v-204h204v-274h-478v274h204v136h-476v-136h204v-274h-478v274h204z" />
<glyph unicode="&#xe031;" glyph-name="layers" d="M512 264l-258 134-132-70 390-200 392 200-134 70zM770 580l-258-132-258 132-132-68 390-202 392 202zM904 694l-392 202-390-202 390-200z" />
</font>
</defs>
</svg>
