<?xml version="1.0" encoding="UTF-8"?>
<svg width="120px" height="34px" viewBox="0 0 120 34" version="1.1" xmlns="http://www.w3.org/2000/svg" xmlns:xlink="http://www.w3.org/1999/xlink">
    <title>Logo 2</title>
    <g id="UI" stroke="none" stroke-width="1" fill="none" fill-rule="evenodd">
        <g id="Home" transform="translate(-49.000000, -36.000000)" fill="#FFECDE" fill-rule="nonzero">
            <g id="Logo-2" transform="translate(49.000000, 36.000000)">
                <path d="M83.7151875,0.637520734 C84.6227247,-0.0431321989 85.4546339,-0.194388406 86.5134273,0.259380216 C87.5722208,0.713148838 88.0259894,1.54505798 88.0259894,2.90636384 C88.0259894,3.38007834 87.4325448,4.77692877 86.7963491,6.29290287 L86.5946664,6.77465356 L86.3840575,7.28285872 C85.6424959,9.08658507 85.0066828,10.8147365 85.3790058,11.1498271 C85.422702,11.1935234 86.0660077,10.5871167 86.9807156,9.67522477 L86.9807156,9.67522477 L87.1964705,9.45952222 C88.0041413,8.64987948 88.9880536,7.64049639 89.9493708,6.64015133 L89.9493708,6.64015133 L90.2108386,6.36771089 C91.8613613,4.64566084 93.3905429,3.00720131 93.7737253,2.52822332 C95.1350311,0.788776941 96.0425684,0.410636423 97.5551304,0.940033148 C98.6139239,1.39380177 99.1433206,2.22571091 99.2189487,3.43576057 C99.2189487,7.51967817 87.7991051,15.0068604 86.2109149,16.5950506 C85.4546339,17.2757035 85.3033776,18.1076127 85.8327744,18.9395218 C89.4251093,24.6588972 91.0381149,27.3058808 91.7796249,28.7637897 L91.8734257,28.9512966 C92.2435546,29.704593 92.3598999,30.1167253 92.4124194,30.5106217 C92.5636756,31.8719275 92.0342789,32.8550929 91.0511135,33.3844896 C89.9923201,33.8382582 89.0091547,33.687002 88.0259894,32.8550929 C87.4209646,32.2500681 85.9840306,29.9055968 83.5639313,25.9729355 L83.5639313,25.9729355 L82.0513692,23.5528361 C81.3707163,22.5696708 80.1606666,22.7965551 79.7825261,23.7797204 C78.7237326,26.351076 77.8161954,28.9980596 76.9842862,30.1324812 C76.3036333,31.1912746 75.0935837,31.493787 73.9591621,31.1156465 C72.2197157,30.4349936 71.7659471,28.7711753 72.7491124,26.0485636 C76.7105125,16.2063221 78.2240124,12.3845921 78.9091957,10.6654098 L78.9091957,10.6654098 L78.9820008,10.4828429 C79.2602445,9.78559295 79.3867188,9.47499741 79.5036096,9.20709241 L79.5036096,9.20709241 L79.532715,9.1408065 C79.6199257,8.94342259 79.7084105,8.75392882 79.8581542,8.42721541 C81.6732287,3.88952919 82.656394,1.46942987 83.7151875,0.637520734 Z M114.740724,1.9988266 C117.160823,0.56189263 119.580922,1.69631418 119.959063,4.34329781 C120.135802,5.79256245 119.717775,11.1408561 119.137408,16.7357124 L119.055416,17.5176227 L119.055416,17.5176227 L119.013712,17.9090889 L118.935879,18.629115 C118.30795,24.3843823 117.560139,29.9660993 117.160823,31.4181589 C116.782683,32.7794648 115.572633,33.5357458 114.211327,33.3088615 C111.639971,32.930721 111.942484,30.737506 111.942484,27.4854975 C112.018112,26.5023322 111.413087,25.670423 110.429922,25.5947949 L110.429922,25.5947949 L105.589723,25.3679106 C104.757814,25.3679106 104.228417,25.7460511 103.623392,26.6535884 C103.348235,27.0880477 103.059212,27.541919 102.767474,27.9955544 L102.767474,27.9955544 L102.572703,28.2977273 L102.377862,28.5985367 C101.27495,30.2968156 100.204037,31.8671002 99.7663592,32.2500681 C98.7831938,32.930721 97.4975161,32.930721 96.5143507,32.2500681 C95.0774168,31.3425308 95.0017887,29.6787125 96.5143507,27.3342413 L96.5143507,27.3342413 L102.867111,16.7463068 C105.514095,12.2842487 112.018112,3.66264488 114.740724,1.9988266 Z M22.4023817,5.85585989 C26.7131836,0.56189263 28.8307705,-0.648157028 31.0239855,0.486264527 C33.1415724,1.46942987 33.3684567,3.66264488 32.1584071,8.2759592 C31.8679952,9.4285315 31.5677818,10.6126861 31.2633866,11.8063372 L31.2633866,11.8063372 L31.1108665,12.4038518 C30.9717953,12.9481559 30.8320522,13.493664 30.6921666,14.0382954 L30.4822974,14.854325 C28.4887824,22.595418 26.5200799,29.9472283 26.1081588,30.8887622 C25.4275059,32.17444 24.2174562,32.7038367 22.8561503,32.4013243 C21.4192164,32.0231837 20.8898196,31.1156465 20.8898196,29.5274563 C20.9654477,26.9561008 22.5536379,22.5696708 24.2930843,15.9143977 C24.5955967,14.7799761 23.2342908,14.3262075 22.5536379,15.2337447 C22.2157251,15.6730314 21.5003565,16.7162473 20.7515791,17.7832349 L20.7515791,17.7832349 L20.5370308,18.0882342 C19.6775789,19.3068094 18.8172878,20.4842661 18.4697203,20.7545963 C16.5790177,22.6452989 14.1589184,22.1915303 13.2513812,19.6201747 C12.5707282,18.0319846 12.2682158,12.2086206 10.5287694,12.2086206 C9.59602283,12.2086206 8.24900925,15.650223 7.14966135,19.3065064 L6.97366418,19.9007893 C6.45281269,21.6862256 5.99904407,23.4811885 5.6885708,24.914142 C5.15917408,27.4098694 3.79786821,28.544291 2.05842183,28.1661505 C0.772744067,27.7880099 -0.134793177,26.4267041 0.0164630308,24.9897701 C0.0920911344,24.0066048 0.318975445,23.1746956 0.545859756,22.2671584 C1.25892473,19.836255 2.34704337,16.3218634 3.50660079,12.890817 L3.50660079,12.890817 L3.68551692,12.3637786 C5.18049899,7.97989449 6.76731013,3.83135373 7.80615771,2.37696712 C9.24309167,0.56189263 11.4363067,0.410636423 13.0244969,2.15008281 C14.4614308,3.51138867 15.3689681,6.38525661 16.5790177,9.41038076 C17.2596707,11.1498271 18.0915798,11.2254552 19.3016295,9.71289317 L19.3016295,9.71289317 Z M54.3534678,1.09128936 C55.3366331,1.01566125 56.2441703,1.46942987 56.9248233,2.30133901 C57.9836167,3.58701678 59.4205507,8.80535593 60.1012036,12.2086206 L60.1012036,12.2086206 L60.7818566,15.0068604 C61.1599971,16.141282 61.3868814,16.6706787 62.2187905,16.6706787 C63.2019559,16.6706787 63.5800964,15.1581166 64.714518,12.1329925 L64.714518,12.1329925 L64.8771397,11.6874612 L64.8771397,11.6874612 L65.1539008,10.9378742 C66.5443835,7.20213501 68.0288183,3.69775793 69.3278323,2.60385143 C69.857229,2.22571091 70.3866257,1.9988266 71.1429068,1.9988266 C72.2773283,1.9988266 73.7898904,3.05762005 73.7142623,4.79706643 C73.7142623,5.32646316 73.487378,5.93148799 73.1848656,6.61214092 C70.3109976,12.2086206 69.4790885,14.7799761 66.5295924,23.1746956 C65.9245676,24.914142 65.2439147,26.9561008 64.3363774,29.300572 C63.8826088,30.4349936 62.9750716,31.1156465 61.9162781,31.1156465 C60.8574847,31.1156465 59.7986912,30.5862498 58.9667821,29.4518282 C57.6054762,27.5611256 57.45422,25.1410263 55.0341207,15.3093728 C54.6559802,14.3262075 53.4459305,14.2505794 52.9921619,15.1581166 C51.1770874,18.8638937 49.437641,24.4603734 48.3788476,28.1661505 C47.7738227,30.2837374 46.5637731,31.3425308 44.9755829,30.9643903 C43.7655332,30.6618779 42.857996,29.5274563 42.857996,28.0905224 C42.857996,27.0317289 44.5974424,21.1327368 46.1856326,17.0488192 C46.2730776,16.8030279 46.3600056,16.557015 46.4464581,16.3110344 L46.704431,15.5734434 C49.2707274,8.20358074 51.4465125,1.09128936 54.3534678,1.09128936 Z M39.2098369,3.73827298 C39.8904898,2.30133901 41.1761676,1.54505798 42.3862172,1.84757039 C44.2012917,2.22571091 44.7306884,3.88952919 44.0500355,6.91465334 C42.915614,12.1329925 40.9492833,16.897563 39.2098369,21.964646 C37.1678781,27.863638 36.3359689,31.6450432 33.462101,30.6618779 C30.7676024,29.9725875 31.4998326,26.9468912 32.5183917,23.9508436 L32.658766,23.5426977 L32.658766,23.5426977 L32.7297312,23.3391792 L32.8601017,22.9681563 C32.9180098,22.8038498 32.9757377,22.6404346 33.032749,22.4783149 L33.032749,22.4783149 L33.1176613,22.2361574 L33.1595886,22.1159022 C33.9536837,20.0966318 34.7613918,17.7778741 35.5194123,15.4781748 L35.5194123,15.4781748 L35.6703351,15.0185834 C35.6953723,14.9420586 35.7203495,14.8655787 35.7452645,14.7891552 L35.7452645,14.7891552 L35.8939889,14.331388 C37.4966713,9.38164208 38.8165707,4.7705966 39.2098369,3.73827298 Z M16.03342,25.8036702 C17.1969644,25.8036702 18.1402035,26.7469093 18.1402035,27.9104537 C18.1402035,29.0739981 17.1969644,30.0172372 16.03342,30.0172372 C14.8698756,30.0172372 13.9266365,29.0739981 13.9266365,27.9104537 C13.9266365,26.7469093 14.8698756,25.8036702 16.03342,25.8036702 Z M9.94715649,24.3991478 C11.1107009,24.3991478 12.05394,25.3423869 12.05394,26.5059313 C12.05394,27.6694757 11.1107009,28.6127149 9.94715649,28.6127149 C8.78361207,28.6127149 7.84037296,27.6694757 7.84037296,26.5059313 C7.84037296,25.3423869 8.78361207,24.3991478 9.94715649,24.3991478 Z M113.001277,13.6455546 C111.488715,12.9649016 108.161079,17.8051003 108.91736,19.1664061 C109.219872,19.8470591 109.824897,19.9226872 111.110575,19.9226872 C112.169368,19.9226872 113.001277,19.3932904 113.152534,18.2588689 C113.68193,14.4774637 113.68193,13.8724389 113.001277,13.6455546 Z" id="Logo"></path>
            </g>
        </g>
    </g>
</svg>